{"glyphs":{"0":{"ha":833,"x_min":65,"x_max":807,"o":"m 353 -14 q 188 24 254 -14 q 94 129 122 61 q 79 289 65 197 l 149 725 q 213 885 164 817 q 342 990 263 953 q 518 1028 421 1028 q 684 990 618 1028 q 778 885 750 953 q 792 725 807 817 l 722 289 q 658 129 708 197 q 529 24 607 61 q 353 -14 451 -14 m 378 136 q 499 178 450 136 q 558 289 547 219 l 628 725 q 603 836 639 794 q 494 878 568 878 q 373 836 422 878 q 313 725 324 794 l 243 289 q 269 178 232 219 q 378 136 306 136 m 435 417 q 368 443 393 417 q 343 511 343 469 q 368 578 343 553 q 435 603 393 603 q 501 578 476 603 q 526 511 526 553 q 501 443 526 469 q 435 417 476 417 z "},"1":{"ha":833,"x_min":56,"x_max":729,"o":"m 56 0 l 81 153 l 344 153 l 456 860 l 158 663 l 189 846 l 449 1014 l 654 1014 l 518 153 l 729 153 l 706 0 l 56 0 z "},"2":{"ha":833,"x_min":49,"x_max":800,"o":"m 49 0 l 75 168 l 443 486 q 560 609 519 554 q 610 722 600 664 q 589 833 621 793 q 490 872 557 872 q 368 830 417 872 q 307 713 319 788 l 133 713 q 203 880 151 810 q 336 989 256 950 q 517 1028 417 1028 q 677 992 613 1028 q 771 890 742 956 q 786 735 800 825 q 708 549 771 640 q 526 360 644 457 l 283 157 l 707 157 l 682 0 l 49 0 z "},"3":{"ha":833,"x_min":51,"x_max":794,"o":"m 343 -14 q 177 22 244 -14 q 81 124 110 58 q 65 278 51 189 l 240 278 q 262 172 228 210 q 368 133 296 133 q 486 172 440 133 q 542 278 532 211 l 554 357 q 532 463 565 425 q 426 501 499 501 l 314 501 l 338 658 l 590 865 l 204 865 l 228 1014 l 794 1014 l 769 857 l 442 590 l 451 650 q 674 571 600 650 q 728 357 749 492 l 717 278 q 653 124 704 189 q 522 22 601 58 q 343 -14 442 -14 z "},"4":{"ha":833,"x_min":61,"x_max":776,"o":"m 481 0 l 511 201 l 61 201 l 101 453 l 581 1014 l 776 1014 l 260 407 l 251 354 l 536 354 l 574 583 l 747 583 l 654 0 l 481 0 z "},"5":{"ha":833,"x_min":64,"x_max":799,"o":"m 351 -14 q 138 56 211 -14 q 75 247 64 126 l 249 247 q 278 166 246 194 q 376 138 311 138 q 492 176 449 138 q 546 282 535 214 l 561 381 q 541 487 572 450 q 438 524 510 524 q 358 506 393 524 q 301 456 322 488 l 132 456 l 228 1014 l 799 1014 l 774 857 l 367 857 l 317 563 l 357 563 l 310 528 q 377 628 321 592 q 519 665 433 665 q 700 591 643 667 q 735 381 757 515 l 719 282 q 599 65 697 144 q 351 -14 501 -14 z "},"6":{"ha":833,"x_min":50,"x_max":761,"o":"m 353 -14 q 181 28 251 -14 q 81 148 111 71 q 67 326 50 225 q 115 478 78 399 q 206 626 151 557 l 507 1014 l 700 1014 l 331 542 l 338 536 q 422 601 374 579 q 528 624 469 624 q 663 585 608 624 q 739 476 717 546 q 746 314 761 407 q 676 142 731 215 q 540 27 622 68 q 353 -14 457 -14 m 376 133 q 508 183 453 133 q 575 311 563 232 q 549 442 588 393 q 433 492 510 492 q 302 442 357 492 q 235 311 247 393 q 261 183 222 232 q 376 133 300 133 z "},"7":{"ha":833,"x_min":133,"x_max":856,"o":"m 154 0 l 653 853 l 331 853 l 307 706 l 133 706 l 183 1014 l 856 1014 l 829 850 l 343 0 l 154 0 z "},"8":{"ha":833,"x_min":49,"x_max":799,"o":"m 353 -14 q 125 62 201 -14 q 68 263 49 138 q 145 419 83 354 q 317 531 207 485 l 482 601 q 572 665 536 625 q 614 756 607 706 q 592 847 624 813 q 494 881 560 881 q 387 846 431 881 q 335 754 343 811 q 350 665 328 706 q 417 603 372 625 l 561 532 q 701 417 663 483 q 725 263 740 351 q 662 115 713 178 q 533 19 611 53 q 353 -14 454 -14 m 376 135 q 497 173 449 135 q 556 274 546 211 q 541 366 564 322 q 471 433 518 410 l 318 510 q 191 616 231 554 q 165 764 151 678 q 225 901 178 842 q 347 994 272 961 q 518 1028 422 1028 q 678 994 614 1028 q 770 901 742 961 q 786 764 799 842 q 714 615 772 676 q 554 510 656 554 l 375 432 q 285 367 321 410 q 242 275 250 324 q 268 174 232 213 q 376 135 304 135 z "},"9":{"ha":833,"x_min":111,"x_max":821,"o":"m 172 0 l 547 472 l 539 478 q 454 413 506 435 q 344 390 403 390 q 210 429 264 390 q 133 538 156 468 q 126 700 111 607 q 195 872 142 799 q 332 987 249 946 q 518 1028 415 1028 q 690 985 621 1028 q 790 867 760 943 q 806 688 821 790 q 758 537 794 617 q 665 388 721 457 l 365 0 l 172 0 m 439 522 q 570 572 515 522 q 638 703 625 621 q 611 831 650 782 q 494 881 572 881 q 364 831 418 881 q 296 703 310 782 q 323 572 285 621 q 439 522 361 522 z "},"A":{"ha":833,"x_min":-12,"x_max":724,"o":"m -12 0 l 404 1014 l 628 1014 l 724 0 l 551 0 l 535 246 l 265 246 l 171 0 l -12 0 m 318 388 l 525 388 l 507 660 q 499 783 503 728 q 496 863 496 838 q 469 783 488 838 q 425 661 450 728 l 318 388 z "},"Á":{"ha":833,"x_min":-12,"x_max":796,"o":"m -12 0 l 404 1014 l 628 1014 l 724 0 l 551 0 l 535 246 l 265 246 l 171 0 l -12 0 m 318 388 l 525 388 l 507 660 q 499 783 503 728 q 496 863 496 838 q 469 783 488 838 q 425 661 450 728 l 318 388 m 424 1125 l 601 1319 l 796 1319 l 606 1125 l 424 1125 z "},"Ă":{"ha":833,"x_min":-12,"x_max":807,"o":"m -12 0 l 404 1014 l 628 1014 l 724 0 l 551 0 l 535 246 l 265 246 l 171 0 l -12 0 m 318 388 l 525 388 l 507 660 q 499 783 503 728 q 496 863 496 838 q 469 783 488 838 q 425 661 450 728 l 318 388 m 532 1114 q 366 1171 424 1114 q 322 1319 308 1228 l 454 1319 q 472 1246 447 1274 q 546 1218 497 1218 q 628 1246 594 1218 q 669 1319 663 1274 l 807 1319 q 717 1171 793 1228 q 532 1114 640 1114 z "},"Ắ":{"ha":833,"x_min":-12,"x_max":814,"o":"m -12 0 l 404 1014 l 628 1014 l 724 0 l 551 0 l 535 246 l 265 246 l 171 0 l -12 0 m 318 388 l 525 388 l 507 660 q 499 783 503 728 q 496 863 496 838 q 469 783 488 838 q 425 661 450 728 l 318 388 m 457 1254 l 629 1417 l 797 1417 l 614 1254 l 457 1254 m 485 1083 q 335 1133 386 1083 q 299 1268 285 1183 l 415 1268 q 431 1206 410 1229 q 499 1183 453 1183 l 585 1183 q 660 1206 631 1183 q 696 1268 690 1229 l 814 1268 q 735 1133 800 1183 q 569 1083 669 1083 l 485 1083 z "},"Ặ":{"ha":833,"x_min":-12,"x_max":807,"o":"m 532 1114 q 366 1171 424 1114 q 322 1319 308 1228 l 454 1319 q 472 1246 447 1274 q 546 1218 497 1218 q 628 1246 594 1218 q 669 1319 663 1274 l 807 1319 q 717 1171 793 1228 q 532 1114 640 1114 m -12 0 l 404 1014 l 628 1014 l 724 0 l 551 0 l 535 246 l 265 246 l 171 0 l -12 0 m 318 388 l 525 388 l 507 660 q 499 783 503 728 q 496 863 496 838 q 469 783 488 838 q 425 661 450 728 l 318 388 m 319 -312 q 242 -285 268 -312 q 221 -212 215 -258 q 265 -138 229 -165 q 353 -111 300 -111 q 431 -138 404 -111 q 450 -212 457 -165 q 408 -285 443 -258 q 319 -312 372 -312 z "},"Ằ":{"ha":833,"x_min":-12,"x_max":814,"o":"m -12 0 l 404 1014 l 628 1014 l 724 0 l 551 0 l 535 246 l 265 246 l 171 0 l -12 0 m 318 388 l 525 388 l 507 660 q 499 783 503 728 q 496 863 496 838 q 469 783 488 838 q 425 661 450 728 l 318 388 m 485 1083 q 335 1133 386 1083 q 299 1268 285 1183 l 415 1268 q 431 1206 410 1229 q 499 1183 453 1183 l 585 1183 q 660 1206 631 1183 q 696 1268 690 1229 l 814 1268 q 735 1133 800 1183 q 569 1083 669 1083 l 485 1083 m 507 1254 l 399 1417 l 544 1417 l 642 1254 l 507 1254 z "},"Ẳ":{"ha":833,"x_min":-12,"x_max":814,"o":"m -12 0 l 404 1014 l 628 1014 l 724 0 l 551 0 l 535 246 l 265 246 l 171 0 l -12 0 m 318 388 l 525 388 l 507 660 q 499 783 503 728 q 496 863 496 838 q 469 783 488 838 q 425 661 450 728 l 318 388 m 478 1231 l 535 1288 q 546 1300 542 1294 q 551 1311 550 1306 q 535 1325 554 1325 l 440 1325 l 456 1417 l 593 1417 q 665 1395 642 1417 q 681 1335 688 1374 q 667 1296 676 1314 q 643 1263 657 1278 l 613 1231 l 478 1231 m 485 1083 q 335 1133 386 1083 q 299 1268 285 1183 l 415 1268 q 431 1206 410 1229 q 499 1183 453 1183 l 585 1183 q 660 1206 631 1183 q 696 1268 690 1229 l 814 1268 q 735 1133 800 1183 q 569 1083 669 1083 l 485 1083 z "},"Ẵ":{"ha":833,"x_min":-12,"x_max":819,"o":"m -12 0 l 404 1014 l 628 1014 l 724 0 l 551 0 l 535 246 l 265 246 l 171 0 l -12 0 m 318 388 l 525 388 l 507 660 q 499 783 503 728 q 496 863 496 838 q 469 783 488 838 q 425 661 450 728 l 318 388 m 478 1083 q 344 1124 390 1083 q 311 1242 299 1165 l 429 1242 q 440 1198 424 1213 q 489 1183 457 1183 l 597 1183 q 651 1198 629 1183 q 676 1242 672 1213 l 794 1242 q 724 1124 782 1165 q 578 1083 667 1083 l 478 1083 m 667 1269 q 601 1278 628 1269 q 554 1297 575 1286 q 513 1317 533 1308 q 468 1325 493 1325 q 425 1288 432 1325 l 424 1279 l 317 1279 l 318 1288 q 369 1381 328 1346 q 472 1417 411 1417 q 538 1408 511 1417 q 584 1389 564 1400 q 624 1369 604 1378 q 668 1361 643 1361 q 697 1372 685 1361 q 713 1399 710 1382 l 714 1407 l 819 1407 l 818 1399 q 768 1304 808 1339 q 667 1269 728 1269 z "},"Ǎ":{"ha":833,"x_min":-12,"x_max":835,"o":"m -12 0 l 404 1014 l 628 1014 l 724 0 l 551 0 l 535 246 l 265 246 l 171 0 l -12 0 m 318 388 l 525 388 l 507 660 q 499 783 503 728 q 496 863 496 838 q 469 783 488 838 q 425 661 450 728 l 318 388 m 453 1125 l 293 1319 l 456 1319 l 546 1218 l 663 1319 l 835 1319 l 614 1125 l 453 1125 z "},"Â":{"ha":833,"x_min":-12,"x_max":804,"o":"m -12 0 l 404 1014 l 628 1014 l 724 0 l 551 0 l 535 246 l 265 246 l 171 0 l -12 0 m 318 388 l 525 388 l 507 660 q 499 783 503 728 q 496 863 496 838 q 469 783 488 838 q 425 661 450 728 l 318 388 m 263 1125 l 483 1319 l 644 1319 l 804 1125 l 642 1125 l 551 1226 l 435 1125 l 263 1125 z "},"Ấ":{"ha":833,"x_min":-12,"x_max":1067,"o":"m 710 1254 l 882 1417 l 1067 1417 l 883 1254 l 710 1254 m 257 1083 l 478 1278 l 639 1278 l 799 1083 l 636 1083 l 550 1185 l 431 1083 l 257 1083 m -12 0 l 404 1014 l 628 1014 l 724 0 l 551 0 l 535 246 l 265 246 l 171 0 l -12 0 m 318 388 l 525 388 l 507 660 q 499 783 503 728 q 496 863 496 838 q 469 783 488 838 q 425 661 450 728 l 318 388 z "},"Ậ":{"ha":833,"x_min":-12,"x_max":804,"o":"m 263 1125 l 483 1319 l 644 1319 l 804 1125 l 642 1125 l 551 1226 l 435 1125 l 263 1125 m -12 0 l 404 1014 l 628 1014 l 724 0 l 551 0 l 535 246 l 265 246 l 171 0 l -12 0 m 318 388 l 525 388 l 507 660 q 499 783 503 728 q 496 863 496 838 q 469 783 488 838 q 425 661 450 728 l 318 388 m 319 -312 q 242 -285 268 -312 q 221 -212 215 -258 q 265 -138 229 -165 q 353 -111 300 -111 q 431 -138 404 -111 q 450 -212 457 -165 q 408 -285 443 -258 q 319 -312 372 -312 z "},"Ầ":{"ha":833,"x_min":-12,"x_max":924,"o":"m -12 0 l 404 1014 l 628 1014 l 724 0 l 551 0 l 535 246 l 265 246 l 171 0 l -12 0 m 318 388 l 525 388 l 507 660 q 499 783 503 728 q 496 863 496 838 q 469 783 488 838 q 425 661 450 728 l 318 388 m 767 1254 l 631 1417 l 799 1417 l 924 1254 l 767 1254 m 257 1083 l 478 1278 l 639 1278 l 799 1083 l 636 1083 l 550 1185 l 431 1083 l 257 1083 z "},"Ẩ":{"ha":833,"x_min":-12,"x_max":953,"o":"m 725 1214 l 789 1269 q 804 1285 800 1278 q 810 1299 808 1292 q 783 1321 813 1321 l 693 1321 l 708 1417 l 835 1417 q 922 1390 892 1417 q 944 1314 953 1363 q 931 1278 942 1296 q 904 1247 919 1260 l 864 1214 l 725 1214 m 257 1083 l 478 1278 l 639 1278 l 799 1083 l 636 1083 l 550 1185 l 431 1083 l 257 1083 m -12 0 l 404 1014 l 628 1014 l 724 0 l 551 0 l 535 246 l 265 246 l 171 0 l -12 0 m 318 388 l 525 388 l 507 660 q 499 783 503 728 q 496 863 496 838 q 469 783 488 838 q 425 661 450 728 l 318 388 z "},"Ẫ":{"ha":833,"x_min":-12,"x_max":819,"o":"m -12 0 l 404 1014 l 628 1014 l 724 0 l 551 0 l 535 246 l 265 246 l 171 0 l -12 0 m 318 388 l 525 388 l 507 660 q 499 783 503 728 q 496 863 496 838 q 469 783 488 838 q 425 661 450 728 l 318 388 m 667 1269 q 601 1278 628 1269 q 554 1297 575 1286 q 513 1317 533 1308 q 468 1325 493 1325 q 425 1288 432 1325 l 424 1279 l 317 1279 l 318 1288 q 369 1381 328 1346 q 472 1417 411 1417 q 538 1408 511 1417 q 584 1389 564 1400 q 624 1369 604 1378 q 668 1361 643 1361 q 697 1372 685 1361 q 713 1399 710 1382 l 714 1407 l 819 1407 l 818 1399 q 768 1304 808 1339 q 667 1269 728 1269 m 257 1083 l 425 1231 l 676 1231 l 799 1083 l 631 1083 l 544 1186 l 426 1083 l 257 1083 z "},"Ä":{"ha":833,"x_min":-12,"x_max":821,"o":"m -12 0 l 404 1014 l 628 1014 l 724 0 l 551 0 l 535 246 l 265 246 l 171 0 l -12 0 m 318 388 l 525 388 l 507 660 q 499 783 503 728 q 496 863 496 838 q 469 783 488 838 q 425 661 450 728 l 318 388 m 696 1122 q 626 1149 650 1122 q 610 1222 603 1176 q 650 1297 618 1269 q 729 1324 682 1324 q 798 1297 775 1324 q 814 1222 821 1269 q 775 1149 807 1176 q 696 1122 743 1122 m 369 1122 q 301 1149 324 1122 q 283 1222 278 1176 q 324 1297 292 1269 q 403 1324 356 1324 q 472 1297 449 1324 q 488 1222 496 1269 q 449 1149 481 1176 q 369 1122 417 1122 z "},"Ạ":{"ha":833,"x_min":-12,"x_max":724,"o":"m -12 0 l 404 1014 l 628 1014 l 724 0 l 551 0 l 535 246 l 265 246 l 171 0 l -12 0 m 318 388 l 525 388 l 507 660 q 499 783 503 728 q 496 863 496 838 q 469 783 488 838 q 425 661 450 728 l 318 388 m 319 -312 q 242 -285 268 -312 q 221 -212 215 -258 q 265 -138 229 -165 q 353 -111 300 -111 q 431 -138 404 -111 q 450 -212 457 -165 q 408 -285 443 -258 q 319 -312 372 -312 z "},"À":{"ha":833,"x_min":-12,"x_max":724,"o":"m -12 0 l 404 1014 l 628 1014 l 724 0 l 551 0 l 535 246 l 265 246 l 171 0 l -12 0 m 318 388 l 525 388 l 507 660 q 499 783 503 728 q 496 863 496 838 q 469 783 488 838 q 425 661 450 728 l 318 388 m 467 1125 l 336 1319 l 519 1319 l 638 1125 l 467 1125 z "},"Ả":{"ha":833,"x_min":-12,"x_max":724,"o":"m -12 0 l 404 1014 l 628 1014 l 724 0 l 551 0 l 535 246 l 265 246 l 171 0 l -12 0 m 318 388 l 525 388 l 507 660 q 499 783 503 728 q 496 863 496 838 q 469 783 488 838 q 425 661 450 728 l 318 388 m 440 1132 l 522 1215 q 542 1239 535 1229 q 550 1257 549 1249 q 515 1283 554 1283 l 411 1283 l 428 1389 l 574 1389 q 665 1359 633 1389 q 689 1276 697 1329 q 676 1234 686 1256 q 649 1196 665 1213 l 588 1132 l 440 1132 z "},"Ā":{"ha":833,"x_min":-12,"x_max":797,"o":"m -12 0 l 404 1014 l 628 1014 l 724 0 l 551 0 l 535 246 l 265 246 l 171 0 l -12 0 m 318 388 l 525 388 l 507 660 q 499 783 503 728 q 496 863 496 838 q 469 783 488 838 q 425 661 450 728 l 318 388 m 300 1150 l 319 1283 l 797 1283 l 776 1150 l 300 1150 z "},"Ą":{"ha":833,"x_min":-12,"x_max":724,"o":"m 561 -300 q 438 -260 479 -300 q 407 -157 396 -219 q 456 -67 414 -111 q 574 15 499 -22 l 686 15 l 649 -14 q 588 -72 610 -44 q 563 -121 565 -99 q 574 -163 558 -146 q 621 -181 589 -181 l 713 -181 l 693 -300 l 561 -300 m -12 0 l 404 1014 l 628 1014 l 724 0 l 551 0 l 535 246 l 265 246 l 171 0 l -12 0 m 318 388 l 525 388 l 507 660 q 499 783 503 728 q 496 863 496 838 q 469 783 488 838 q 425 661 450 728 l 318 388 z "},"Å":{"ha":833,"x_min":-12,"x_max":743,"o":"m -12 0 l 404 1014 l 628 1014 l 724 0 l 551 0 l 535 246 l 265 246 l 171 0 l -12 0 m 318 388 l 525 388 l 507 660 q 499 783 503 728 q 496 863 496 838 q 469 783 488 838 q 425 661 450 728 l 318 388 m 522 1053 q 397 1099 440 1053 q 365 1222 354 1146 q 435 1344 378 1297 q 575 1392 493 1392 q 701 1345 658 1392 q 732 1222 743 1299 q 663 1099 721 1146 q 522 1053 604 1053 m 536 1140 q 600 1163 574 1140 q 632 1222 626 1186 q 619 1282 639 1260 q 561 1304 600 1304 q 499 1282 525 1304 q 465 1222 472 1260 q 479 1163 460 1186 q 536 1140 499 1140 z "},"Ã":{"ha":833,"x_min":-12,"x_max":803,"o":"m -12 0 l 404 1014 l 628 1014 l 724 0 l 551 0 l 535 246 l 265 246 l 171 0 l -12 0 m 318 388 l 525 388 l 507 660 q 499 783 503 728 q 496 863 496 838 q 469 783 488 838 q 425 661 450 728 l 318 388 m 631 1119 q 563 1133 588 1119 q 522 1164 538 1146 q 492 1195 507 1182 q 457 1208 478 1208 q 425 1197 439 1208 q 408 1163 411 1185 l 401 1126 l 296 1126 l 303 1172 q 360 1283 314 1240 q 468 1325 406 1325 q 536 1312 511 1325 q 576 1281 561 1299 q 606 1249 592 1263 q 642 1236 621 1236 q 674 1247 661 1236 q 690 1279 686 1257 l 696 1318 l 803 1318 l 796 1272 q 740 1162 785 1204 q 631 1119 694 1119 z "},"Æ":{"ha":833,"x_min":-44,"x_max":900,"o":"m -44 0 l 313 1014 l 900 1014 l 876 865 l 638 865 l 596 596 l 799 596 l 774 443 l 571 443 l 524 150 l 763 150 l 739 0 l 350 0 l 389 251 l 208 251 l 125 0 l -44 0 m 251 379 l 410 379 l 486 865 l 415 865 l 251 379 z "},"Ǽ":{"ha":833,"x_min":-44,"x_max":900,"o":"m -44 0 l 313 1014 l 900 1014 l 876 865 l 638 865 l 596 596 l 799 596 l 774 443 l 571 443 l 524 150 l 763 150 l 739 0 l 350 0 l 389 251 l 208 251 l 125 0 l -44 0 m 251 379 l 410 379 l 486 865 l 415 865 l 251 379 m 431 1125 l 608 1319 l 803 1319 l 613 1125 l 431 1125 z "},"B":{"ha":833,"x_min":46,"x_max":815,"o":"m 46 0 l 207 1014 l 518 1014 q 740 944 665 1014 q 796 753 815 874 q 747 635 786 685 q 651 557 708 585 q 528 529 594 529 l 528 535 q 654 508 601 536 q 733 424 707 479 q 744 289 758 368 q 681 136 731 201 q 552 35 631 71 q 372 0 474 0 l 46 0 m 238 144 l 385 144 q 511 185 461 144 q 572 297 561 226 q 547 412 583 368 q 433 456 510 456 l 286 456 l 238 144 m 308 596 l 449 596 q 563 633 518 596 q 619 733 608 669 q 595 833 629 797 q 492 869 561 869 l 351 869 l 308 596 z "},"C":{"ha":833,"x_min":69,"x_max":813,"o":"m 358 -14 q 194 23 261 -14 q 98 127 126 60 q 83 286 69 194 l 153 728 q 219 888 168 821 q 348 991 269 954 q 524 1028 426 1028 q 688 991 622 1028 q 783 887 753 954 q 797 728 813 819 l 624 728 q 603 838 636 800 q 500 875 571 875 q 384 838 429 875 q 328 729 339 800 l 257 286 q 279 177 246 215 q 383 139 313 139 q 498 177 453 139 q 554 286 543 215 l 728 286 q 663 128 714 196 q 535 23 613 60 q 358 -14 457 -14 z "},"Ć":{"ha":833,"x_min":69,"x_max":813,"o":"m 358 -14 q 194 23 261 -14 q 98 127 126 60 q 83 286 69 194 l 153 728 q 219 888 168 821 q 348 991 269 954 q 524 1028 426 1028 q 688 991 622 1028 q 783 887 753 954 q 797 728 813 819 l 624 728 q 603 838 636 800 q 500 875 571 875 q 384 838 429 875 q 328 729 339 800 l 257 286 q 279 177 246 215 q 383 139 313 139 q 498 177 453 139 q 554 286 543 215 l 728 286 q 663 128 714 196 q 535 23 613 60 q 358 -14 457 -14 m 431 1125 l 608 1319 l 803 1319 l 613 1125 l 431 1125 z "},"Č":{"ha":833,"x_min":69,"x_max":842,"o":"m 358 -14 q 194 23 261 -14 q 98 127 126 60 q 83 286 69 194 l 153 728 q 219 888 168 821 q 348 991 269 954 q 524 1028 426 1028 q 688 991 622 1028 q 783 887 753 954 q 797 728 813 819 l 624 728 q 603 838 636 800 q 500 875 571 875 q 384 838 429 875 q 328 729 339 800 l 257 286 q 279 177 246 215 q 383 139 313 139 q 498 177 453 139 q 554 286 543 215 l 728 286 q 663 128 714 196 q 535 23 613 60 q 358 -14 457 -14 m 460 1125 l 300 1319 l 463 1319 l 553 1218 l 669 1319 l 842 1319 l 621 1125 l 460 1125 z "},"Ç":{"ha":833,"x_min":69,"x_max":813,"o":"m 175 -300 l 189 -211 l 294 -211 q 351 -195 328 -211 q 375 -161 374 -179 q 342 -115 381 -133 q 231 -96 304 -96 l 299 28 l 392 28 l 351 -51 q 431 -69 390 -56 q 497 -110 472 -83 q 515 -178 522 -137 q 452 -263 508 -226 q 313 -300 396 -300 l 175 -300 m 358 -14 q 194 23 261 -14 q 98 127 126 60 q 83 286 69 194 l 153 728 q 219 888 168 821 q 348 991 269 954 q 524 1028 426 1028 q 688 991 622 1028 q 783 887 753 954 q 797 728 813 819 l 624 728 q 603 838 636 800 q 500 875 571 875 q 384 838 429 875 q 328 729 339 800 l 257 286 q 279 177 246 215 q 383 139 313 139 q 498 177 453 139 q 554 286 543 215 l 728 286 q 663 128 714 196 q 535 23 613 60 q 358 -14 457 -14 z "},"Ĉ":{"ha":833,"x_min":69,"x_max":813,"o":"m 358 -14 q 194 23 261 -14 q 98 127 126 60 q 83 286 69 194 l 153 728 q 219 888 168 821 q 348 991 269 954 q 524 1028 426 1028 q 688 991 622 1028 q 783 887 753 954 q 797 728 813 819 l 624 728 q 603 838 636 800 q 500 875 571 875 q 384 838 429 875 q 328 729 339 800 l 257 286 q 279 177 246 215 q 383 139 313 139 q 498 177 453 139 q 554 286 543 215 l 728 286 q 663 128 714 196 q 535 23 613 60 q 358 -14 457 -14 m 269 1125 l 490 1319 l 651 1319 l 811 1125 l 649 1125 l 558 1226 l 442 1125 l 269 1125 z "},"Ċ":{"ha":833,"x_min":69,"x_max":813,"o":"m 358 -14 q 194 23 261 -14 q 98 127 126 60 q 83 286 69 194 l 153 728 q 219 888 168 821 q 348 991 269 954 q 524 1028 426 1028 q 688 991 622 1028 q 783 887 753 954 q 797 728 813 819 l 624 728 q 603 838 636 800 q 500 875 571 875 q 384 838 429 875 q 328 729 339 800 l 257 286 q 279 177 246 215 q 383 139 313 139 q 498 177 453 139 q 554 286 543 215 l 728 286 q 663 128 714 196 q 535 23 613 60 q 358 -14 457 -14 m 540 1122 q 461 1149 488 1122 q 442 1222 435 1176 q 484 1295 449 1268 q 572 1322 519 1322 q 651 1295 625 1322 q 669 1222 678 1268 q 628 1149 664 1176 q 540 1122 593 1122 z "},"D":{"ha":833,"x_min":43,"x_max":808,"o":"m 43 0 l 204 1014 l 506 1014 q 678 975 608 1014 q 778 865 747 936 q 793 697 808 794 l 733 318 q 665 151 718 222 q 529 40 611 79 q 344 0 447 0 l 43 0 m 242 160 l 369 160 q 497 202 446 160 q 558 318 547 244 l 619 697 q 593 812 631 769 q 479 854 556 854 l 351 854 l 242 160 z "},"Ð":{"ha":833,"x_min":14,"x_max":808,"o":"m 14 457 l 14 578 l 403 578 l 403 457 l 14 457 m 43 0 l 204 1014 l 506 1014 q 678 975 608 1014 q 778 865 747 936 q 793 697 808 794 l 733 318 q 665 151 718 222 q 529 40 611 79 q 344 0 447 0 l 43 0 m 242 160 l 369 160 q 497 202 446 160 q 558 318 547 244 l 619 697 q 593 812 631 769 q 479 854 556 854 l 351 854 l 242 160 z "},"Ď":{"ha":833,"x_min":43,"x_max":835,"o":"m 43 0 l 204 1014 l 506 1014 q 678 975 608 1014 q 778 865 747 936 q 793 697 808 794 l 733 318 q 665 151 718 222 q 529 40 611 79 q 344 0 447 0 l 43 0 m 242 160 l 369 160 q 497 202 446 160 q 558 318 547 244 l 619 697 q 593 812 631 769 q 479 854 556 854 l 351 854 l 242 160 m 453 1125 l 293 1319 l 456 1319 l 546 1218 l 663 1319 l 835 1319 l 614 1125 l 453 1125 z "},"Đ":{"ha":833,"x_min":14,"x_max":808,"o":"m 14 457 l 14 578 l 403 578 l 403 457 l 14 457 m 43 0 l 204 1014 l 506 1014 q 678 975 608 1014 q 778 865 747 936 q 793 697 808 794 l 733 318 q 665 151 718 222 q 529 40 611 79 q 344 0 447 0 l 43 0 m 242 160 l 369 160 q 497 202 446 160 q 558 318 547 244 l 619 697 q 593 812 631 769 q 479 854 556 854 l 351 854 l 242 160 z "},"E":{"ha":833,"x_min":61,"x_max":831,"o":"m 61 0 l 222 1014 l 831 1014 l 806 863 l 369 863 l 326 599 l 715 599 l 692 449 l 303 449 l 256 151 l 693 151 l 669 0 l 61 0 z "},"É":{"ha":833,"x_min":61,"x_max":831,"o":"m 61 0 l 222 1014 l 831 1014 l 806 863 l 369 863 l 326 599 l 715 599 l 692 449 l 303 449 l 256 151 l 693 151 l 669 0 l 61 0 m 451 1125 l 629 1319 l 824 1319 l 633 1125 l 451 1125 z "},"Ĕ":{"ha":833,"x_min":61,"x_max":835,"o":"m 61 0 l 222 1014 l 831 1014 l 806 863 l 369 863 l 326 599 l 715 599 l 692 449 l 303 449 l 256 151 l 693 151 l 669 0 l 61 0 m 560 1114 q 394 1171 451 1114 q 350 1319 336 1228 l 482 1319 q 500 1246 475 1274 q 574 1218 525 1218 q 656 1246 622 1218 q 697 1319 690 1274 l 835 1319 q 744 1171 821 1228 q 560 1114 668 1114 z "},"Ě":{"ha":833,"x_min":61,"x_max":863,"o":"m 61 0 l 222 1014 l 831 1014 l 806 863 l 369 863 l 326 599 l 715 599 l 692 449 l 303 449 l 256 151 l 693 151 l 669 0 l 61 0 m 481 1125 l 321 1319 l 483 1319 l 574 1218 l 690 1319 l 863 1319 l 642 1125 l 481 1125 z "},"Ê":{"ha":833,"x_min":61,"x_max":832,"o":"m 61 0 l 222 1014 l 831 1014 l 806 863 l 369 863 l 326 599 l 715 599 l 692 449 l 303 449 l 256 151 l 693 151 l 669 0 l 61 0 m 290 1125 l 511 1319 l 672 1319 l 832 1125 l 669 1125 l 579 1226 l 463 1125 l 290 1125 z "},"Ế":{"ha":833,"x_min":61,"x_max":1067,"o":"m 61 0 l 222 1014 l 831 1014 l 806 863 l 369 863 l 326 599 l 715 599 l 692 449 l 303 449 l 256 151 l 693 151 l 669 0 l 61 0 m 710 1254 l 882 1417 l 1067 1417 l 883 1254 l 710 1254 m 257 1083 l 478 1278 l 639 1278 l 799 1083 l 636 1083 l 550 1185 l 431 1083 l 257 1083 z "},"Ệ":{"ha":833,"x_min":61,"x_max":831,"o":"m 263 1125 l 483 1319 l 644 1319 l 804 1125 l 642 1125 l 551 1226 l 435 1125 l 263 1125 m 61 0 l 222 1014 l 831 1014 l 806 863 l 369 863 l 326 599 l 715 599 l 692 449 l 303 449 l 256 151 l 693 151 l 669 0 l 61 0 m 333 -312 q 256 -285 282 -312 q 235 -212 229 -258 q 278 -138 243 -165 q 367 -111 314 -111 q 444 -138 418 -111 q 464 -212 471 -165 q 422 -285 457 -258 q 333 -312 386 -312 z "},"Ề":{"ha":833,"x_min":61,"x_max":924,"o":"m 61 0 l 222 1014 l 831 1014 l 806 863 l 369 863 l 326 599 l 715 599 l 692 449 l 303 449 l 256 151 l 693 151 l 669 0 l 61 0 m 767 1254 l 631 1417 l 799 1417 l 924 1254 l 767 1254 m 257 1083 l 478 1278 l 639 1278 l 799 1083 l 636 1083 l 550 1185 l 431 1083 l 257 1083 z "},"Ể":{"ha":833,"x_min":61,"x_max":953,"o":"m 61 0 l 222 1014 l 831 1014 l 806 863 l 369 863 l 326 599 l 715 599 l 692 449 l 303 449 l 256 151 l 693 151 l 669 0 l 61 0 m 725 1214 l 789 1269 q 804 1285 800 1278 q 810 1299 808 1292 q 783 1321 813 1321 l 693 1321 l 708 1417 l 835 1417 q 922 1390 892 1417 q 944 1314 953 1363 q 931 1278 942 1296 q 904 1247 919 1260 l 864 1214 l 725 1214 m 257 1083 l 478 1278 l 639 1278 l 799 1083 l 636 1083 l 550 1185 l 431 1083 l 257 1083 z "},"Ễ":{"ha":833,"x_min":61,"x_max":831,"o":"m 61 0 l 222 1014 l 831 1014 l 806 863 l 369 863 l 326 599 l 715 599 l 692 449 l 303 449 l 256 151 l 693 151 l 669 0 l 61 0 m 667 1269 q 601 1278 628 1269 q 554 1297 575 1286 q 513 1317 533 1308 q 468 1325 493 1325 q 425 1288 432 1325 l 424 1279 l 317 1279 l 318 1288 q 369 1381 328 1346 q 472 1417 411 1417 q 538 1408 511 1417 q 584 1389 564 1400 q 624 1369 604 1378 q 668 1361 643 1361 q 697 1372 685 1361 q 713 1399 710 1382 l 714 1407 l 819 1407 l 818 1399 q 768 1304 808 1339 q 667 1269 728 1269 m 257 1083 l 425 1231 l 676 1231 l 799 1083 l 631 1083 l 544 1186 l 426 1083 l 257 1083 z "},"Ë":{"ha":833,"x_min":61,"x_max":849,"o":"m 61 0 l 222 1014 l 831 1014 l 806 863 l 369 863 l 326 599 l 715 599 l 692 449 l 303 449 l 256 151 l 693 151 l 669 0 l 61 0 m 724 1122 q 654 1149 678 1122 q 638 1222 631 1176 q 678 1297 646 1269 q 757 1324 710 1324 q 826 1297 803 1324 q 842 1222 849 1269 q 803 1149 835 1176 q 724 1122 771 1122 m 397 1122 q 328 1149 351 1122 q 311 1222 306 1176 q 351 1297 319 1269 q 431 1324 383 1324 q 500 1297 476 1324 q 515 1222 524 1269 q 476 1149 508 1176 q 397 1122 444 1122 z "},"Ė":{"ha":833,"x_min":61,"x_max":831,"o":"m 61 0 l 222 1014 l 831 1014 l 806 863 l 369 863 l 326 599 l 715 599 l 692 449 l 303 449 l 256 151 l 693 151 l 669 0 l 61 0 m 561 1122 q 482 1149 508 1122 q 463 1222 456 1176 q 505 1295 469 1268 q 593 1322 540 1322 q 672 1295 646 1322 q 690 1222 699 1268 q 649 1149 685 1176 q 561 1122 614 1122 z "},"Ẹ":{"ha":833,"x_min":61,"x_max":831,"o":"m 61 0 l 222 1014 l 831 1014 l 806 863 l 369 863 l 326 599 l 715 599 l 692 449 l 303 449 l 256 151 l 693 151 l 669 0 l 61 0 m 333 -312 q 256 -285 282 -312 q 235 -212 229 -258 q 278 -138 243 -165 q 367 -111 314 -111 q 444 -138 418 -111 q 464 -212 471 -165 q 422 -285 457 -258 q 333 -312 386 -312 z "},"È":{"ha":833,"x_min":61,"x_max":831,"o":"m 61 0 l 222 1014 l 831 1014 l 806 863 l 369 863 l 326 599 l 715 599 l 692 449 l 303 449 l 256 151 l 693 151 l 669 0 l 61 0 m 494 1125 l 364 1319 l 547 1319 l 665 1125 l 494 1125 z "},"Ẻ":{"ha":833,"x_min":61,"x_max":831,"o":"m 61 0 l 222 1014 l 831 1014 l 806 863 l 369 863 l 326 599 l 715 599 l 692 449 l 303 449 l 256 151 l 693 151 l 669 0 l 61 0 m 451 1108 l 533 1192 q 553 1215 546 1204 q 561 1233 560 1225 q 526 1258 565 1258 l 422 1258 l 439 1365 l 585 1365 q 676 1335 644 1365 q 700 1253 708 1304 q 687 1210 697 1231 q 660 1172 676 1189 l 599 1108 l 451 1108 z "},"Ē":{"ha":833,"x_min":61,"x_max":831,"o":"m 61 0 l 222 1014 l 831 1014 l 806 863 l 369 863 l 326 599 l 715 599 l 692 449 l 303 449 l 256 151 l 693 151 l 669 0 l 61 0 m 328 1150 l 347 1283 l 825 1283 l 804 1150 l 328 1150 z "},"Ę":{"ha":833,"x_min":61,"x_max":831,"o":"m 494 -300 q 372 -260 414 -300 q 342 -157 331 -219 q 391 -67 349 -111 q 508 15 433 -22 l 621 15 l 583 -14 q 522 -72 543 -44 q 496 -121 500 -99 q 508 -163 493 -146 q 556 -181 524 -181 l 647 -181 l 628 -300 l 494 -300 m 61 0 l 222 1014 l 831 1014 l 806 863 l 369 863 l 326 599 l 715 599 l 692 449 l 303 449 l 256 151 l 693 151 l 669 0 l 61 0 z "},"Ẽ":{"ha":833,"x_min":61,"x_max":831,"o":"m 61 0 l 222 1014 l 831 1014 l 806 863 l 369 863 l 326 599 l 715 599 l 692 449 l 303 449 l 256 151 l 693 151 l 669 0 l 61 0 m 658 1119 q 590 1133 615 1119 q 550 1164 565 1146 q 520 1195 535 1182 q 485 1208 506 1208 q 453 1197 467 1208 q 436 1163 439 1185 l 429 1126 l 324 1126 l 331 1172 q 388 1283 342 1240 q 496 1325 433 1325 q 564 1312 539 1325 q 604 1281 589 1299 q 634 1249 619 1263 q 669 1236 649 1236 q 701 1247 689 1236 q 718 1279 714 1257 l 724 1318 l 831 1318 l 824 1272 q 767 1162 813 1204 q 658 1119 722 1119 z "},"F":{"ha":833,"x_min":50,"x_max":842,"o":"m 50 0 l 211 1014 l 842 1014 l 815 853 l 357 853 l 314 582 l 736 582 l 711 421 l 292 421 l 224 0 l 50 0 z "},"G":{"ha":833,"x_min":69,"x_max":813,"o":"m 358 -14 q 194 23 261 -14 q 98 127 126 60 q 83 286 69 194 l 153 728 q 219 888 168 821 q 348 991 269 954 q 524 1028 426 1028 q 688 991 622 1028 q 783 887 753 954 q 797 728 813 819 l 624 728 q 603 838 636 800 q 500 875 571 875 q 384 838 429 875 q 328 729 339 800 l 257 286 q 279 176 246 215 q 383 138 313 138 q 498 176 453 138 q 554 286 543 215 l 571 389 l 397 389 l 421 539 l 768 539 l 728 286 q 663 128 714 196 q 535 23 613 60 q 358 -14 457 -14 z "},"Ǵ":{"ha":833,"x_min":69,"x_max":813,"o":"m 358 -14 q 194 23 261 -14 q 98 127 126 60 q 83 286 69 194 l 153 728 q 219 888 168 821 q 348 991 269 954 q 524 1028 426 1028 q 688 991 622 1028 q 783 887 753 954 q 797 728 813 819 l 624 728 q 603 838 636 800 q 500 875 571 875 q 384 838 429 875 q 328 729 339 800 l 257 286 q 279 176 246 215 q 383 138 313 138 q 498 176 453 138 q 554 286 543 215 l 571 389 l 397 389 l 421 539 l 768 539 l 728 286 q 663 128 714 196 q 535 23 613 60 q 358 -14 457 -14 m 424 1125 l 601 1319 l 796 1319 l 606 1125 l 424 1125 z "},"Ğ":{"ha":833,"x_min":69,"x_max":813,"o":"m 358 -14 q 194 23 261 -14 q 98 127 126 60 q 83 286 69 194 l 153 728 q 219 888 168 821 q 348 991 269 954 q 524 1028 426 1028 q 688 991 622 1028 q 783 887 753 954 q 797 728 813 819 l 624 728 q 603 838 636 800 q 500 875 571 875 q 384 838 429 875 q 328 729 339 800 l 257 286 q 279 176 246 215 q 383 138 313 138 q 498 176 453 138 q 554 286 543 215 l 571 389 l 397 389 l 421 539 l 768 539 l 728 286 q 663 128 714 196 q 535 23 613 60 q 358 -14 457 -14 m 532 1114 q 366 1171 424 1114 q 322 1319 308 1228 l 454 1319 q 472 1246 447 1274 q 546 1218 497 1218 q 628 1246 594 1218 q 669 1319 663 1274 l 807 1319 q 717 1171 793 1228 q 532 1114 640 1114 z "},"Ǧ":{"ha":833,"x_min":69,"x_max":835,"o":"m 358 -14 q 194 23 261 -14 q 98 127 126 60 q 83 286 69 194 l 153 728 q 219 888 168 821 q 348 991 269 954 q 524 1028 426 1028 q 688 991 622 1028 q 783 887 753 954 q 797 728 813 819 l 624 728 q 603 838 636 800 q 500 875 571 875 q 384 838 429 875 q 328 729 339 800 l 257 286 q 279 176 246 215 q 383 138 313 138 q 498 176 453 138 q 554 286 543 215 l 571 389 l 397 389 l 421 539 l 768 539 l 728 286 q 663 128 714 196 q 535 23 613 60 q 358 -14 457 -14 m 453 1125 l 293 1319 l 456 1319 l 546 1218 l 663 1319 l 835 1319 l 614 1125 l 453 1125 z "},"Ĝ":{"ha":833,"x_min":69,"x_max":813,"o":"m 358 -14 q 194 23 261 -14 q 98 127 126 60 q 83 286 69 194 l 153 728 q 219 888 168 821 q 348 991 269 954 q 524 1028 426 1028 q 688 991 622 1028 q 783 887 753 954 q 797 728 813 819 l 624 728 q 603 838 636 800 q 500 875 571 875 q 384 838 429 875 q 328 729 339 800 l 257 286 q 279 176 246 215 q 383 138 313 138 q 498 176 453 138 q 554 286 543 215 l 571 389 l 397 389 l 421 539 l 768 539 l 728 286 q 663 128 714 196 q 535 23 613 60 q 358 -14 457 -14 m 263 1125 l 483 1319 l 644 1319 l 804 1125 l 642 1125 l 551 1226 l 435 1125 l 263 1125 z "},"Ģ":{"ha":833,"x_min":69,"x_max":813,"o":"m 358 -14 q 194 23 261 -14 q 98 127 126 60 q 83 286 69 194 l 153 728 q 219 888 168 821 q 348 991 269 954 q 524 1028 426 1028 q 688 991 622 1028 q 783 887 753 954 q 797 728 813 819 l 624 728 q 603 838 636 800 q 500 875 571 875 q 384 838 429 875 q 328 729 339 800 l 257 286 q 279 176 246 215 q 383 138 313 138 q 498 176 453 138 q 554 286 543 215 l 571 389 l 397 389 l 421 539 l 768 539 l 728 286 q 663 128 714 196 q 535 23 613 60 q 358 -14 457 -14 m 142 -333 l 306 -132 l 490 -132 l 306 -333 l 142 -333 z "},"Ġ":{"ha":833,"x_min":69,"x_max":813,"o":"m 358 -14 q 194 23 261 -14 q 98 127 126 60 q 83 286 69 194 l 153 728 q 219 888 168 821 q 348 991 269 954 q 524 1028 426 1028 q 688 991 622 1028 q 783 887 753 954 q 797 728 813 819 l 624 728 q 603 838 636 800 q 500 875 571 875 q 384 838 429 875 q 328 729 339 800 l 257 286 q 279 176 246 215 q 383 138 313 138 q 498 176 453 138 q 554 286 543 215 l 571 389 l 397 389 l 421 539 l 768 539 l 728 286 q 663 128 714 196 q 535 23 613 60 q 358 -14 457 -14 m 533 1122 q 454 1149 481 1122 q 435 1222 428 1176 q 477 1295 442 1268 q 565 1322 513 1322 q 644 1295 618 1322 q 663 1222 671 1268 q 622 1149 657 1176 q 533 1122 586 1122 z "},"H":{"ha":833,"x_min":46,"x_max":826,"o":"m 46 0 l 207 1014 l 381 1014 l 315 607 l 588 607 l 653 1014 l 826 1014 l 665 0 l 492 0 l 561 446 l 290 446 l 219 0 l 46 0 z "},"Ħ":{"ha":833,"x_min":46,"x_max":893,"o":"m 69 729 l 89 850 l 893 850 l 875 729 l 69 729 m 46 0 l 207 1014 l 381 1014 l 315 607 l 588 607 l 653 1014 l 826 1014 l 665 0 l 492 0 l 561 446 l 290 446 l 219 0 l 46 0 z "},"Ĥ":{"ha":833,"x_min":46,"x_max":826,"o":"m 46 0 l 207 1014 l 381 1014 l 315 607 l 588 607 l 653 1014 l 826 1014 l 665 0 l 492 0 l 561 446 l 290 446 l 219 0 l 46 0 m 263 1125 l 483 1319 l 644 1319 l 804 1125 l 642 1125 l 551 1226 l 435 1125 l 263 1125 z "},"I":{"ha":833,"x_min":64,"x_max":808,"o":"m 64 0 l 89 153 l 293 153 l 404 861 l 201 861 l 225 1014 l 808 1014 l 783 861 l 579 861 l 468 153 l 671 153 l 647 0 l 64 0 z "},"Í":{"ha":833,"x_min":64,"x_max":808,"o":"m 64 0 l 89 153 l 293 153 l 404 861 l 201 861 l 225 1014 l 808 1014 l 783 861 l 579 861 l 468 153 l 671 153 l 647 0 l 64 0 m 424 1125 l 601 1319 l 796 1319 l 606 1125 l 424 1125 z "},"Ĭ":{"ha":833,"x_min":64,"x_max":808,"o":"m 64 0 l 89 153 l 293 153 l 404 861 l 201 861 l 225 1014 l 808 1014 l 783 861 l 579 861 l 468 153 l 671 153 l 647 0 l 64 0 m 532 1114 q 366 1171 424 1114 q 322 1319 308 1228 l 454 1319 q 472 1246 447 1274 q 546 1218 497 1218 q 628 1246 594 1218 q 669 1319 663 1274 l 807 1319 q 717 1171 793 1228 q 532 1114 640 1114 z "},"Î":{"ha":833,"x_min":64,"x_max":808,"o":"m 64 0 l 89 153 l 293 153 l 404 861 l 201 861 l 225 1014 l 808 1014 l 783 861 l 579 861 l 468 153 l 671 153 l 647 0 l 64 0 m 263 1125 l 483 1319 l 644 1319 l 804 1125 l 642 1125 l 551 1226 l 435 1125 l 263 1125 z "},"Ï":{"ha":833,"x_min":64,"x_max":821,"o":"m 64 0 l 89 153 l 293 153 l 404 861 l 201 861 l 225 1014 l 808 1014 l 783 861 l 579 861 l 468 153 l 671 153 l 647 0 l 64 0 m 696 1122 q 626 1149 650 1122 q 610 1222 603 1176 q 650 1297 618 1269 q 729 1324 682 1324 q 798 1297 775 1324 q 814 1222 821 1269 q 775 1149 807 1176 q 696 1122 743 1122 m 369 1122 q 301 1149 324 1122 q 283 1222 278 1176 q 324 1297 292 1269 q 403 1324 356 1324 q 472 1297 449 1324 q 488 1222 496 1269 q 449 1149 481 1176 q 369 1122 417 1122 z "},"İ":{"ha":833,"x_min":64,"x_max":808,"o":"m 64 0 l 89 153 l 293 153 l 404 861 l 201 861 l 225 1014 l 808 1014 l 783 861 l 579 861 l 468 153 l 671 153 l 647 0 l 64 0 m 533 1122 q 454 1149 481 1122 q 435 1222 428 1176 q 477 1295 442 1268 q 565 1322 513 1322 q 644 1295 618 1322 q 663 1222 671 1268 q 622 1149 657 1176 q 533 1122 586 1122 z "},"Ị":{"ha":833,"x_min":64,"x_max":808,"o":"m 64 0 l 89 153 l 293 153 l 404 861 l 201 861 l 225 1014 l 808 1014 l 783 861 l 579 861 l 468 153 l 671 153 l 647 0 l 64 0 m 314 -312 q 236 -285 263 -312 q 215 -212 210 -258 q 259 -138 224 -165 q 347 -111 294 -111 q 425 -138 399 -111 q 444 -212 451 -165 q 402 -285 438 -258 q 314 -312 367 -312 z "},"Ì":{"ha":833,"x_min":64,"x_max":808,"o":"m 64 0 l 89 153 l 293 153 l 404 861 l 201 861 l 225 1014 l 808 1014 l 783 861 l 579 861 l 468 153 l 671 153 l 647 0 l 64 0 m 467 1125 l 336 1319 l 519 1319 l 638 1125 l 467 1125 z "},"Ỉ":{"ha":833,"x_min":64,"x_max":808,"o":"m 64 0 l 89 153 l 293 153 l 404 861 l 201 861 l 225 1014 l 808 1014 l 783 861 l 579 861 l 468 153 l 671 153 l 647 0 l 64 0 m 474 1108 l 556 1192 q 575 1215 568 1204 q 583 1233 582 1225 q 549 1258 588 1258 l 444 1258 l 461 1365 l 607 1365 q 699 1335 667 1365 q 722 1253 731 1304 q 709 1210 719 1231 q 682 1172 699 1189 l 621 1108 l 474 1108 z "},"Ī":{"ha":833,"x_min":64,"x_max":808,"o":"m 64 0 l 89 153 l 293 153 l 404 861 l 201 861 l 225 1014 l 808 1014 l 783 861 l 579 861 l 468 153 l 671 153 l 647 0 l 64 0 m 300 1150 l 319 1283 l 797 1283 l 776 1150 l 300 1150 z "},"Į":{"ha":833,"x_min":64,"x_max":808,"o":"m 308 -300 q 186 -260 228 -300 q 156 -157 144 -219 q 205 -67 163 -111 q 322 15 247 -22 l 435 15 l 397 -14 q 335 -72 357 -44 q 310 -121 314 -99 q 322 -163 307 -146 q 369 -181 338 -181 l 460 -181 l 442 -300 l 308 -300 m 64 0 l 89 153 l 293 153 l 404 861 l 201 861 l 225 1014 l 808 1014 l 783 861 l 579 861 l 468 153 l 671 153 l 647 0 l 64 0 z "},"Ĩ":{"ha":833,"x_min":64,"x_max":808,"o":"m 64 0 l 89 153 l 293 153 l 404 861 l 201 861 l 225 1014 l 808 1014 l 783 861 l 579 861 l 468 153 l 671 153 l 647 0 l 64 0 m 631 1119 q 563 1133 588 1119 q 522 1164 538 1146 q 492 1195 507 1182 q 457 1208 478 1208 q 425 1197 439 1208 q 408 1163 411 1185 l 401 1126 l 296 1126 l 303 1172 q 360 1283 314 1240 q 468 1325 406 1325 q 536 1312 511 1325 q 576 1281 561 1299 q 606 1249 592 1263 q 642 1236 621 1236 q 674 1247 661 1236 q 690 1279 686 1257 l 696 1318 l 803 1318 l 796 1272 q 740 1162 785 1204 q 631 1119 694 1119 z "},"J":{"ha":833,"x_min":6,"x_max":808,"o":"m 311 -15 q 81 70 157 -15 q 29 300 6 156 l 203 300 q 226 181 190 224 q 336 138 261 138 q 459 180 410 138 q 521 299 508 222 l 608 853 l 374 853 l 399 1014 l 808 1014 l 694 299 q 627 132 679 203 q 494 23 575 61 q 311 -15 414 -15 z "},"Ĵ":{"ha":833,"x_min":6,"x_max":888,"o":"m 311 -15 q 81 70 157 -15 q 29 300 6 156 l 203 300 q 226 181 190 224 q 336 138 261 138 q 459 180 410 138 q 521 299 508 222 l 608 853 l 374 853 l 399 1014 l 808 1014 l 694 299 q 627 132 679 203 q 494 23 575 61 q 311 -15 414 -15 m 346 1125 l 567 1319 l 728 1319 l 888 1125 l 725 1125 l 635 1226 l 518 1125 l 346 1125 z "},"K":{"ha":833,"x_min":44,"x_max":879,"o":"m 44 0 l 206 1014 l 379 1014 l 314 604 l 431 604 l 689 1014 l 879 1014 l 571 519 l 729 0 l 542 0 l 414 446 l 289 446 l 218 0 l 44 0 z "},"Ķ":{"ha":833,"x_min":44,"x_max":879,"o":"m 44 0 l 206 1014 l 379 1014 l 314 604 l 431 604 l 689 1014 l 879 1014 l 571 519 l 729 0 l 542 0 l 414 446 l 289 446 l 218 0 l 44 0 m 136 -333 l 300 -132 l 485 -132 l 300 -333 l 136 -333 z "},"L":{"ha":833,"x_min":82,"x_max":711,"o":"m 82 0 l 243 1014 l 417 1014 l 282 161 l 711 161 l 686 0 l 82 0 z "},"Ĺ":{"ha":833,"x_min":82,"x_max":711,"o":"m 82 0 l 243 1014 l 417 1014 l 282 161 l 711 161 l 686 0 l 82 0 m 238 1125 l 415 1319 l 610 1319 l 419 1125 l 238 1125 z "},"Ľ":{"ha":833,"x_min":82,"x_max":763,"o":"m 82 0 l 243 1014 l 417 1014 l 282 161 l 711 161 l 686 0 l 82 0 m 544 764 l 599 1014 l 761 1014 l 693 764 l 544 764 z "},"Ļ":{"ha":833,"x_min":82,"x_max":711,"o":"m 82 0 l 243 1014 l 417 1014 l 282 161 l 711 161 l 686 0 l 82 0 m 164 -333 l 328 -132 l 513 -132 l 328 -333 l 164 -333 z "},"Ŀ":{"ha":833,"x_min":82,"x_max":733,"o":"m 82 0 l 243 1014 l 417 1014 l 282 161 l 711 161 l 686 0 l 82 0 z "},"Ł":{"ha":833,"x_min":17,"x_max":719,"o":"m 17 313 l 43 479 l 613 785 l 588 618 l 17 313 m 90 0 l 251 1014 l 425 1014 l 290 161 l 719 161 l 694 0 l 90 0 z "},"M":{"ha":833,"x_min":17,"x_max":856,"o":"m 17 0 l 178 1014 l 379 1014 l 426 692 q 437 603 433 643 q 440 544 440 563 q 463 603 447 563 q 500 692 478 643 l 646 1014 l 856 1014 l 694 0 l 532 0 l 582 315 q 611 469 594 388 q 647 632 628 550 q 683 787 665 714 q 717 915 701 860 l 506 436 l 347 436 l 282 915 q 276 791 281 863 q 266 638 272 719 q 251 474 260 557 q 229 315 242 390 l 179 0 l 17 0 z "},"N":{"ha":833,"x_min":39,"x_max":833,"o":"m 39 0 l 200 1014 l 410 1014 l 564 194 q 573 299 568 239 q 585 423 578 360 q 599 533 592 486 l 675 1014 l 833 1014 l 672 0 l 463 0 l 310 819 q 302 722 307 779 q 291 606 297 665 q 276 496 285 546 l 197 0 l 39 0 z "},"Ń":{"ha":833,"x_min":39,"x_max":833,"o":"m 39 0 l 200 1014 l 410 1014 l 564 194 q 573 299 568 239 q 585 423 578 360 q 599 533 592 486 l 675 1014 l 833 1014 l 672 0 l 463 0 l 310 819 q 302 722 307 779 q 291 606 297 665 q 276 496 285 546 l 197 0 l 39 0 m 424 1125 l 601 1319 l 796 1319 l 606 1125 l 424 1125 z "},"Ň":{"ha":833,"x_min":39,"x_max":835,"o":"m 39 0 l 200 1014 l 410 1014 l 564 194 q 573 299 568 239 q 585 423 578 360 q 599 533 592 486 l 675 1014 l 833 1014 l 672 0 l 463 0 l 310 819 q 302 722 307 779 q 291 606 297 665 q 276 496 285 546 l 197 0 l 39 0 m 453 1125 l 293 1319 l 456 1319 l 546 1218 l 663 1319 l 835 1319 l 614 1125 l 453 1125 z "},"Ņ":{"ha":833,"x_min":39,"x_max":833,"o":"m 39 0 l 200 1014 l 410 1014 l 564 194 q 573 299 568 239 q 585 423 578 360 q 599 533 592 486 l 675 1014 l 833 1014 l 672 0 l 463 0 l 310 819 q 302 722 307 779 q 291 606 297 665 q 276 496 285 546 l 197 0 l 39 0 m 138 -333 l 301 -132 l 485 -132 l 299 -333 l 138 -333 z "},"Ŋ":{"ha":833,"x_min":39,"x_max":833,"o":"m 240 -250 l 267 -85 l 353 -85 q 455 -51 414 -85 q 504 42 496 -17 l 310 819 q 302 722 307 779 q 291 606 297 665 q 276 496 285 546 l 197 0 l 39 0 l 200 1014 l 407 1014 l 583 313 q 592 418 588 357 q 604 544 597 479 q 618 656 611 608 l 675 1014 l 833 1014 l 676 29 q 614 -117 664 -54 q 488 -215 564 -181 q 318 -250 411 -250 l 240 -250 z "},"Ñ":{"ha":833,"x_min":39,"x_max":833,"o":"m 39 0 l 200 1014 l 410 1014 l 564 194 q 573 299 568 239 q 585 423 578 360 q 599 533 592 486 l 675 1014 l 833 1014 l 672 0 l 463 0 l 310 819 q 302 722 307 779 q 291 606 297 665 q 276 496 285 546 l 197 0 l 39 0 m 631 1119 q 563 1133 588 1119 q 522 1164 538 1146 q 492 1195 507 1182 q 457 1208 478 1208 q 425 1197 439 1208 q 408 1163 411 1185 l 401 1126 l 296 1126 l 303 1172 q 360 1283 314 1240 q 468 1325 406 1325 q 536 1312 511 1325 q 576 1281 561 1299 q 606 1249 592 1263 q 642 1236 621 1236 q 674 1247 661 1236 q 690 1279 686 1257 l 696 1318 l 803 1318 l 796 1272 q 740 1162 785 1204 q 631 1119 694 1119 z "},"O":{"ha":833,"x_min":69,"x_max":803,"o":"m 353 -14 q 190 23 256 -14 q 97 127 125 60 q 83 286 69 194 l 153 728 q 217 887 168 819 q 344 991 267 954 q 518 1028 421 1028 q 682 991 617 1028 q 775 887 747 954 q 788 729 803 819 l 718 286 q 654 127 704 194 q 528 23 604 60 q 353 -14 451 -14 m 378 139 q 490 177 447 139 q 544 286 533 215 l 614 728 q 596 838 626 800 q 494 875 565 875 q 381 838 424 875 q 328 728 339 800 l 257 286 q 276 177 246 215 q 378 139 307 139 z "},"Ó":{"ha":833,"x_min":69,"x_max":803,"o":"m 353 -14 q 190 23 256 -14 q 97 127 125 60 q 83 286 69 194 l 153 728 q 217 887 168 819 q 344 991 267 954 q 518 1028 421 1028 q 682 991 617 1028 q 775 887 747 954 q 788 729 803 819 l 718 286 q 654 127 704 194 q 528 23 604 60 q 353 -14 451 -14 m 378 139 q 490 177 447 139 q 544 286 533 215 l 614 728 q 596 838 626 800 q 494 875 565 875 q 381 838 424 875 q 328 728 339 800 l 257 286 q 276 177 246 215 q 378 139 307 139 m 424 1125 l 601 1319 l 796 1319 l 606 1125 l 424 1125 z "},"Ŏ":{"ha":833,"x_min":69,"x_max":807,"o":"m 353 -14 q 190 23 256 -14 q 97 127 125 60 q 83 286 69 194 l 153 728 q 217 887 168 819 q 344 991 267 954 q 518 1028 421 1028 q 682 991 617 1028 q 775 887 747 954 q 788 729 803 819 l 718 286 q 654 127 704 194 q 528 23 604 60 q 353 -14 451 -14 m 378 139 q 490 177 447 139 q 544 286 533 215 l 614 728 q 596 838 626 800 q 494 875 565 875 q 381 838 424 875 q 328 728 339 800 l 257 286 q 276 177 246 215 q 378 139 307 139 m 532 1114 q 366 1171 424 1114 q 322 1319 308 1228 l 454 1319 q 472 1246 447 1274 q 546 1218 497 1218 q 628 1246 594 1218 q 669 1319 663 1274 l 807 1319 q 717 1171 793 1228 q 532 1114 640 1114 z "},"Ô":{"ha":833,"x_min":69,"x_max":804,"o":"m 353 -14 q 190 23 256 -14 q 97 127 125 60 q 83 286 69 194 l 153 728 q 217 887 168 819 q 344 991 267 954 q 518 1028 421 1028 q 682 991 617 1028 q 775 887 747 954 q 788 729 803 819 l 718 286 q 654 127 704 194 q 528 23 604 60 q 353 -14 451 -14 m 378 139 q 490 177 447 139 q 544 286 533 215 l 614 728 q 596 838 626 800 q 494 875 565 875 q 381 838 424 875 q 328 728 339 800 l 257 286 q 276 177 246 215 q 378 139 307 139 m 263 1125 l 483 1319 l 644 1319 l 804 1125 l 642 1125 l 551 1226 l 435 1125 l 263 1125 z "},"Ố":{"ha":833,"x_min":69,"x_max":1067,"o":"m 353 -14 q 190 23 256 -14 q 97 127 125 60 q 83 286 69 194 l 153 728 q 217 887 168 819 q 344 991 267 954 q 518 1028 421 1028 q 682 991 617 1028 q 775 887 747 954 q 788 729 803 819 l 718 286 q 654 127 704 194 q 528 23 604 60 q 353 -14 451 -14 m 378 139 q 490 177 447 139 q 544 286 533 215 l 614 728 q 596 838 626 800 q 494 875 565 875 q 381 838 424 875 q 328 728 339 800 l 257 286 q 276 177 246 215 q 378 139 307 139 m 710 1254 l 882 1417 l 1067 1417 l 883 1254 l 710 1254 m 257 1083 l 478 1278 l 639 1278 l 799 1083 l 636 1083 l 550 1185 l 431 1083 l 257 1083 z "},"Ộ":{"ha":833,"x_min":69,"x_max":804,"o":"m 263 1125 l 483 1319 l 644 1319 l 804 1125 l 642 1125 l 551 1226 l 435 1125 l 263 1125 m 353 -14 q 190 23 256 -14 q 97 127 125 60 q 83 286 69 194 l 153 728 q 217 887 168 819 q 344 991 267 954 q 518 1028 421 1028 q 682 991 617 1028 q 775 887 747 954 q 788 729 803 819 l 718 286 q 654 127 704 194 q 528 23 604 60 q 353 -14 451 -14 m 378 139 q 490 177 447 139 q 544 286 533 215 l 614 728 q 596 838 626 800 q 494 875 565 875 q 381 838 424 875 q 328 728 339 800 l 257 286 q 276 177 246 215 q 378 139 307 139 m 306 -312 q 228 -285 254 -312 q 207 -212 201 -258 q 251 -138 215 -165 q 339 -111 286 -111 q 417 -138 390 -111 q 436 -212 443 -165 q 394 -285 429 -258 q 306 -312 358 -312 z "},"Ồ":{"ha":833,"x_min":69,"x_max":924,"o":"m 353 -14 q 190 23 256 -14 q 97 127 125 60 q 83 286 69 194 l 153 728 q 217 887 168 819 q 344 991 267 954 q 518 1028 421 1028 q 682 991 617 1028 q 775 887 747 954 q 788 729 803 819 l 718 286 q 654 127 704 194 q 528 23 604 60 q 353 -14 451 -14 m 378 139 q 490 177 447 139 q 544 286 533 215 l 614 728 q 596 838 626 800 q 494 875 565 875 q 381 838 424 875 q 328 728 339 800 l 257 286 q 276 177 246 215 q 378 139 307 139 m 767 1254 l 631 1417 l 799 1417 l 924 1254 l 767 1254 m 257 1083 l 478 1278 l 639 1278 l 799 1083 l 636 1083 l 550 1185 l 431 1083 l 257 1083 z "},"Ổ":{"ha":833,"x_min":69,"x_max":953,"o":"m 353 -14 q 190 23 256 -14 q 97 127 125 60 q 83 286 69 194 l 153 728 q 217 887 168 819 q 344 991 267 954 q 518 1028 421 1028 q 682 991 617 1028 q 775 887 747 954 q 788 729 803 819 l 718 286 q 654 127 704 194 q 528 23 604 60 q 353 -14 451 -14 m 378 139 q 490 177 447 139 q 544 286 533 215 l 614 728 q 596 838 626 800 q 494 875 565 875 q 381 838 424 875 q 328 728 339 800 l 257 286 q 276 177 246 215 q 378 139 307 139 m 725 1214 l 789 1269 q 804 1285 800 1278 q 810 1299 808 1292 q 783 1321 813 1321 l 693 1321 l 708 1417 l 835 1417 q 922 1390 892 1417 q 944 1314 953 1363 q 931 1278 942 1296 q 904 1247 919 1260 l 864 1214 l 725 1214 m 257 1083 l 478 1278 l 639 1278 l 799 1083 l 636 1083 l 550 1185 l 431 1083 l 257 1083 z "},"Ỗ":{"ha":833,"x_min":69,"x_max":819,"o":"m 353 -14 q 190 23 256 -14 q 97 127 125 60 q 83 286 69 194 l 153 728 q 217 887 168 819 q 344 991 267 954 q 518 1028 421 1028 q 682 991 617 1028 q 775 887 747 954 q 788 729 803 819 l 718 286 q 654 127 704 194 q 528 23 604 60 q 353 -14 451 -14 m 378 139 q 490 177 447 139 q 544 286 533 215 l 614 728 q 596 838 626 800 q 494 875 565 875 q 381 838 424 875 q 328 728 339 800 l 257 286 q 276 177 246 215 q 378 139 307 139 m 667 1269 q 601 1278 628 1269 q 554 1297 575 1286 q 513 1317 533 1308 q 468 1325 493 1325 q 425 1288 432 1325 l 424 1279 l 317 1279 l 318 1288 q 369 1381 328 1346 q 472 1417 411 1417 q 538 1408 511 1417 q 584 1389 564 1400 q 624 1369 604 1378 q 668 1361 643 1361 q 697 1372 685 1361 q 713 1399 710 1382 l 714 1407 l 819 1407 l 818 1399 q 768 1304 808 1339 q 667 1269 728 1269 m 257 1083 l 425 1231 l 676 1231 l 799 1083 l 631 1083 l 544 1186 l 426 1083 l 257 1083 z "},"Ö":{"ha":833,"x_min":69,"x_max":821,"o":"m 353 -14 q 190 23 256 -14 q 97 127 125 60 q 83 286 69 194 l 153 728 q 217 887 168 819 q 344 991 267 954 q 518 1028 421 1028 q 682 991 617 1028 q 775 887 747 954 q 788 729 803 819 l 718 286 q 654 127 704 194 q 528 23 604 60 q 353 -14 451 -14 m 378 139 q 490 177 447 139 q 544 286 533 215 l 614 728 q 596 838 626 800 q 494 875 565 875 q 381 838 424 875 q 328 728 339 800 l 257 286 q 276 177 246 215 q 378 139 307 139 m 696 1122 q 626 1149 650 1122 q 610 1222 603 1176 q 650 1297 618 1269 q 729 1324 682 1324 q 798 1297 775 1324 q 814 1222 821 1269 q 775 1149 807 1176 q 696 1122 743 1122 m 369 1122 q 301 1149 324 1122 q 283 1222 278 1176 q 324 1297 292 1269 q 403 1324 356 1324 q 472 1297 449 1324 q 488 1222 496 1269 q 449 1149 481 1176 q 369 1122 417 1122 z "},"Ọ":{"ha":833,"x_min":69,"x_max":803,"o":"m 353 -14 q 190 23 256 -14 q 97 127 125 60 q 83 286 69 194 l 153 728 q 217 887 168 819 q 344 991 267 954 q 518 1028 421 1028 q 682 991 617 1028 q 775 887 747 954 q 788 729 803 819 l 718 286 q 654 127 704 194 q 528 23 604 60 q 353 -14 451 -14 m 378 139 q 490 177 447 139 q 544 286 533 215 l 614 728 q 596 838 626 800 q 494 875 565 875 q 381 838 424 875 q 328 728 339 800 l 257 286 q 276 177 246 215 q 378 139 307 139 m 319 -312 q 242 -285 268 -312 q 221 -212 215 -258 q 265 -138 229 -165 q 353 -111 300 -111 q 431 -138 404 -111 q 450 -212 457 -165 q 408 -285 443 -258 q 319 -312 372 -312 z "},"Ò":{"ha":833,"x_min":69,"x_max":803,"o":"m 353 -14 q 190 23 256 -14 q 97 127 125 60 q 83 286 69 194 l 153 728 q 217 887 168 819 q 344 991 267 954 q 518 1028 421 1028 q 682 991 617 1028 q 775 887 747 954 q 788 729 803 819 l 718 286 q 654 127 704 194 q 528 23 604 60 q 353 -14 451 -14 m 378 139 q 490 177 447 139 q 544 286 533 215 l 614 728 q 596 838 626 800 q 494 875 565 875 q 381 838 424 875 q 328 728 339 800 l 257 286 q 276 177 246 215 q 378 139 307 139 m 467 1125 l 336 1319 l 519 1319 l 638 1125 l 467 1125 z "},"Ỏ":{"ha":833,"x_min":69,"x_max":803,"o":"m 353 -14 q 190 23 256 -14 q 97 127 125 60 q 83 286 69 194 l 153 728 q 217 887 168 819 q 344 991 267 954 q 518 1028 421 1028 q 682 991 617 1028 q 775 887 747 954 q 788 729 803 819 l 718 286 q 654 127 704 194 q 528 23 604 60 q 353 -14 451 -14 m 378 139 q 490 177 447 139 q 544 286 533 215 l 614 728 q 596 838 626 800 q 494 875 565 875 q 381 838 424 875 q 328 728 339 800 l 257 286 q 276 177 246 215 q 378 139 307 139 m 474 1108 l 556 1192 q 575 1215 568 1204 q 583 1233 582 1225 q 549 1258 588 1258 l 444 1258 l 461 1365 l 607 1365 q 699 1335 667 1365 q 722 1253 731 1304 q 709 1210 719 1231 q 682 1172 699 1189 l 621 1108 l 474 1108 z "},"Ơ":{"ha":833,"x_min":69,"x_max":899,"o":"m 614 854 l 633 972 l 685 972 q 723 985 708 972 q 740 1021 738 999 l 757 1125 l 899 1125 l 882 1018 q 815 899 871 943 q 678 854 758 854 l 614 854 m 353 -14 q 190 23 256 -14 q 97 127 125 60 q 83 286 69 194 l 153 728 q 217 887 168 819 q 344 991 267 954 q 518 1028 421 1028 q 682 991 617 1028 q 775 887 747 954 q 788 729 803 819 l 718 286 q 654 127 704 194 q 528 23 604 60 q 353 -14 451 -14 m 378 139 q 490 177 447 139 q 544 286 533 215 l 614 728 q 596 838 626 800 q 494 875 565 875 q 381 838 424 875 q 328 728 339 800 l 257 286 q 276 177 246 215 q 378 139 307 139 z "},"Ớ":{"ha":833,"x_min":69,"x_max":899,"o":"m 614 854 l 633 972 l 685 972 q 723 985 708 972 q 740 1021 738 999 l 757 1125 l 899 1125 l 882 1018 q 815 899 871 943 q 678 854 758 854 l 614 854 m 353 -14 q 190 23 256 -14 q 97 127 125 60 q 83 286 69 194 l 153 728 q 217 887 168 819 q 344 991 267 954 q 518 1028 421 1028 q 682 991 617 1028 q 775 887 747 954 q 788 729 803 819 l 718 286 q 654 127 704 194 q 528 23 604 60 q 353 -14 451 -14 m 378 139 q 490 177 447 139 q 544 286 533 215 l 614 728 q 596 838 626 800 q 494 875 565 875 q 381 838 424 875 q 328 728 339 800 l 257 286 q 276 177 246 215 q 378 139 307 139 m 410 1125 l 588 1319 l 782 1319 l 592 1125 l 410 1125 z "},"Ợ":{"ha":833,"x_min":69,"x_max":899,"o":"m 614 854 l 633 972 l 685 972 q 723 985 708 972 q 740 1021 738 999 l 757 1125 l 899 1125 l 882 1018 q 815 899 871 943 q 678 854 758 854 l 614 854 m 353 -14 q 190 23 256 -14 q 97 127 125 60 q 83 286 69 194 l 153 728 q 217 887 168 819 q 344 991 267 954 q 518 1028 421 1028 q 682 991 617 1028 q 775 887 747 954 q 788 729 803 819 l 718 286 q 654 127 704 194 q 528 23 604 60 q 353 -14 451 -14 m 378 139 q 490 177 447 139 q 544 286 533 215 l 614 728 q 596 838 626 800 q 494 875 565 875 q 381 838 424 875 q 328 728 339 800 l 257 286 q 276 177 246 215 q 378 139 307 139 m 319 -312 q 242 -285 268 -312 q 221 -212 215 -258 q 265 -138 229 -165 q 353 -111 300 -111 q 431 -138 404 -111 q 450 -212 457 -165 q 408 -285 443 -258 q 319 -312 372 -312 z "},"Ờ":{"ha":833,"x_min":69,"x_max":899,"o":"m 614 854 l 633 972 l 685 972 q 723 985 708 972 q 740 1021 738 999 l 757 1125 l 899 1125 l 882 1018 q 815 899 871 943 q 678 854 758 854 l 614 854 m 353 -14 q 190 23 256 -14 q 97 127 125 60 q 83 286 69 194 l 153 728 q 217 887 168 819 q 344 991 267 954 q 518 1028 421 1028 q 682 991 617 1028 q 775 887 747 954 q 788 729 803 819 l 718 286 q 654 127 704 194 q 528 23 604 60 q 353 -14 451 -14 m 378 139 q 490 177 447 139 q 544 286 533 215 l 614 728 q 596 838 626 800 q 494 875 565 875 q 381 838 424 875 q 328 728 339 800 l 257 286 q 276 177 246 215 q 378 139 307 139 m 453 1125 l 322 1319 l 506 1319 l 624 1125 l 453 1125 z "},"Ở":{"ha":833,"x_min":69,"x_max":899,"o":"m 614 854 l 633 972 l 685 972 q 723 985 708 972 q 740 1021 738 999 l 757 1125 l 899 1125 l 882 1018 q 815 899 871 943 q 678 854 758 854 l 614 854 m 353 -14 q 190 23 256 -14 q 97 127 125 60 q 83 286 69 194 l 153 728 q 217 887 168 819 q 344 991 267 954 q 518 1028 421 1028 q 682 991 617 1028 q 775 887 747 954 q 788 729 803 819 l 718 286 q 654 127 704 194 q 528 23 604 60 q 353 -14 451 -14 m 378 139 q 490 177 447 139 q 544 286 533 215 l 614 728 q 596 838 626 800 q 494 875 565 875 q 381 838 424 875 q 328 728 339 800 l 257 286 q 276 177 246 215 q 378 139 307 139 m 451 1108 l 533 1192 q 553 1215 546 1204 q 561 1233 560 1225 q 526 1258 565 1258 l 422 1258 l 439 1365 l 585 1365 q 676 1335 644 1365 q 700 1253 708 1304 q 687 1210 697 1231 q 660 1172 676 1189 l 599 1108 l 451 1108 z "},"Ỡ":{"ha":833,"x_min":69,"x_max":899,"o":"m 614 854 l 633 972 l 685 972 q 723 985 708 972 q 740 1021 738 999 l 757 1125 l 899 1125 l 882 1018 q 815 899 871 943 q 678 854 758 854 l 614 854 m 353 -14 q 190 23 256 -14 q 97 127 125 60 q 83 286 69 194 l 153 728 q 217 887 168 819 q 344 991 267 954 q 518 1028 421 1028 q 682 991 617 1028 q 775 887 747 954 q 788 729 803 819 l 718 286 q 654 127 704 194 q 528 23 604 60 q 353 -14 451 -14 m 378 139 q 490 177 447 139 q 544 286 533 215 l 614 728 q 596 838 626 800 q 494 875 565 875 q 381 838 424 875 q 328 728 339 800 l 257 286 q 276 177 246 215 q 378 139 307 139 m 617 1119 q 549 1133 574 1119 q 508 1164 524 1146 q 478 1195 493 1182 q 443 1208 464 1208 q 411 1197 425 1208 q 394 1163 397 1185 l 388 1126 l 282 1126 l 289 1172 q 346 1283 300 1240 q 454 1325 392 1325 q 522 1312 497 1325 q 563 1281 547 1299 q 592 1249 578 1263 q 628 1236 607 1236 q 660 1247 647 1236 q 676 1279 672 1257 l 682 1318 l 789 1318 l 782 1272 q 726 1162 771 1204 q 617 1119 681 1119 z "},"Ő":{"ha":833,"x_min":69,"x_max":919,"o":"m 353 -14 q 190 23 256 -14 q 97 127 125 60 q 83 286 69 194 l 153 728 q 217 887 168 819 q 344 991 267 954 q 518 1028 421 1028 q 682 991 617 1028 q 775 887 747 954 q 788 729 803 819 l 718 286 q 654 127 704 194 q 528 23 604 60 q 353 -14 451 -14 m 378 139 q 490 177 447 139 q 544 286 533 215 l 614 728 q 596 838 626 800 q 494 875 565 875 q 381 838 424 875 q 328 728 339 800 l 257 286 q 276 177 246 215 q 378 139 307 139 m 567 1125 l 746 1319 l 919 1319 l 729 1125 l 567 1125 m 282 1125 l 463 1319 l 635 1319 l 444 1125 l 282 1125 z "},"Ō":{"ha":833,"x_min":69,"x_max":803,"o":"m 353 -14 q 190 23 256 -14 q 97 127 125 60 q 83 286 69 194 l 153 728 q 217 887 168 819 q 344 991 267 954 q 518 1028 421 1028 q 682 991 617 1028 q 775 887 747 954 q 788 729 803 819 l 718 286 q 654 127 704 194 q 528 23 604 60 q 353 -14 451 -14 m 378 139 q 490 177 447 139 q 544 286 533 215 l 614 728 q 596 838 626 800 q 494 875 565 875 q 381 838 424 875 q 328 728 339 800 l 257 286 q 276 177 246 215 q 378 139 307 139 m 300 1150 l 319 1283 l 797 1283 l 776 1150 l 300 1150 z "},"Ǫ":{"ha":833,"x_min":71,"x_max":804,"o":"m 399 -300 q 276 -260 317 -300 q 244 -157 235 -219 q 271 -99 249 -129 q 328 -40 293 -69 q 404 11 364 -11 q 388 -4 401 6 q 354 -14 375 -14 q 192 23 257 -14 q 99 127 126 60 q 85 286 71 194 l 154 728 q 219 887 169 819 q 345 991 268 954 q 519 1028 422 1028 q 682 991 617 1028 q 776 887 747 954 q 789 729 804 819 l 719 286 q 660 135 706 201 q 544 32 614 69 l 482 -14 q 424 -70 443 -43 q 400 -121 404 -97 q 411 -163 396 -146 q 460 -181 426 -181 l 550 -181 l 531 -300 l 399 -300 m 378 139 q 491 177 449 139 q 544 286 533 215 l 615 728 q 597 838 628 800 q 494 875 567 875 q 383 838 425 875 q 328 728 340 800 l 258 286 q 278 177 247 215 q 378 139 308 139 z "},"Ø":{"ha":833,"x_min":-37,"x_max":906,"o":"m -37 -56 l 760 1042 l 906 1042 l 108 -56 l -37 -56 m 353 -14 q 190 23 256 -14 q 97 127 125 60 q 83 286 69 194 l 153 728 q 217 887 168 819 q 344 991 267 954 q 518 1028 421 1028 q 681 991 617 1028 q 774 887 746 954 q 788 729 803 819 l 718 286 q 654 127 704 194 q 528 23 604 60 q 353 -14 451 -14 m 378 139 q 493 177 449 139 q 549 286 538 215 l 618 728 q 598 838 631 800 q 494 875 565 875 q 379 838 424 875 q 324 728 335 800 l 253 286 q 274 177 242 215 q 378 139 307 139 z "},"Ǿ":{"ha":833,"x_min":-37,"x_max":906,"o":"m -37 -56 l 760 1042 l 906 1042 l 108 -56 l -37 -56 m 353 -14 q 190 23 256 -14 q 97 127 125 60 q 83 286 69 194 l 153 728 q 217 887 168 819 q 344 991 267 954 q 518 1028 421 1028 q 681 991 617 1028 q 774 887 746 954 q 788 729 803 819 l 718 286 q 654 127 704 194 q 528 23 604 60 q 353 -14 451 -14 m 378 139 q 493 177 449 139 q 549 286 538 215 l 618 728 q 598 838 631 800 q 494 875 565 875 q 379 838 424 875 q 324 728 335 800 l 253 286 q 274 177 242 215 q 378 139 307 139 m 424 1125 l 601 1319 l 796 1319 l 606 1125 l 424 1125 z "},"Õ":{"ha":833,"x_min":69,"x_max":803,"o":"m 353 -14 q 190 23 256 -14 q 97 127 125 60 q 83 286 69 194 l 153 728 q 217 887 168 819 q 344 991 267 954 q 518 1028 421 1028 q 682 991 617 1028 q 775 887 747 954 q 788 729 803 819 l 718 286 q 654 127 704 194 q 528 23 604 60 q 353 -14 451 -14 m 378 139 q 490 177 447 139 q 544 286 533 215 l 614 728 q 596 838 626 800 q 494 875 565 875 q 381 838 424 875 q 328 728 339 800 l 257 286 q 276 177 246 215 q 378 139 307 139 m 631 1119 q 563 1133 588 1119 q 522 1164 538 1146 q 492 1195 507 1182 q 457 1208 478 1208 q 425 1197 439 1208 q 408 1163 411 1185 l 401 1126 l 296 1126 l 303 1172 q 360 1283 314 1240 q 468 1325 406 1325 q 536 1312 511 1325 q 576 1281 561 1299 q 606 1249 592 1263 q 642 1236 621 1236 q 674 1247 661 1236 q 690 1279 686 1257 l 696 1318 l 803 1318 l 796 1272 q 740 1162 785 1204 q 631 1119 694 1119 z "},"Œ":{"ha":833,"x_min":15,"x_max":903,"o":"m 192 -8 q 86 24 128 -8 q 30 117 44 56 q 28 263 15 178 l 107 757 q 154 902 121 842 q 240 995 188 963 q 356 1028 292 1028 q 435 1008 406 1028 q 477 959 464 988 q 489 903 490 931 l 496 903 l 514 1014 l 903 1014 l 879 865 l 646 865 l 603 596 l 801 596 l 778 446 l 579 446 l 532 150 l 765 150 l 742 0 l 353 0 l 372 117 l 365 117 q 335 61 357 90 q 276 12 313 32 q 192 -8 240 -8 m 272 139 q 349 172 318 139 q 390 263 381 204 l 468 757 q 456 847 476 814 q 389 881 436 881 q 313 847 344 881 q 272 757 281 814 l 194 263 q 206 172 185 206 q 272 139 226 139 z "},"P":{"ha":833,"x_min":46,"x_max":846,"o":"m 46 0 l 207 1014 l 544 1014 q 715 975 646 1014 q 815 866 785 936 q 831 701 846 796 q 763 538 815 608 q 628 428 710 467 q 444 389 547 389 l 281 389 l 219 0 l 46 0 m 306 546 l 469 546 q 593 588 543 546 q 656 701 643 631 q 629 815 667 774 q 519 857 592 857 l 356 857 l 306 546 z "},"Þ":{"ha":833,"x_min":47,"x_max":824,"o":"m 47 0 l 208 1014 l 382 1014 l 351 818 l 536 818 q 752 740 681 818 q 803 528 824 661 q 740 373 789 438 q 617 273 692 308 q 444 238 542 238 l 260 238 l 221 0 l 47 0 m 282 386 l 447 386 q 569 424 522 386 q 626 528 617 461 q 602 633 638 596 q 493 669 567 669 l 326 669 l 282 386 z "},"Q":{"ha":833,"x_min":65,"x_max":807,"o":"m 472 -250 l 361 1 l 388 -11 q 370 -13 379 -12 q 353 -14 361 -14 q 189 24 256 -14 q 94 130 122 61 q 79 289 65 199 l 149 725 q 214 885 164 818 q 342 990 264 953 q 518 1028 421 1028 q 682 990 615 1028 q 778 885 749 953 q 792 725 807 817 l 722 289 q 642 107 706 182 q 478 4 578 32 l 494 92 l 649 -250 l 472 -250 m 378 139 q 494 178 450 139 q 549 289 538 218 l 618 725 q 597 837 629 797 q 494 876 565 876 q 380 837 426 876 q 322 725 333 797 l 253 289 q 274 178 242 218 q 378 139 306 139 z "},"R":{"ha":833,"x_min":44,"x_max":825,"o":"m 44 0 l 206 1014 l 526 1014 q 696 976 628 1014 q 794 872 764 939 q 811 713 825 804 q 760 574 800 636 q 661 469 721 511 q 528 414 601 428 l 549 500 l 713 0 l 528 0 l 406 403 l 282 403 l 218 0 l 44 0 m 306 556 l 454 556 q 575 596 526 556 q 635 707 624 636 q 610 820 646 779 q 503 861 575 861 l 354 861 l 306 556 z "},"Ŕ":{"ha":833,"x_min":44,"x_max":825,"o":"m 44 0 l 206 1014 l 526 1014 q 696 976 628 1014 q 794 872 764 939 q 811 713 825 804 q 760 574 800 636 q 661 469 721 511 q 528 414 601 428 l 549 500 l 713 0 l 528 0 l 406 403 l 282 403 l 218 0 l 44 0 m 306 556 l 454 556 q 575 596 526 556 q 635 707 624 636 q 610 820 646 779 q 503 861 575 861 l 354 861 l 306 556 m 424 1125 l 601 1319 l 796 1319 l 606 1125 l 424 1125 z "},"Ř":{"ha":833,"x_min":44,"x_max":835,"o":"m 44 0 l 206 1014 l 526 1014 q 696 976 628 1014 q 794 872 764 939 q 811 713 825 804 q 760 574 800 636 q 661 469 721 511 q 528 414 601 428 l 549 500 l 713 0 l 528 0 l 406 403 l 282 403 l 218 0 l 44 0 m 306 556 l 454 556 q 575 596 526 556 q 635 707 624 636 q 610 820 646 779 q 503 861 575 861 l 354 861 l 306 556 m 453 1125 l 293 1319 l 456 1319 l 546 1218 l 663 1319 l 835 1319 l 614 1125 l 453 1125 z "},"Ŗ":{"ha":833,"x_min":44,"x_max":825,"o":"m 44 0 l 206 1014 l 526 1014 q 696 976 628 1014 q 794 872 764 939 q 811 713 825 804 q 760 574 800 636 q 661 469 721 511 q 528 414 601 428 l 549 500 l 713 0 l 528 0 l 406 403 l 282 403 l 218 0 l 44 0 m 306 556 l 454 556 q 575 596 526 556 q 635 707 624 636 q 610 820 646 779 q 503 861 575 861 l 354 861 l 306 556 m 138 -333 l 301 -132 l 485 -132 l 299 -333 l 138 -333 z "},"S":{"ha":833,"x_min":42,"x_max":815,"o":"m 356 -14 q 121 63 200 -14 q 63 272 42 140 l 236 272 q 265 174 225 210 q 382 139 304 139 q 504 174 457 139 q 563 269 551 208 q 547 363 571 325 q 474 415 524 401 l 361 447 q 194 558 247 479 q 156 744 140 636 q 219 894 169 831 q 345 993 268 958 q 519 1028 422 1028 q 741 952 667 1028 q 796 749 815 876 l 622 749 q 599 842 632 808 q 494 876 565 876 q 383 844 426 876 q 332 754 340 813 q 344 661 322 700 q 417 608 367 622 l 532 575 q 701 465 647 543 q 736 276 754 388 q 670 124 722 189 q 538 22 618 58 q 356 -14 457 -14 z "},"Ś":{"ha":833,"x_min":42,"x_max":815,"o":"m 356 -14 q 121 63 200 -14 q 63 272 42 140 l 236 272 q 265 174 225 210 q 382 139 304 139 q 504 174 457 139 q 563 269 551 208 q 547 363 571 325 q 474 415 524 401 l 361 447 q 194 558 247 479 q 156 744 140 636 q 219 894 169 831 q 345 993 268 958 q 519 1028 422 1028 q 741 952 667 1028 q 796 749 815 876 l 622 749 q 599 842 632 808 q 494 876 565 876 q 383 844 426 876 q 332 754 340 813 q 344 661 322 700 q 417 608 367 622 l 532 575 q 701 465 647 543 q 736 276 754 388 q 670 124 722 189 q 538 22 618 58 q 356 -14 457 -14 m 424 1125 l 601 1319 l 796 1319 l 606 1125 l 424 1125 z "},"Š":{"ha":833,"x_min":42,"x_max":835,"o":"m 356 -14 q 121 63 200 -14 q 63 272 42 140 l 236 272 q 265 174 225 210 q 382 139 304 139 q 504 174 457 139 q 563 269 551 208 q 547 363 571 325 q 474 415 524 401 l 361 447 q 194 558 247 479 q 156 744 140 636 q 219 894 169 831 q 345 993 268 958 q 519 1028 422 1028 q 741 952 667 1028 q 796 749 815 876 l 622 749 q 599 842 632 808 q 494 876 565 876 q 383 844 426 876 q 332 754 340 813 q 344 661 322 700 q 417 608 367 622 l 532 575 q 701 465 647 543 q 736 276 754 388 q 670 124 722 189 q 538 22 618 58 q 356 -14 457 -14 m 453 1125 l 293 1319 l 456 1319 l 546 1218 l 663 1319 l 835 1319 l 614 1125 l 453 1125 z "},"Ş":{"ha":833,"x_min":42,"x_max":815,"o":"m 168 -300 l 182 -211 l 288 -211 q 344 -195 321 -211 q 368 -161 367 -179 q 335 -115 374 -133 q 224 -96 297 -96 l 292 28 l 385 28 l 344 -51 q 424 -69 383 -56 q 490 -110 465 -83 q 508 -178 515 -137 q 445 -263 501 -226 q 306 -300 389 -300 l 168 -300 m 356 -14 q 121 63 200 -14 q 63 272 42 140 l 236 272 q 265 174 225 210 q 382 139 304 139 q 504 174 457 139 q 563 269 551 208 q 547 363 571 325 q 474 415 524 401 l 361 447 q 194 558 247 479 q 156 744 140 636 q 219 894 169 831 q 345 993 268 958 q 519 1028 422 1028 q 741 952 667 1028 q 796 749 815 876 l 622 749 q 599 842 632 808 q 494 876 565 876 q 383 844 426 876 q 332 754 340 813 q 344 661 322 700 q 417 608 367 622 l 532 575 q 701 465 647 543 q 736 276 754 388 q 670 124 722 189 q 538 22 618 58 q 356 -14 457 -14 z "},"Ŝ":{"ha":833,"x_min":42,"x_max":815,"o":"m 356 -14 q 121 63 200 -14 q 63 272 42 140 l 236 272 q 265 174 225 210 q 382 139 304 139 q 504 174 457 139 q 563 269 551 208 q 547 363 571 325 q 474 415 524 401 l 361 447 q 194 558 247 479 q 156 744 140 636 q 219 894 169 831 q 345 993 268 958 q 519 1028 422 1028 q 741 952 667 1028 q 796 749 815 876 l 622 749 q 599 842 632 808 q 494 876 565 876 q 383 844 426 876 q 332 754 340 813 q 344 661 322 700 q 417 608 367 622 l 532 575 q 701 465 647 543 q 736 276 754 388 q 670 124 722 189 q 538 22 618 58 q 356 -14 457 -14 m 263 1125 l 483 1319 l 644 1319 l 804 1125 l 642 1125 l 551 1226 l 435 1125 l 263 1125 z "},"Ș":{"ha":833,"x_min":42,"x_max":815,"o":"m 356 -14 q 121 63 200 -14 q 63 272 42 140 l 236 272 q 265 174 225 210 q 382 139 304 139 q 504 174 457 139 q 563 269 551 208 q 547 363 571 325 q 474 415 524 401 l 361 447 q 194 558 247 479 q 156 744 140 636 q 219 894 169 831 q 345 993 268 958 q 519 1028 422 1028 q 741 952 667 1028 q 796 749 815 876 l 622 749 q 599 842 632 808 q 494 876 565 876 q 383 844 426 876 q 332 754 340 813 q 344 661 322 700 q 417 608 367 622 l 532 575 q 701 465 647 543 q 736 276 754 388 q 670 124 722 189 q 538 22 618 58 q 356 -14 457 -14 m 138 -333 l 301 -132 l 485 -132 l 299 -333 l 138 -333 z "},"ẞ":{"ha":833,"x_min":40,"x_max":849,"o":"m 40 0 l 154 717 q 219 874 169 807 q 344 977 268 940 q 514 1014 421 1014 l 849 1014 l 822 849 l 508 529 l 507 589 q 706 512 639 592 q 751 299 772 432 q 686 141 738 208 q 556 37 635 74 q 379 0 478 0 l 299 0 l 322 149 l 393 149 q 515 192 467 149 q 576 308 564 236 q 551 422 588 379 q 443 465 515 465 l 379 465 l 400 600 l 656 865 l 490 865 q 374 826 421 865 q 315 717 326 786 l 203 0 l 40 0 z "},"Ə":{"ha":833,"x_min":71,"x_max":808,"o":"m 354 -14 q 192 24 257 -14 q 99 128 126 61 q 85 286 71 196 l 129 568 l 588 568 l 613 729 q 596 838 625 800 q 496 876 567 876 q 384 838 426 876 q 331 728 342 800 l 156 728 q 219 887 171 819 q 345 991 268 954 q 519 1028 422 1028 q 737 947 665 1028 q 786 728 808 865 l 717 286 q 653 128 703 196 q 528 24 604 61 q 354 -14 451 -14 m 376 122 q 492 165 453 122 q 543 286 531 207 l 567 439 l 269 439 l 285 451 l 258 286 q 274 163 246 204 q 376 122 303 122 z "},"T":{"ha":833,"x_min":138,"x_max":869,"o":"m 268 0 l 404 853 l 138 853 l 164 1014 l 869 1014 l 843 853 l 578 853 l 443 0 l 268 0 z "},"Ŧ":{"ha":833,"x_min":138,"x_max":869,"o":"m 146 393 l 168 531 l 713 531 l 690 393 l 146 393 m 268 0 l 404 853 l 138 853 l 164 1014 l 869 1014 l 843 853 l 578 853 l 443 0 l 268 0 z "},"Ť":{"ha":833,"x_min":138,"x_max":869,"o":"m 268 0 l 404 853 l 138 853 l 164 1014 l 869 1014 l 843 853 l 578 853 l 443 0 l 268 0 m 453 1125 l 293 1319 l 456 1319 l 546 1218 l 663 1319 l 835 1319 l 614 1125 l 453 1125 z "},"Ţ":{"ha":833,"x_min":138,"x_max":869,"o":"m 240 -300 l 254 -211 l 360 -211 q 416 -195 393 -211 q 440 -161 439 -179 q 408 -115 446 -133 q 296 -96 369 -96 l 365 28 l 443 0 l 417 -51 q 497 -69 456 -56 q 563 -110 538 -83 q 582 -178 588 -137 q 517 -263 574 -226 q 379 -300 461 -300 l 240 -300 m 268 0 l 404 853 l 138 853 l 164 1014 l 869 1014 l 843 853 l 578 853 l 443 0 l 268 0 z "},"Ț":{"ha":833,"x_min":85,"x_max":869,"o":"m 268 0 l 404 853 l 138 853 l 164 1014 l 869 1014 l 843 853 l 578 853 l 443 0 l 268 0 m 85 -333 l 249 -132 l 432 -132 l 246 -333 l 85 -333 z "},"U":{"ha":833,"x_min":64,"x_max":833,"o":"m 353 -14 q 134 67 204 -14 q 86 289 64 149 l 200 1014 l 375 1014 l 260 290 q 277 178 247 218 q 378 138 307 138 q 489 178 446 138 q 544 290 532 218 l 658 1014 l 833 1014 l 718 289 q 654 127 703 196 q 529 22 606 58 q 353 -14 453 -14 z "},"Ú":{"ha":833,"x_min":64,"x_max":833,"o":"m 353 -14 q 134 67 204 -14 q 86 289 64 149 l 200 1014 l 375 1014 l 260 290 q 277 178 247 218 q 378 138 307 138 q 489 178 446 138 q 544 290 532 218 l 658 1014 l 833 1014 l 718 289 q 654 127 703 196 q 529 22 606 58 q 353 -14 453 -14 m 424 1125 l 601 1319 l 796 1319 l 606 1125 l 424 1125 z "},"Ŭ":{"ha":833,"x_min":64,"x_max":833,"o":"m 353 -14 q 134 67 204 -14 q 86 289 64 149 l 200 1014 l 375 1014 l 260 290 q 277 178 247 218 q 378 138 307 138 q 489 178 446 138 q 544 290 532 218 l 658 1014 l 833 1014 l 718 289 q 654 127 703 196 q 529 22 606 58 q 353 -14 453 -14 m 532 1114 q 366 1171 424 1114 q 322 1319 308 1228 l 454 1319 q 472 1246 447 1274 q 546 1218 497 1218 q 628 1246 594 1218 q 669 1319 663 1274 l 807 1319 q 717 1171 793 1228 q 532 1114 640 1114 z "},"Û":{"ha":833,"x_min":64,"x_max":833,"o":"m 353 -14 q 134 67 204 -14 q 86 289 64 149 l 200 1014 l 375 1014 l 260 290 q 277 178 247 218 q 378 138 307 138 q 489 178 446 138 q 544 290 532 218 l 658 1014 l 833 1014 l 718 289 q 654 127 703 196 q 529 22 606 58 q 353 -14 453 -14 m 263 1125 l 483 1319 l 644 1319 l 804 1125 l 642 1125 l 551 1226 l 435 1125 l 263 1125 z "},"Ü":{"ha":833,"x_min":64,"x_max":833,"o":"m 353 -14 q 134 67 204 -14 q 86 289 64 149 l 200 1014 l 375 1014 l 260 290 q 277 178 247 218 q 378 138 307 138 q 489 178 446 138 q 544 290 532 218 l 658 1014 l 833 1014 l 718 289 q 654 127 703 196 q 529 22 606 58 q 353 -14 453 -14 m 696 1122 q 626 1149 650 1122 q 610 1222 603 1176 q 650 1297 618 1269 q 729 1324 682 1324 q 798 1297 775 1324 q 814 1222 821 1269 q 775 1149 807 1176 q 696 1122 743 1122 m 369 1122 q 301 1149 324 1122 q 283 1222 278 1176 q 324 1297 292 1269 q 403 1324 356 1324 q 472 1297 449 1324 q 488 1222 496 1269 q 449 1149 481 1176 q 369 1122 417 1122 z "},"Ụ":{"ha":833,"x_min":64,"x_max":833,"o":"m 353 -14 q 134 67 204 -14 q 86 289 64 149 l 200 1014 l 375 1014 l 260 290 q 277 178 247 218 q 378 138 307 138 q 489 178 446 138 q 544 290 532 218 l 658 1014 l 833 1014 l 718 289 q 654 127 703 196 q 529 22 606 58 q 353 -14 453 -14 m 306 -312 q 228 -285 254 -312 q 207 -212 201 -258 q 251 -138 215 -165 q 339 -111 286 -111 q 417 -138 390 -111 q 436 -212 443 -165 q 394 -285 429 -258 q 306 -312 358 -312 z "},"Ù":{"ha":833,"x_min":64,"x_max":833,"o":"m 353 -14 q 134 67 204 -14 q 86 289 64 149 l 200 1014 l 375 1014 l 260 290 q 277 178 247 218 q 378 138 307 138 q 489 178 446 138 q 544 290 532 218 l 658 1014 l 833 1014 l 718 289 q 654 127 703 196 q 529 22 606 58 q 353 -14 453 -14 m 467 1125 l 336 1319 l 519 1319 l 638 1125 l 467 1125 z "},"Ủ":{"ha":833,"x_min":64,"x_max":833,"o":"m 353 -14 q 134 67 204 -14 q 86 289 64 149 l 200 1014 l 375 1014 l 260 290 q 277 178 247 218 q 378 138 307 138 q 489 178 446 138 q 544 290 532 218 l 658 1014 l 833 1014 l 718 289 q 654 127 703 196 q 529 22 606 58 q 353 -14 453 -14 m 451 1108 l 533 1192 q 553 1215 546 1204 q 561 1233 560 1225 q 526 1258 565 1258 l 422 1258 l 439 1365 l 585 1365 q 676 1335 644 1365 q 700 1253 708 1304 q 687 1210 697 1231 q 660 1172 676 1189 l 599 1108 l 451 1108 z "},"Ư":{"ha":833,"x_min":64,"x_max":996,"o":"m 694 896 l 713 1014 l 782 1014 q 820 1027 806 1014 q 838 1063 835 1040 l 854 1167 l 996 1167 l 978 1060 q 910 940 967 985 q 774 896 854 896 l 694 896 m 353 -14 q 134 67 204 -14 q 86 289 64 149 l 200 1014 l 375 1014 l 260 290 q 277 178 247 218 q 378 138 307 138 q 489 178 446 138 q 544 290 532 218 l 658 1014 l 833 1014 l 718 289 q 654 127 703 196 q 529 22 606 58 q 353 -14 453 -14 z "},"Ứ":{"ha":833,"x_min":64,"x_max":996,"o":"m 694 896 l 713 1014 l 782 1014 q 820 1027 806 1014 q 838 1063 835 1040 l 854 1167 l 996 1167 l 978 1060 q 910 940 967 985 q 774 896 854 896 l 694 896 m 353 -14 q 134 67 204 -14 q 86 289 64 149 l 200 1014 l 375 1014 l 260 290 q 277 178 247 218 q 378 138 307 138 q 489 178 446 138 q 544 290 532 218 l 658 1014 l 833 1014 l 718 289 q 654 127 703 196 q 529 22 606 58 q 353 -14 453 -14 m 424 1125 l 601 1319 l 796 1319 l 606 1125 l 424 1125 z "},"Ự":{"ha":833,"x_min":64,"x_max":996,"o":"m 319 -312 q 242 -285 268 -312 q 221 -212 215 -258 q 265 -138 229 -165 q 353 -111 300 -111 q 431 -138 404 -111 q 450 -212 457 -165 q 408 -285 443 -258 q 319 -312 372 -312 m 694 896 l 713 1014 l 782 1014 q 820 1027 806 1014 q 838 1063 835 1040 l 854 1167 l 996 1167 l 978 1060 q 910 940 967 985 q 774 896 854 896 l 694 896 m 353 -14 q 134 67 204 -14 q 86 289 64 149 l 200 1014 l 375 1014 l 260 290 q 277 178 247 218 q 378 138 307 138 q 489 178 446 138 q 544 290 532 218 l 658 1014 l 833 1014 l 718 289 q 654 127 703 196 q 529 22 606 58 q 353 -14 453 -14 z "},"Ừ":{"ha":833,"x_min":64,"x_max":996,"o":"m 694 896 l 713 1014 l 782 1014 q 820 1027 806 1014 q 838 1063 835 1040 l 854 1167 l 996 1167 l 978 1060 q 910 940 967 985 q 774 896 854 896 l 694 896 m 353 -14 q 134 67 204 -14 q 86 289 64 149 l 200 1014 l 375 1014 l 260 290 q 277 178 247 218 q 378 138 307 138 q 489 178 446 138 q 544 290 532 218 l 658 1014 l 833 1014 l 718 289 q 654 127 703 196 q 529 22 606 58 q 353 -14 453 -14 m 467 1125 l 336 1319 l 519 1319 l 638 1125 l 467 1125 z "},"Ử":{"ha":833,"x_min":64,"x_max":996,"o":"m 694 896 l 713 1014 l 782 1014 q 820 1027 806 1014 q 838 1063 835 1040 l 854 1167 l 996 1167 l 978 1060 q 910 940 967 985 q 774 896 854 896 l 694 896 m 353 -14 q 134 67 204 -14 q 86 289 64 149 l 200 1014 l 375 1014 l 260 290 q 277 178 247 218 q 378 138 307 138 q 489 178 446 138 q 544 290 532 218 l 658 1014 l 833 1014 l 718 289 q 654 127 703 196 q 529 22 606 58 q 353 -14 453 -14 m 451 1108 l 533 1192 q 553 1215 546 1204 q 561 1233 560 1225 q 526 1258 565 1258 l 422 1258 l 439 1365 l 585 1365 q 676 1335 644 1365 q 700 1253 708 1304 q 687 1210 697 1231 q 660 1172 676 1189 l 599 1108 l 451 1108 z "},"Ữ":{"ha":833,"x_min":64,"x_max":996,"o":"m 694 896 l 713 1014 l 782 1014 q 820 1027 806 1014 q 838 1063 835 1040 l 854 1167 l 996 1167 l 978 1060 q 910 940 967 985 q 774 896 854 896 l 694 896 m 353 -14 q 134 67 204 -14 q 86 289 64 149 l 200 1014 l 375 1014 l 260 290 q 277 178 247 218 q 378 138 307 138 q 489 178 446 138 q 544 290 532 218 l 658 1014 l 833 1014 l 718 289 q 654 127 703 196 q 529 22 606 58 q 353 -14 453 -14 m 631 1119 q 563 1133 588 1119 q 522 1164 538 1146 q 492 1195 507 1182 q 457 1208 478 1208 q 425 1197 439 1208 q 408 1163 411 1185 l 401 1126 l 296 1126 l 303 1172 q 360 1283 314 1240 q 468 1325 406 1325 q 536 1312 511 1325 q 576 1281 561 1299 q 606 1249 592 1263 q 642 1236 621 1236 q 674 1247 661 1236 q 690 1279 686 1257 l 696 1318 l 803 1318 l 796 1272 q 740 1162 785 1204 q 631 1119 694 1119 z "},"Ű":{"ha":833,"x_min":64,"x_max":919,"o":"m 353 -14 q 134 67 204 -14 q 86 289 64 149 l 200 1014 l 375 1014 l 260 290 q 277 178 247 218 q 378 138 307 138 q 489 178 446 138 q 544 290 532 218 l 658 1014 l 833 1014 l 718 289 q 654 127 703 196 q 529 22 606 58 q 353 -14 453 -14 m 567 1125 l 746 1319 l 919 1319 l 729 1125 l 567 1125 m 282 1125 l 463 1319 l 635 1319 l 444 1125 l 282 1125 z "},"Ū":{"ha":833,"x_min":64,"x_max":833,"o":"m 353 -14 q 134 67 204 -14 q 86 289 64 149 l 200 1014 l 375 1014 l 260 290 q 277 178 247 218 q 378 138 307 138 q 489 178 446 138 q 544 290 532 218 l 658 1014 l 833 1014 l 718 289 q 654 127 703 196 q 529 22 606 58 q 353 -14 453 -14 m 300 1150 l 319 1283 l 797 1283 l 776 1150 l 300 1150 z "},"Ų":{"ha":833,"x_min":71,"x_max":833,"o":"m 397 -300 q 275 -260 317 -300 q 244 -157 233 -219 q 271 -99 249 -129 q 328 -40 293 -69 q 403 11 363 -11 q 388 -4 401 6 q 353 -14 375 -14 q 191 23 256 -14 q 99 127 126 60 q 85 286 71 194 l 200 1014 l 375 1014 l 258 286 q 277 177 247 215 q 378 139 307 139 q 490 177 447 139 q 543 286 532 215 l 658 1014 l 833 1014 l 717 286 q 658 135 703 201 q 544 32 613 69 l 481 -14 q 422 -70 442 -43 q 399 -121 403 -97 q 411 -163 396 -146 q 458 -181 426 -181 l 549 -181 l 531 -300 l 397 -300 z "},"Ů":{"ha":833,"x_min":64,"x_max":833,"o":"m 353 -14 q 134 67 204 -14 q 86 289 64 149 l 200 1014 l 375 1014 l 260 290 q 277 178 247 218 q 378 138 307 138 q 489 178 446 138 q 544 290 532 218 l 658 1014 l 833 1014 l 718 289 q 654 127 703 196 q 529 22 606 58 q 353 -14 453 -14 m 522 1053 q 397 1099 440 1053 q 365 1222 354 1146 q 435 1344 378 1297 q 575 1392 493 1392 q 701 1345 658 1392 q 732 1222 743 1299 q 663 1099 721 1146 q 522 1053 604 1053 m 536 1140 q 600 1163 574 1140 q 632 1222 626 1186 q 619 1282 639 1260 q 561 1304 600 1304 q 499 1282 525 1304 q 465 1222 472 1260 q 479 1163 460 1186 q 536 1140 499 1140 z "},"Ũ":{"ha":833,"x_min":64,"x_max":833,"o":"m 353 -14 q 134 67 204 -14 q 86 289 64 149 l 200 1014 l 375 1014 l 260 290 q 277 178 247 218 q 378 138 307 138 q 489 178 446 138 q 544 290 532 218 l 658 1014 l 833 1014 l 718 289 q 654 127 703 196 q 529 22 606 58 q 353 -14 453 -14 m 631 1119 q 563 1133 588 1119 q 522 1164 538 1146 q 492 1195 507 1182 q 457 1208 478 1208 q 425 1197 439 1208 q 408 1163 411 1185 l 401 1126 l 296 1126 l 303 1172 q 360 1283 314 1240 q 468 1325 406 1325 q 536 1312 511 1325 q 576 1281 561 1299 q 606 1249 592 1263 q 642 1236 621 1236 q 674 1247 661 1236 q 690 1279 686 1257 l 696 1318 l 803 1318 l 796 1272 q 740 1162 785 1204 q 631 1119 694 1119 z "},"V":{"ha":833,"x_min":149,"x_max":885,"o":"m 243 0 l 149 1014 l 325 1014 l 374 353 q 381 248 378 304 q 383 157 383 192 q 413 248 394 192 q 450 354 431 304 l 706 1014 l 885 1014 l 468 0 l 243 0 z "},"W":{"ha":833,"x_min":65,"x_max":911,"o":"m 65 0 l 122 1014 l 268 1014 l 217 306 q 213 248 215 282 q 206 179 210 214 q 199 118 201 144 q 213 179 206 144 q 230 248 221 214 q 246 306 239 282 l 442 1014 l 592 1014 l 557 306 q 554 248 556 282 q 551 179 553 214 q 549 118 550 144 q 561 179 554 144 q 576 248 568 214 q 589 306 583 282 l 763 1014 l 911 1014 l 640 0 l 449 0 l 485 711 q 489 773 486 738 q 494 844 492 808 q 499 904 497 879 q 485 844 493 879 q 468 773 476 808 q 453 711 460 738 l 258 0 l 65 0 z "},"Ẃ":{"ha":833,"x_min":65,"x_max":911,"o":"m 65 0 l 122 1014 l 268 1014 l 217 306 q 213 248 215 282 q 206 179 210 214 q 199 118 201 144 q 213 179 206 144 q 230 248 221 214 q 246 306 239 282 l 442 1014 l 592 1014 l 557 306 q 554 248 556 282 q 551 179 553 214 q 549 118 550 144 q 561 179 554 144 q 576 248 568 214 q 589 306 583 282 l 763 1014 l 911 1014 l 640 0 l 449 0 l 485 711 q 489 773 486 738 q 494 844 492 808 q 499 904 497 879 q 485 844 493 879 q 468 773 476 808 q 453 711 460 738 l 258 0 l 65 0 m 424 1125 l 601 1319 l 796 1319 l 606 1125 l 424 1125 z "},"Ŵ":{"ha":833,"x_min":65,"x_max":911,"o":"m 65 0 l 122 1014 l 268 1014 l 217 306 q 213 248 215 282 q 206 179 210 214 q 199 118 201 144 q 213 179 206 144 q 230 248 221 214 q 246 306 239 282 l 442 1014 l 592 1014 l 557 306 q 554 248 556 282 q 551 179 553 214 q 549 118 550 144 q 561 179 554 144 q 576 248 568 214 q 589 306 583 282 l 763 1014 l 911 1014 l 640 0 l 449 0 l 485 711 q 489 773 486 738 q 494 844 492 808 q 499 904 497 879 q 485 844 493 879 q 468 773 476 808 q 453 711 460 738 l 258 0 l 65 0 m 263 1125 l 483 1319 l 644 1319 l 804 1125 l 642 1125 l 551 1226 l 435 1125 l 263 1125 z "},"Ẅ":{"ha":833,"x_min":65,"x_max":911,"o":"m 65 0 l 122 1014 l 268 1014 l 217 306 q 213 248 215 282 q 206 179 210 214 q 199 118 201 144 q 213 179 206 144 q 230 248 221 214 q 246 306 239 282 l 442 1014 l 592 1014 l 557 306 q 554 248 556 282 q 551 179 553 214 q 549 118 550 144 q 561 179 554 144 q 576 248 568 214 q 589 306 583 282 l 763 1014 l 911 1014 l 640 0 l 449 0 l 485 711 q 489 773 486 738 q 494 844 492 808 q 499 904 497 879 q 485 844 493 879 q 468 773 476 808 q 453 711 460 738 l 258 0 l 65 0 m 696 1122 q 626 1149 650 1122 q 610 1222 603 1176 q 650 1297 618 1269 q 729 1324 682 1324 q 798 1297 775 1324 q 814 1222 821 1269 q 775 1149 807 1176 q 696 1122 743 1122 m 369 1122 q 301 1149 324 1122 q 283 1222 278 1176 q 324 1297 292 1269 q 403 1324 356 1324 q 472 1297 449 1324 q 488 1222 496 1269 q 449 1149 481 1176 q 369 1122 417 1122 z "},"Ẁ":{"ha":833,"x_min":65,"x_max":911,"o":"m 65 0 l 122 1014 l 268 1014 l 217 306 q 213 248 215 282 q 206 179 210 214 q 199 118 201 144 q 213 179 206 144 q 230 248 221 214 q 246 306 239 282 l 442 1014 l 592 1014 l 557 306 q 554 248 556 282 q 551 179 553 214 q 549 118 550 144 q 561 179 554 144 q 576 248 568 214 q 589 306 583 282 l 763 1014 l 911 1014 l 640 0 l 449 0 l 485 711 q 489 773 486 738 q 494 844 492 808 q 499 904 497 879 q 485 844 493 879 q 468 773 476 808 q 453 711 460 738 l 258 0 l 65 0 m 467 1125 l 336 1319 l 519 1319 l 638 1125 l 467 1125 z "},"X":{"ha":833,"x_min":-22,"x_max":878,"o":"m -22 0 l 340 524 l 156 1014 l 344 1014 l 431 760 q 448 706 439 732 q 460 667 457 681 q 481 706 467 681 q 513 760 494 732 l 683 1014 l 878 1014 l 536 518 l 733 0 l 546 0 l 447 281 q 429 335 438 308 q 417 376 421 361 q 394 335 410 361 q 361 281 379 308 l 174 0 l -22 0 z "},"Y":{"ha":833,"x_min":132,"x_max":901,"o":"m 268 0 l 326 368 l 132 1014 l 310 1014 l 411 663 q 429 581 422 621 q 438 518 436 540 q 464 581 446 540 q 506 663 482 621 l 717 1014 l 901 1014 l 500 368 l 443 0 l 268 0 z "},"Ý":{"ha":833,"x_min":132,"x_max":901,"o":"m 268 0 l 326 368 l 132 1014 l 310 1014 l 411 663 q 429 581 422 621 q 438 518 436 540 q 464 581 446 540 q 506 663 482 621 l 717 1014 l 901 1014 l 500 368 l 443 0 l 268 0 m 424 1125 l 601 1319 l 796 1319 l 606 1125 l 424 1125 z "},"Ŷ":{"ha":833,"x_min":132,"x_max":901,"o":"m 268 0 l 326 368 l 132 1014 l 310 1014 l 411 663 q 429 581 422 621 q 438 518 436 540 q 464 581 446 540 q 506 663 482 621 l 717 1014 l 901 1014 l 500 368 l 443 0 l 268 0 m 263 1125 l 483 1319 l 644 1319 l 804 1125 l 642 1125 l 551 1226 l 435 1125 l 263 1125 z "},"Ÿ":{"ha":833,"x_min":132,"x_max":901,"o":"m 268 0 l 326 368 l 132 1014 l 310 1014 l 411 663 q 429 581 422 621 q 438 518 436 540 q 464 581 446 540 q 506 663 482 621 l 717 1014 l 901 1014 l 500 368 l 443 0 l 268 0 m 696 1122 q 626 1149 650 1122 q 610 1222 603 1176 q 650 1297 618 1269 q 729 1324 682 1324 q 798 1297 775 1324 q 814 1222 821 1269 q 775 1149 807 1176 q 696 1122 743 1122 m 369 1122 q 301 1149 324 1122 q 283 1222 278 1176 q 324 1297 292 1269 q 403 1324 356 1324 q 472 1297 449 1324 q 488 1222 496 1269 q 449 1149 481 1176 q 369 1122 417 1122 z "},"Ỵ":{"ha":833,"x_min":132,"x_max":901,"o":"m 268 0 l 326 368 l 132 1014 l 310 1014 l 411 663 q 429 581 422 621 q 438 518 436 540 q 464 581 446 540 q 506 663 482 621 l 717 1014 l 901 1014 l 500 368 l 443 0 l 268 0 m 319 -312 q 242 -285 268 -312 q 221 -212 215 -258 q 265 -138 229 -165 q 353 -111 300 -111 q 431 -138 404 -111 q 450 -212 457 -165 q 408 -285 443 -258 q 319 -312 372 -312 z "},"Ỳ":{"ha":833,"x_min":132,"x_max":901,"o":"m 268 0 l 326 368 l 132 1014 l 310 1014 l 411 663 q 429 581 422 621 q 438 518 436 540 q 464 581 446 540 q 506 663 482 621 l 717 1014 l 901 1014 l 500 368 l 443 0 l 268 0 m 467 1125 l 336 1319 l 519 1319 l 638 1125 l 467 1125 z "},"Ỷ":{"ha":833,"x_min":132,"x_max":901,"o":"m 268 0 l 326 368 l 132 1014 l 310 1014 l 411 663 q 429 581 422 621 q 438 518 436 540 q 464 581 446 540 q 506 663 482 621 l 717 1014 l 901 1014 l 500 368 l 443 0 l 268 0 m 451 1108 l 533 1192 q 553 1215 546 1204 q 561 1233 560 1225 q 526 1258 565 1258 l 422 1258 l 439 1365 l 585 1365 q 676 1335 644 1365 q 700 1253 708 1304 q 687 1210 697 1231 q 660 1172 676 1189 l 599 1108 l 451 1108 z "},"Ȳ":{"ha":833,"x_min":132,"x_max":901,"o":"m 268 0 l 326 368 l 132 1014 l 310 1014 l 411 663 q 429 581 422 621 q 438 518 436 540 q 464 581 446 540 q 506 663 482 621 l 717 1014 l 901 1014 l 500 368 l 443 0 l 268 0 m 300 1150 l 319 1283 l 797 1283 l 776 1150 l 300 1150 z "},"Ỹ":{"ha":833,"x_min":132,"x_max":901,"o":"m 268 0 l 326 368 l 132 1014 l 310 1014 l 411 663 q 429 581 422 621 q 438 518 436 540 q 464 581 446 540 q 506 663 482 621 l 717 1014 l 901 1014 l 500 368 l 443 0 l 268 0 m 631 1119 q 563 1133 588 1119 q 522 1164 538 1146 q 492 1195 507 1182 q 457 1208 478 1208 q 425 1197 439 1208 q 408 1163 411 1185 l 401 1126 l 296 1126 l 303 1172 q 360 1283 314 1240 q 468 1325 406 1325 q 536 1312 511 1325 q 576 1281 561 1299 q 606 1249 592 1263 q 642 1236 621 1236 q 674 1247 661 1236 q 690 1279 686 1257 l 696 1318 l 803 1318 l 796 1272 q 740 1162 785 1204 q 631 1119 694 1119 z "},"Z":{"ha":833,"x_min":50,"x_max":808,"o":"m 50 0 l 75 165 l 586 853 l 193 853 l 219 1014 l 808 1014 l 782 849 l 271 161 l 688 161 l 663 0 l 50 0 z "},"Ź":{"ha":833,"x_min":50,"x_max":808,"o":"m 50 0 l 75 165 l 586 853 l 193 853 l 219 1014 l 808 1014 l 782 849 l 271 161 l 688 161 l 663 0 l 50 0 m 424 1125 l 601 1319 l 796 1319 l 606 1125 l 424 1125 z "},"Ž":{"ha":833,"x_min":50,"x_max":835,"o":"m 50 0 l 75 165 l 586 853 l 193 853 l 219 1014 l 808 1014 l 782 849 l 271 161 l 688 161 l 663 0 l 50 0 m 453 1125 l 293 1319 l 456 1319 l 546 1218 l 663 1319 l 835 1319 l 614 1125 l 453 1125 z "},"Ż":{"ha":833,"x_min":50,"x_max":808,"o":"m 50 0 l 75 165 l 586 853 l 193 853 l 219 1014 l 808 1014 l 782 849 l 271 161 l 688 161 l 663 0 l 50 0 m 533 1122 q 454 1149 481 1122 q 435 1222 428 1176 q 477 1295 442 1268 q 565 1322 513 1322 q 644 1295 618 1322 q 663 1222 671 1268 q 622 1149 657 1176 q 533 1122 586 1122 z "},"a":{"ha":833,"x_min":61,"x_max":788,"o":"m 289 -14 q 117 65 174 -14 q 83 278 61 144 l 115 485 q 172 640 131 575 q 276 742 214 706 q 415 778 339 778 q 556 724 510 778 q 588 578 603 671 l 556 618 l 594 618 l 614 764 l 788 764 l 667 0 l 496 0 l 519 146 l 482 146 l 526 186 q 447 40 511 93 q 289 -14 383 -14 m 375 136 q 483 176 440 136 q 538 286 526 215 l 568 478 q 549 588 581 549 q 451 628 517 628 q 342 589 385 628 q 289 478 300 550 l 258 286 q 276 175 246 214 q 375 136 307 136 z "},"á":{"ha":833,"x_min":61,"x_max":788,"o":"m 289 -14 q 117 65 174 -14 q 83 278 61 144 l 115 485 q 172 640 131 575 q 276 742 214 706 q 415 778 339 778 q 556 724 510 778 q 588 578 603 671 l 556 618 l 594 618 l 614 764 l 788 764 l 667 0 l 496 0 l 519 146 l 482 146 l 526 186 q 447 40 511 93 q 289 -14 383 -14 m 375 136 q 483 176 440 136 q 538 286 526 215 l 568 478 q 549 588 581 549 q 451 628 517 628 q 342 589 385 628 q 289 478 300 550 l 258 286 q 276 175 246 214 q 375 136 307 136 m 394 896 l 572 1090 l 767 1090 l 576 896 l 394 896 z "},"ă":{"ha":833,"x_min":61,"x_max":788,"o":"m 289 -14 q 117 65 174 -14 q 83 278 61 144 l 115 485 q 172 640 131 575 q 276 742 214 706 q 415 778 339 778 q 556 724 510 778 q 588 578 603 671 l 556 618 l 594 618 l 614 764 l 788 764 l 667 0 l 496 0 l 519 146 l 482 146 l 526 186 q 447 40 511 93 q 289 -14 383 -14 m 375 136 q 483 176 440 136 q 538 286 526 215 l 568 478 q 549 588 581 549 q 451 628 517 628 q 342 589 385 628 q 289 478 300 550 l 258 286 q 276 175 246 214 q 375 136 307 136 m 503 885 q 336 942 394 885 q 292 1090 278 999 l 425 1090 q 443 1017 418 1044 q 517 989 468 989 q 600 1017 567 989 q 640 1090 633 1044 l 778 1090 q 688 942 764 999 q 503 885 611 885 z "},"ắ":{"ha":833,"x_min":61,"x_max":790,"o":"m 289 -14 q 117 65 174 -14 q 83 278 61 144 l 115 485 q 172 640 131 575 q 276 742 214 706 q 415 778 339 778 q 556 724 510 778 q 588 578 603 671 l 556 618 l 594 618 l 614 764 l 788 764 l 667 0 l 496 0 l 519 146 l 482 146 l 526 186 q 447 40 511 93 q 289 -14 383 -14 m 375 136 q 483 176 440 136 q 538 286 526 215 l 568 478 q 549 588 581 549 q 451 628 517 628 q 342 589 385 628 q 289 478 300 550 l 258 286 q 276 175 246 214 q 375 136 307 136 m 496 885 q 326 937 388 885 q 278 1074 264 989 l 406 1074 q 427 1014 399 1035 q 510 993 456 993 q 601 1014 567 993 q 642 1074 636 1035 l 774 1074 q 726 974 765 1017 q 628 908 688 932 q 496 885 568 885 m 435 1076 l 625 1264 l 790 1264 l 589 1076 l 435 1076 z "},"ặ":{"ha":833,"x_min":61,"x_max":788,"o":"m 507 885 q 340 942 399 885 q 296 1090 282 999 l 429 1090 q 447 1017 422 1044 q 521 989 472 989 q 604 1017 571 989 q 644 1090 638 1044 l 782 1090 q 692 942 768 999 q 507 885 615 885 m 289 -14 q 117 65 174 -14 q 83 278 61 144 l 115 485 q 172 640 131 575 q 276 742 214 706 q 415 778 339 778 q 556 724 510 778 q 588 578 603 671 l 556 618 l 594 618 l 614 764 l 788 764 l 667 0 l 496 0 l 519 146 l 482 146 l 526 186 q 447 40 511 93 q 289 -14 383 -14 m 375 136 q 483 176 440 136 q 538 286 526 215 l 568 478 q 549 588 581 549 q 451 628 517 628 q 342 589 385 628 q 289 478 300 550 l 258 286 q 276 175 246 214 q 375 136 307 136 m 313 -312 q 235 -285 261 -312 q 214 -212 208 -258 q 258 -138 222 -165 q 346 -111 293 -111 q 424 -138 397 -111 q 443 -212 450 -165 q 401 -285 436 -258 q 313 -312 365 -312 z "},"ằ":{"ha":833,"x_min":61,"x_max":788,"o":"m 289 -14 q 117 65 174 -14 q 83 278 61 144 l 115 485 q 172 640 131 575 q 276 742 214 706 q 415 778 339 778 q 556 724 510 778 q 588 578 603 671 l 556 618 l 594 618 l 614 764 l 788 764 l 667 0 l 496 0 l 519 146 l 482 146 l 526 186 q 447 40 511 93 q 289 -14 383 -14 m 375 136 q 483 176 440 136 q 538 286 526 215 l 568 478 q 549 588 581 549 q 451 628 517 628 q 342 589 385 628 q 289 478 300 550 l 258 286 q 276 175 246 214 q 375 136 307 136 m 496 885 q 326 937 388 885 q 278 1074 264 989 l 406 1074 q 427 1014 399 1035 q 510 993 456 993 q 601 1014 567 993 q 642 1074 636 1035 l 774 1074 q 726 974 765 1017 q 628 908 688 932 q 496 885 568 885 m 467 1076 l 326 1264 l 485 1264 l 614 1076 l 467 1076 z "},"ẳ":{"ha":833,"x_min":61,"x_max":788,"o":"m 289 -14 q 117 65 174 -14 q 83 278 61 144 l 115 485 q 172 640 131 575 q 276 742 214 706 q 415 778 339 778 q 556 724 510 778 q 588 578 603 671 l 556 618 l 594 618 l 614 764 l 788 764 l 667 0 l 496 0 l 519 146 l 482 146 l 526 186 q 447 40 511 93 q 289 -14 383 -14 m 375 136 q 483 176 440 136 q 538 286 526 215 l 568 478 q 549 588 581 549 q 451 628 517 628 q 342 589 385 628 q 289 478 300 550 l 258 286 q 276 175 246 214 q 375 136 307 136 m 496 885 q 326 937 388 885 q 278 1074 264 989 l 406 1074 q 428 1014 400 1035 q 511 993 456 993 q 602 1014 568 993 q 643 1074 636 1035 l 774 1074 q 726 974 765 1017 q 628 908 688 932 q 496 885 568 885 m 443 1072 l 522 1154 q 544 1192 543 1176 q 513 1221 549 1221 l 425 1221 l 440 1324 l 563 1324 q 660 1293 626 1324 q 686 1214 693 1263 q 672 1173 683 1193 q 644 1135 661 1153 l 586 1072 l 443 1072 z "},"ẵ":{"ha":833,"x_min":61,"x_max":800,"o":"m 289 -14 q 117 65 174 -14 q 83 278 61 144 l 115 485 q 172 640 131 575 q 276 742 214 706 q 415 778 339 778 q 556 724 510 778 q 588 578 603 671 l 556 618 l 594 618 l 614 764 l 788 764 l 667 0 l 496 0 l 519 146 l 482 146 l 526 186 q 447 40 511 93 q 289 -14 383 -14 m 375 136 q 483 176 440 136 q 538 286 526 215 l 568 478 q 549 588 581 549 q 451 628 517 628 q 342 589 385 628 q 289 478 300 550 l 258 286 q 276 175 246 214 q 375 136 307 136 m 496 888 q 329 940 389 888 q 283 1076 269 992 l 408 1076 q 428 1015 401 1038 q 510 993 456 993 q 599 1015 565 993 q 640 1076 633 1038 l 769 1076 q 722 977 760 1019 q 626 911 685 935 q 496 888 568 888 m 628 1118 q 561 1132 585 1118 q 522 1165 538 1146 q 494 1197 507 1183 q 457 1211 481 1211 q 408 1167 418 1211 l 401 1126 l 296 1126 l 301 1167 q 358 1272 313 1232 q 468 1311 404 1311 q 535 1297 511 1311 q 574 1265 560 1283 q 603 1232 589 1246 q 639 1218 617 1218 q 672 1228 658 1218 q 688 1258 685 1239 l 693 1303 l 800 1303 l 794 1263 q 739 1158 785 1197 q 628 1118 693 1118 z "},"ǎ":{"ha":833,"x_min":61,"x_max":807,"o":"m 289 -14 q 117 65 174 -14 q 83 278 61 144 l 115 485 q 172 640 131 575 q 276 742 214 706 q 415 778 339 778 q 556 724 510 778 q 588 578 603 671 l 556 618 l 594 618 l 614 764 l 788 764 l 667 0 l 496 0 l 519 146 l 482 146 l 526 186 q 447 40 511 93 q 289 -14 383 -14 m 375 136 q 483 176 440 136 q 538 286 526 215 l 568 478 q 549 588 581 549 q 451 628 517 628 q 342 589 385 628 q 289 478 300 550 l 258 286 q 276 175 246 214 q 375 136 307 136 m 425 896 l 265 1090 l 428 1090 l 518 989 l 635 1090 l 807 1090 l 586 896 l 425 896 z "},"â":{"ha":833,"x_min":61,"x_max":788,"o":"m 289 -14 q 117 65 174 -14 q 83 278 61 144 l 115 485 q 172 640 131 575 q 276 742 214 706 q 415 778 339 778 q 556 724 510 778 q 588 578 603 671 l 556 618 l 594 618 l 614 764 l 788 764 l 667 0 l 496 0 l 519 146 l 482 146 l 526 186 q 447 40 511 93 q 289 -14 383 -14 m 375 136 q 483 176 440 136 q 538 286 526 215 l 568 478 q 549 588 581 549 q 451 628 517 628 q 342 589 385 628 q 289 478 300 550 l 258 286 q 276 175 246 214 q 375 136 307 136 m 233 896 l 454 1090 l 615 1090 l 775 896 l 613 896 l 522 997 l 406 896 l 233 896 z "},"ấ":{"ha":833,"x_min":61,"x_max":1056,"o":"m 289 -14 q 117 65 174 -14 q 83 278 61 144 l 115 485 q 172 640 131 575 q 276 742 214 706 q 415 778 339 778 q 556 724 510 778 q 588 578 603 671 l 556 618 l 594 618 l 614 764 l 788 764 l 667 0 l 496 0 l 519 146 l 482 146 l 526 186 q 447 40 511 93 q 289 -14 383 -14 m 375 136 q 483 176 440 136 q 538 286 526 215 l 568 478 q 549 588 581 549 q 451 628 517 628 q 342 589 385 628 q 289 478 300 550 l 258 286 q 276 175 246 214 q 375 136 307 136 m 682 1051 l 876 1246 l 1056 1246 l 850 1051 l 682 1051 m 226 896 l 447 1090 l 608 1090 l 768 896 l 604 896 l 515 997 l 397 896 l 226 896 z "},"ậ":{"ha":833,"x_min":61,"x_max":788,"o":"m 233 896 l 454 1090 l 615 1090 l 775 896 l 613 896 l 522 997 l 406 896 l 233 896 m 289 -14 q 117 65 174 -14 q 83 278 61 144 l 115 485 q 172 640 131 575 q 276 742 214 706 q 415 778 339 778 q 556 724 510 778 q 588 578 603 671 l 556 618 l 594 618 l 614 764 l 788 764 l 667 0 l 496 0 l 519 146 l 482 146 l 526 186 q 447 40 511 93 q 289 -14 383 -14 m 375 136 q 483 176 440 136 q 538 286 526 215 l 568 478 q 549 588 581 549 q 451 628 517 628 q 342 589 385 628 q 289 478 300 550 l 258 286 q 276 175 246 214 q 375 136 307 136 m 313 -312 q 235 -285 261 -312 q 214 -212 208 -258 q 258 -138 222 -165 q 346 -111 293 -111 q 424 -138 397 -111 q 443 -212 450 -165 q 401 -285 436 -258 q 313 -312 365 -312 z "},"ầ":{"ha":833,"x_min":61,"x_max":913,"o":"m 289 -14 q 117 65 174 -14 q 83 278 61 144 l 115 485 q 172 640 131 575 q 276 742 214 706 q 415 778 339 778 q 556 724 510 778 q 588 578 603 671 l 556 618 l 594 618 l 614 764 l 788 764 l 667 0 l 496 0 l 519 146 l 482 146 l 526 186 q 447 40 511 93 q 289 -14 383 -14 m 375 136 q 483 176 440 136 q 538 286 526 215 l 568 478 q 549 588 581 549 q 451 628 517 628 q 342 589 385 628 q 289 478 300 550 l 258 286 q 276 175 246 214 q 375 136 307 136 m 753 1051 l 603 1246 l 774 1246 l 913 1051 l 753 1051 m 226 896 l 447 1090 l 608 1090 l 768 896 l 604 896 l 515 997 l 397 896 l 226 896 z "},"ẩ":{"ha":833,"x_min":61,"x_max":944,"o":"m 289 -14 q 117 65 174 -14 q 83 278 61 144 l 115 485 q 172 640 131 575 q 276 742 214 706 q 415 778 339 778 q 556 724 510 778 q 588 578 603 671 l 556 618 l 594 618 l 614 764 l 788 764 l 667 0 l 496 0 l 519 146 l 482 146 l 526 186 q 447 40 511 93 q 289 -14 383 -14 m 375 136 q 483 176 440 136 q 538 286 526 215 l 568 478 q 549 588 581 549 q 451 628 517 628 q 342 589 385 628 q 289 478 300 550 l 258 286 q 276 175 246 214 q 375 136 307 136 m 696 1051 l 774 1133 q 797 1172 796 1156 q 764 1200 801 1200 l 675 1200 l 692 1303 l 814 1303 q 911 1273 878 1303 q 936 1192 944 1243 q 896 1114 929 1150 l 838 1051 l 696 1051 m 226 896 l 447 1090 l 608 1090 l 768 896 l 604 896 l 515 997 l 397 896 l 226 896 z "},"ẫ":{"ha":833,"x_min":61,"x_max":803,"o":"m 289 -14 q 117 65 174 -14 q 83 278 61 144 l 115 485 q 172 640 131 575 q 276 742 214 706 q 415 778 339 778 q 556 724 510 778 q 588 578 603 671 l 556 618 l 594 618 l 614 764 l 788 764 l 667 0 l 496 0 l 519 146 l 482 146 l 526 186 q 447 40 511 93 q 289 -14 383 -14 m 375 136 q 483 176 440 136 q 538 286 526 215 l 568 478 q 549 588 581 549 q 451 628 517 628 q 342 589 385 628 q 289 478 300 550 l 258 286 q 276 175 246 214 q 375 136 307 136 m 632 1139 q 563 1152 588 1139 q 523 1181 538 1165 q 494 1210 508 1197 q 460 1224 481 1224 q 411 1179 419 1224 l 406 1147 l 299 1147 l 303 1179 q 360 1284 314 1244 q 471 1324 407 1324 q 540 1310 515 1324 q 578 1281 564 1297 q 606 1251 593 1264 q 642 1239 619 1239 q 690 1279 683 1239 l 696 1314 l 803 1314 l 797 1283 q 741 1178 786 1218 q 632 1139 696 1139 m 226 896 l 447 1090 l 608 1090 l 768 896 l 604 896 l 515 997 l 397 896 l 226 896 z "},"ä":{"ha":833,"x_min":61,"x_max":792,"o":"m 289 -14 q 117 65 174 -14 q 83 278 61 144 l 115 485 q 172 640 131 575 q 276 742 214 706 q 415 778 339 778 q 556 724 510 778 q 588 578 603 671 l 556 618 l 594 618 l 614 764 l 788 764 l 667 0 l 496 0 l 519 146 l 482 146 l 526 186 q 447 40 511 93 q 289 -14 383 -14 m 375 136 q 483 176 440 136 q 538 286 526 215 l 568 478 q 549 588 581 549 q 451 628 517 628 q 342 589 385 628 q 289 478 300 550 l 258 286 q 276 175 246 214 q 375 136 307 136 m 667 892 q 597 919 621 892 q 581 992 574 946 q 621 1065 589 1038 q 699 1092 653 1092 q 769 1065 746 1092 q 785 992 792 1038 q 746 919 778 946 q 667 892 714 892 m 340 892 q 272 919 294 892 q 254 992 249 946 q 294 1065 263 1038 q 372 1092 326 1092 q 443 1065 419 1092 q 458 992 467 1038 q 419 919 451 946 q 340 892 388 892 z "},"ạ":{"ha":833,"x_min":61,"x_max":788,"o":"m 289 -14 q 117 65 174 -14 q 83 278 61 144 l 115 485 q 172 640 131 575 q 276 742 214 706 q 415 778 339 778 q 556 724 510 778 q 588 578 603 671 l 556 618 l 594 618 l 614 764 l 788 764 l 667 0 l 496 0 l 519 146 l 482 146 l 526 186 q 447 40 511 93 q 289 -14 383 -14 m 375 136 q 483 176 440 136 q 538 286 526 215 l 568 478 q 549 588 581 549 q 451 628 517 628 q 342 589 385 628 q 289 478 300 550 l 258 286 q 276 175 246 214 q 375 136 307 136 m 313 -312 q 235 -285 261 -312 q 214 -212 208 -258 q 258 -138 222 -165 q 346 -111 293 -111 q 424 -138 397 -111 q 443 -212 450 -165 q 401 -285 436 -258 q 313 -312 365 -312 z "},"à":{"ha":833,"x_min":61,"x_max":788,"o":"m 289 -14 q 117 65 174 -14 q 83 278 61 144 l 115 485 q 172 640 131 575 q 276 742 214 706 q 415 778 339 778 q 556 724 510 778 q 588 578 603 671 l 556 618 l 594 618 l 614 764 l 788 764 l 667 0 l 496 0 l 519 146 l 482 146 l 526 186 q 447 40 511 93 q 289 -14 383 -14 m 375 136 q 483 176 440 136 q 538 286 526 215 l 568 478 q 549 588 581 549 q 451 628 517 628 q 342 589 385 628 q 289 478 300 550 l 258 286 q 276 175 246 214 q 375 136 307 136 m 438 896 l 307 1090 l 490 1090 l 608 896 l 438 896 z "},"ả":{"ha":833,"x_min":61,"x_max":788,"o":"m 289 -14 q 117 65 174 -14 q 83 278 61 144 l 115 485 q 172 640 131 575 q 276 742 214 706 q 415 778 339 778 q 556 724 510 778 q 588 578 603 671 l 556 618 l 594 618 l 614 764 l 788 764 l 667 0 l 496 0 l 519 146 l 482 146 l 526 186 q 447 40 511 93 q 289 -14 383 -14 m 375 136 q 483 176 440 136 q 538 286 526 215 l 568 478 q 549 588 581 549 q 451 628 517 628 q 342 589 385 628 q 289 478 300 550 l 258 286 q 276 175 246 214 q 375 136 307 136 m 425 896 l 507 979 q 526 1003 519 993 q 535 1021 533 1013 q 500 1047 539 1047 l 396 1047 l 413 1153 l 558 1153 q 650 1123 618 1153 q 674 1040 682 1093 q 660 998 671 1019 q 633 960 650 976 l 572 896 l 425 896 z "},"ā":{"ha":833,"x_min":61,"x_max":788,"o":"m 289 -14 q 117 65 174 -14 q 83 278 61 144 l 115 485 q 172 640 131 575 q 276 742 214 706 q 415 778 339 778 q 556 724 510 778 q 588 578 603 671 l 556 618 l 594 618 l 614 764 l 788 764 l 667 0 l 496 0 l 519 146 l 482 146 l 526 186 q 447 40 511 93 q 289 -14 383 -14 m 375 136 q 483 176 440 136 q 538 286 526 215 l 568 478 q 549 588 581 549 q 451 628 517 628 q 342 589 385 628 q 289 478 300 550 l 258 286 q 276 175 246 214 q 375 136 307 136 m 269 918 l 290 1051 l 767 1051 l 747 918 l 269 918 z "},"ą":{"ha":833,"x_min":61,"x_max":788,"o":"m 560 -300 q 438 -260 479 -300 q 407 -157 396 -219 q 456 -67 414 -111 q 574 15 499 -22 l 667 0 q 589 -70 613 -42 q 561 -121 565 -99 q 574 -163 558 -146 q 621 -181 589 -181 l 711 -181 l 693 -300 l 560 -300 m 289 -14 q 117 65 174 -14 q 83 278 61 144 l 115 485 q 172 640 131 575 q 276 742 214 706 q 415 778 339 778 q 556 724 510 778 q 588 578 603 671 l 556 618 l 594 618 l 614 764 l 788 764 l 667 0 l 496 0 l 519 146 l 482 146 l 526 186 q 447 40 511 93 q 289 -14 383 -14 m 375 136 q 483 176 440 136 q 538 286 526 215 l 568 478 q 549 588 581 549 q 451 628 517 628 q 342 589 385 628 q 289 478 300 550 l 258 286 q 276 175 246 214 q 375 136 307 136 z "},"å":{"ha":833,"x_min":61,"x_max":788,"o":"m 289 -14 q 117 65 174 -14 q 83 278 61 144 l 115 485 q 172 640 131 575 q 276 742 214 706 q 415 778 339 778 q 556 724 510 778 q 588 578 603 671 l 556 618 l 594 618 l 614 764 l 788 764 l 667 0 l 496 0 l 519 146 l 482 146 l 526 186 q 447 40 511 93 q 289 -14 383 -14 m 375 136 q 483 176 440 136 q 538 286 526 215 l 568 478 q 549 588 581 549 q 451 628 517 628 q 342 589 385 628 q 289 478 300 550 l 258 286 q 276 175 246 214 q 375 136 307 136 m 494 838 q 370 884 413 838 q 339 1006 328 931 q 408 1128 350 1082 q 549 1175 465 1175 q 674 1128 631 1175 q 704 1006 717 1082 q 635 884 693 931 q 494 838 578 838 m 510 925 q 574 947 547 925 q 606 1006 600 969 q 592 1065 611 1043 q 535 1088 572 1088 q 471 1065 497 1088 q 439 1006 444 1043 q 453 947 433 969 q 510 925 472 925 z "},"ã":{"ha":833,"x_min":61,"x_max":788,"o":"m 289 -14 q 117 65 174 -14 q 83 278 61 144 l 115 485 q 172 640 131 575 q 276 742 214 706 q 415 778 339 778 q 556 724 510 778 q 588 578 603 671 l 556 618 l 594 618 l 614 764 l 788 764 l 667 0 l 496 0 l 519 146 l 482 146 l 526 186 q 447 40 511 93 q 289 -14 383 -14 m 375 136 q 483 176 440 136 q 538 286 526 215 l 568 478 q 549 588 581 549 q 451 628 517 628 q 342 589 385 628 q 289 478 300 550 l 258 286 q 276 175 246 214 q 375 136 307 136 m 601 890 q 533 903 558 890 q 493 935 508 917 q 463 966 478 953 q 428 979 449 979 q 396 967 410 979 q 378 933 382 956 l 372 897 l 267 897 l 274 943 q 331 1053 285 1011 q 439 1096 376 1096 q 507 1083 482 1096 q 547 1051 532 1069 q 576 1020 561 1033 q 611 1007 590 1007 q 644 1017 631 1007 q 661 1050 657 1028 l 667 1089 l 774 1089 l 767 1043 q 710 933 756 975 q 601 890 665 890 z "},"æ":{"ha":833,"x_min":4,"x_max":829,"o":"m 174 -14 q 47 42 89 -14 q 18 189 4 97 l 29 264 q 112 403 43 351 q 282 456 181 456 l 358 456 l 376 563 q 368 631 383 608 q 317 654 353 654 q 258 631 282 654 q 226 567 233 608 l 85 567 q 163 720 100 663 q 314 778 225 778 q 399 760 367 778 q 445 718 431 743 q 460 671 460 693 l 468 671 q 497 718 475 693 q 556 760 519 743 q 646 778 593 778 q 783 719 738 778 q 813 564 829 661 l 779 350 l 482 350 l 458 200 q 469 134 451 158 q 521 110 486 110 q 581 131 557 110 q 611 189 606 151 l 754 189 q 675 42 740 99 q 519 -14 610 -14 q 435 3 467 -14 q 390 46 404 21 q 376 93 376 71 l 367 93 q 336 46 360 71 q 272 3 313 21 q 174 -14 232 -14 m 228 110 q 288 134 264 110 q 319 200 313 158 l 343 350 l 267 350 q 206 327 231 350 q 175 264 182 304 l 163 189 q 174 131 157 151 q 228 110 192 110 m 499 456 l 653 456 l 671 564 q 660 631 676 607 q 607 654 643 654 q 547 630 571 654 q 515 564 522 606 l 499 456 z "},"ǽ":{"ha":833,"x_min":4,"x_max":829,"o":"m 174 -14 q 47 42 89 -14 q 18 189 4 97 l 29 264 q 112 403 43 351 q 282 456 181 456 l 358 456 l 376 563 q 368 631 383 608 q 317 654 353 654 q 258 631 282 654 q 226 567 233 608 l 85 567 q 163 720 100 663 q 314 778 225 778 q 399 760 367 778 q 445 718 431 743 q 460 671 460 693 l 468 671 q 497 718 475 693 q 556 760 519 743 q 646 778 593 778 q 783 719 738 778 q 813 564 829 661 l 779 350 l 482 350 l 458 200 q 469 134 451 158 q 521 110 486 110 q 581 131 557 110 q 611 189 606 151 l 754 189 q 675 42 740 99 q 519 -14 610 -14 q 435 3 467 -14 q 390 46 404 21 q 376 93 376 71 l 367 93 q 336 46 360 71 q 272 3 313 21 q 174 -14 232 -14 m 228 110 q 288 134 264 110 q 319 200 313 158 l 343 350 l 267 350 q 206 327 231 350 q 175 264 182 304 l 163 189 q 174 131 157 151 q 228 110 192 110 m 499 456 l 653 456 l 671 564 q 660 631 676 607 q 607 654 643 654 q 547 630 571 654 q 515 564 522 606 l 499 456 m 388 896 l 565 1090 l 760 1090 l 569 896 l 388 896 z "},"b":{"ha":833,"x_min":46,"x_max":771,"o":"m 418 -14 q 277 40 324 -14 q 244 186 231 93 l 278 146 l 239 146 l 215 0 l 46 0 l 207 1014 l 381 1014 l 346 800 l 311 618 l 351 618 l 307 578 q 385 724 321 671 q 544 778 450 778 q 715 699 660 778 q 750 485 771 619 l 717 278 q 661 123 703 189 q 557 22 619 57 q 418 -14 494 -14 m 381 136 q 490 175 447 136 q 544 286 533 214 l 575 478 q 556 589 586 550 q 458 628 525 628 q 350 588 393 628 q 294 478 307 549 l 264 286 q 284 176 253 215 q 381 136 315 136 z "},"c":{"ha":833,"x_min":69,"x_max":776,"o":"m 357 -14 q 193 23 260 -14 q 98 127 126 60 q 83 286 69 194 l 114 478 q 179 638 129 571 q 308 741 229 704 q 483 778 386 778 q 702 703 628 778 q 761 501 776 629 l 588 501 q 558 594 592 561 q 460 626 525 626 q 344 588 389 626 q 289 479 300 550 l 257 286 q 278 176 246 215 q 382 138 311 138 q 491 170 447 138 q 549 263 535 203 l 724 263 q 599 60 697 135 q 357 -14 501 -14 z "},"ć":{"ha":833,"x_min":69,"x_max":776,"o":"m 357 -14 q 193 23 260 -14 q 98 127 126 60 q 83 286 69 194 l 114 478 q 179 638 129 571 q 308 741 229 704 q 483 778 386 778 q 702 703 628 778 q 761 501 776 629 l 588 501 q 558 594 592 561 q 460 626 525 626 q 344 588 389 626 q 289 479 300 550 l 257 286 q 278 176 246 215 q 382 138 311 138 q 491 170 447 138 q 549 263 535 203 l 724 263 q 599 60 697 135 q 357 -14 501 -14 m 392 896 l 569 1090 l 764 1090 l 574 896 l 392 896 z "},"č":{"ha":833,"x_min":69,"x_max":804,"o":"m 357 -14 q 193 23 260 -14 q 98 127 126 60 q 83 286 69 194 l 114 478 q 179 638 129 571 q 308 741 229 704 q 483 778 386 778 q 702 703 628 778 q 761 501 776 629 l 588 501 q 558 594 592 561 q 460 626 525 626 q 344 588 389 626 q 289 479 300 550 l 257 286 q 278 176 246 215 q 382 138 311 138 q 491 170 447 138 q 549 263 535 203 l 724 263 q 599 60 697 135 q 357 -14 501 -14 m 422 896 l 263 1090 l 425 1090 l 515 989 l 632 1090 l 804 1090 l 583 896 l 422 896 z "},"ç":{"ha":833,"x_min":69,"x_max":776,"o":"m 168 -300 l 182 -211 l 288 -211 q 344 -195 321 -211 q 368 -161 367 -179 q 335 -115 374 -133 q 225 -96 297 -96 l 293 28 l 385 28 l 344 -51 q 424 -69 383 -56 q 490 -110 465 -83 q 510 -178 515 -137 q 445 -263 501 -226 q 307 -300 389 -300 l 168 -300 m 357 -14 q 193 23 260 -14 q 98 127 126 60 q 83 286 69 194 l 114 478 q 179 638 129 571 q 308 741 229 704 q 483 778 386 778 q 702 703 628 778 q 761 501 776 629 l 588 501 q 558 594 592 561 q 460 626 525 626 q 344 588 389 626 q 289 479 300 550 l 257 286 q 278 176 246 215 q 382 138 311 138 q 491 170 447 138 q 549 263 535 203 l 724 263 q 599 60 697 135 q 357 -14 501 -14 z "},"ĉ":{"ha":833,"x_min":69,"x_max":776,"o":"m 357 -14 q 193 23 260 -14 q 98 127 126 60 q 83 286 69 194 l 114 478 q 179 638 129 571 q 308 741 229 704 q 483 778 386 778 q 702 703 628 778 q 761 501 776 629 l 588 501 q 558 594 592 561 q 460 626 525 626 q 344 588 389 626 q 289 479 300 550 l 257 286 q 278 176 246 215 q 382 138 311 138 q 491 170 447 138 q 549 263 535 203 l 724 263 q 599 60 697 135 q 357 -14 501 -14 m 226 896 l 447 1090 l 608 1090 l 768 896 l 606 896 l 515 997 l 399 896 l 226 896 z "},"ċ":{"ha":833,"x_min":69,"x_max":776,"o":"m 357 -14 q 193 23 260 -14 q 98 127 126 60 q 83 286 69 194 l 114 478 q 179 638 129 571 q 308 741 229 704 q 483 778 386 778 q 702 703 628 778 q 761 501 776 629 l 588 501 q 558 594 592 561 q 460 626 525 626 q 344 588 389 626 q 289 479 300 550 l 257 286 q 278 176 246 215 q 382 138 311 138 q 491 170 447 138 q 549 263 535 203 l 724 263 q 599 60 697 135 q 357 -14 501 -14 m 497 892 q 418 919 444 892 q 399 992 392 946 q 442 1065 407 1038 q 529 1092 476 1092 q 608 1065 581 1092 q 626 992 635 1038 q 585 919 619 946 q 497 892 550 892 z "},"d":{"ha":833,"x_min":63,"x_max":828,"o":"m 289 -14 q 118 65 174 -14 q 83 278 63 144 l 115 485 q 172 640 129 575 q 276 742 214 706 q 415 778 339 778 q 556 724 510 778 q 588 578 603 671 l 556 618 l 594 618 l 619 800 l 654 1014 l 828 1014 l 667 0 l 496 0 l 519 146 l 482 146 l 526 186 q 447 40 511 93 q 289 -14 383 -14 m 375 136 q 483 176 440 136 q 538 286 526 215 l 568 478 q 549 588 581 549 q 451 628 517 628 q 342 589 385 628 q 289 478 300 550 l 258 286 q 276 175 246 214 q 375 136 307 136 z "},"ð":{"ha":833,"x_min":47,"x_max":768,"o":"m 354 -6 q 181 35 251 -6 q 78 147 110 75 q 61 315 47 219 q 123 477 76 408 q 240 584 169 546 q 397 622 311 622 q 475 606 442 622 q 531 568 508 590 q 563 524 553 546 l 575 524 q 560 569 575 533 q 506 674 546 606 l 443 782 l 203 693 l 222 826 l 381 886 l 306 1014 l 485 1014 l 525 943 l 768 1031 l 749 897 l 588 839 l 658 721 q 744 521 721 619 q 751 332 767 422 q 681 153 736 229 q 543 36 626 78 q 354 -6 460 -6 m 378 142 q 510 189 456 142 q 575 315 564 236 q 569 406 585 367 q 519 466 554 444 q 432 488 485 488 q 302 440 356 488 q 235 315 249 393 q 263 189 224 236 q 378 142 301 142 z "},"ď":{"ha":833,"x_min":31,"x_max":946,"o":"m 764 764 l 804 1014 l 946 1014 l 892 764 l 764 764 m 232 -14 q 79 63 128 -14 q 51 271 31 140 l 86 493 q 181 701 107 624 q 358 778 254 778 q 482 724 442 778 q 507 578 522 669 l 474 618 l 514 618 l 538 800 l 572 1014 l 738 1014 l 576 0 l 415 0 l 439 146 l 400 146 l 444 186 q 373 40 431 94 q 232 -14 315 -14 m 317 129 q 408 169 371 129 q 456 279 444 208 l 489 486 q 476 595 500 556 q 397 635 451 635 q 301 595 340 635 q 250 486 261 556 l 217 279 q 233 169 206 208 q 317 129 260 129 z "},"đ":{"ha":833,"x_min":63,"x_max":914,"o":"m 83 278 l 103 401 q 159 557 118 492 q 262 658 200 622 q 400 694 324 694 q 531 652 485 694 q 576 535 578 610 l 581 535 l 604 717 l 614 779 l 401 779 l 419 896 l 632 896 l 651 1014 l 825 1014 l 806 896 l 914 896 l 896 779 l 788 779 l 664 0 l 494 0 l 518 146 l 515 146 q 432 28 492 69 q 288 -14 372 -14 q 118 65 174 -14 q 83 278 63 144 m 258 286 q 277 175 247 214 q 374 136 307 136 q 482 176 439 136 q 536 286 525 215 l 553 394 q 534 505 564 465 q 439 544 504 544 q 330 506 372 544 q 275 394 288 467 l 258 286 z "},"e":{"ha":833,"x_min":69,"x_max":764,"o":"m 354 -14 q 192 24 257 -14 q 98 128 126 61 q 83 286 69 196 l 114 478 q 179 635 129 568 q 306 740 229 703 q 481 778 383 778 q 642 740 576 778 q 735 635 707 703 q 749 478 764 568 l 726 340 l 260 340 l 250 286 q 270 165 239 206 q 378 124 301 124 q 474 144 436 124 q 528 203 513 164 l 700 203 q 626 89 676 138 q 506 13 575 40 q 354 -14 436 -14 m 575 438 l 582 479 q 564 601 594 558 q 458 643 533 643 q 338 600 383 643 q 281 478 293 557 l 276 449 l 590 451 l 575 438 z "},"é":{"ha":833,"x_min":69,"x_max":764,"o":"m 354 -14 q 192 24 257 -14 q 98 128 126 61 q 83 286 69 196 l 114 478 q 179 635 129 568 q 306 740 229 703 q 481 778 383 778 q 642 740 576 778 q 735 635 707 703 q 749 478 764 568 l 726 340 l 260 340 l 250 286 q 270 165 239 206 q 378 124 301 124 q 474 144 436 124 q 528 203 513 164 l 700 203 q 626 89 676 138 q 506 13 575 40 q 354 -14 436 -14 m 575 438 l 582 479 q 564 601 594 558 q 458 643 533 643 q 338 600 383 643 q 281 478 293 557 l 276 449 l 590 451 l 575 438 m 388 896 l 565 1090 l 760 1090 l 569 896 l 388 896 z "},"ĕ":{"ha":833,"x_min":69,"x_max":771,"o":"m 354 -14 q 192 24 257 -14 q 98 128 126 61 q 83 286 69 196 l 114 478 q 179 635 129 568 q 306 740 229 703 q 481 778 383 778 q 642 740 576 778 q 735 635 707 703 q 749 478 764 568 l 726 340 l 260 340 l 250 286 q 270 165 239 206 q 378 124 301 124 q 474 144 436 124 q 528 203 513 164 l 700 203 q 626 89 676 138 q 506 13 575 40 q 354 -14 436 -14 m 575 438 l 582 479 q 564 601 594 558 q 458 643 533 643 q 338 600 383 643 q 281 478 293 557 l 276 449 l 590 451 l 575 438 m 496 885 q 329 942 388 885 q 285 1090 271 999 l 418 1090 q 436 1017 411 1044 q 510 989 461 989 q 593 1017 560 989 q 633 1090 626 1044 l 771 1090 q 681 942 757 999 q 496 885 604 885 z "},"ě":{"ha":833,"x_min":69,"x_max":800,"o":"m 354 -14 q 192 24 257 -14 q 98 128 126 61 q 83 286 69 196 l 114 478 q 179 635 129 568 q 306 740 229 703 q 481 778 383 778 q 642 740 576 778 q 735 635 707 703 q 749 478 764 568 l 726 340 l 260 340 l 250 286 q 270 165 239 206 q 378 124 301 124 q 474 144 436 124 q 528 203 513 164 l 700 203 q 626 89 676 138 q 506 13 575 40 q 354 -14 436 -14 m 575 438 l 582 479 q 564 601 594 558 q 458 643 533 643 q 338 600 383 643 q 281 478 293 557 l 276 449 l 590 451 l 575 438 m 418 896 l 258 1090 l 421 1090 l 511 989 l 628 1090 l 800 1090 l 579 896 l 418 896 z "},"ê":{"ha":833,"x_min":69,"x_max":768,"o":"m 354 -14 q 192 24 257 -14 q 98 128 126 61 q 83 286 69 196 l 114 478 q 179 635 129 568 q 306 740 229 703 q 481 778 383 778 q 642 740 576 778 q 735 635 707 703 q 749 478 764 568 l 726 340 l 260 340 l 250 286 q 270 165 239 206 q 378 124 301 124 q 474 144 436 124 q 528 203 513 164 l 700 203 q 626 89 676 138 q 506 13 575 40 q 354 -14 436 -14 m 575 438 l 582 479 q 564 601 594 558 q 458 643 533 643 q 338 600 383 643 q 281 478 293 557 l 276 449 l 590 451 l 575 438 m 226 896 l 447 1090 l 608 1090 l 768 896 l 606 896 l 515 997 l 399 896 l 226 896 z "},"ế":{"ha":833,"x_min":69,"x_max":1056,"o":"m 354 -14 q 192 24 257 -14 q 98 128 126 61 q 83 286 69 196 l 114 478 q 179 635 129 568 q 306 740 229 703 q 481 778 383 778 q 642 740 576 778 q 735 635 707 703 q 749 478 764 568 l 726 340 l 260 340 l 250 286 q 270 165 239 206 q 378 124 301 124 q 474 144 436 124 q 528 203 513 164 l 700 203 q 626 89 676 138 q 506 13 575 40 q 354 -14 436 -14 m 575 438 l 582 479 q 564 601 594 558 q 458 643 533 643 q 338 600 383 643 q 281 478 293 557 l 276 449 l 590 451 l 575 438 m 682 1051 l 876 1246 l 1056 1246 l 850 1051 l 682 1051 m 226 896 l 447 1090 l 608 1090 l 768 896 l 604 896 l 515 997 l 397 896 l 226 896 z "},"ệ":{"ha":833,"x_min":69,"x_max":774,"o":"m 232 896 l 453 1090 l 614 1090 l 774 896 l 611 896 l 521 997 l 404 896 l 232 896 m 354 -14 q 192 24 257 -14 q 98 128 126 61 q 83 286 69 196 l 114 478 q 179 635 129 568 q 306 740 229 703 q 481 778 383 778 q 642 740 576 778 q 735 635 707 703 q 749 478 764 568 l 726 340 l 260 340 l 250 286 q 270 165 239 206 q 378 124 301 124 q 474 144 436 124 q 528 203 513 164 l 700 203 q 626 89 676 138 q 506 13 575 40 q 354 -14 436 -14 m 575 438 l 582 479 q 564 601 594 558 q 458 643 533 643 q 338 600 383 643 q 281 478 293 557 l 276 449 l 590 451 l 575 438 m 306 -312 q 228 -285 254 -312 q 207 -212 201 -258 q 251 -138 215 -165 q 339 -111 286 -111 q 417 -138 390 -111 q 436 -212 443 -165 q 394 -285 429 -258 q 306 -312 358 -312 z "},"ề":{"ha":833,"x_min":69,"x_max":913,"o":"m 354 -14 q 192 24 257 -14 q 98 128 126 61 q 83 286 69 196 l 114 478 q 179 635 129 568 q 306 740 229 703 q 481 778 383 778 q 642 740 576 778 q 735 635 707 703 q 749 478 764 568 l 726 340 l 260 340 l 250 286 q 270 165 239 206 q 378 124 301 124 q 474 144 436 124 q 528 203 513 164 l 700 203 q 626 89 676 138 q 506 13 575 40 q 354 -14 436 -14 m 575 438 l 582 479 q 564 601 594 558 q 458 643 533 643 q 338 600 383 643 q 281 478 293 557 l 276 449 l 590 451 l 575 438 m 753 1051 l 603 1246 l 774 1246 l 913 1051 l 753 1051 m 226 896 l 447 1090 l 608 1090 l 768 896 l 604 896 l 515 997 l 397 896 l 226 896 z "},"ể":{"ha":833,"x_min":69,"x_max":944,"o":"m 354 -14 q 192 24 257 -14 q 98 128 126 61 q 83 286 69 196 l 114 478 q 179 635 129 568 q 306 740 229 703 q 481 778 383 778 q 642 740 576 778 q 735 635 707 703 q 749 478 764 568 l 726 340 l 260 340 l 250 286 q 270 165 239 206 q 378 124 301 124 q 474 144 436 124 q 528 203 513 164 l 700 203 q 626 89 676 138 q 506 13 575 40 q 354 -14 436 -14 m 575 438 l 582 479 q 564 601 594 558 q 458 643 533 643 q 338 600 383 643 q 281 478 293 557 l 276 449 l 590 451 l 575 438 m 696 1051 l 774 1133 q 797 1172 796 1156 q 764 1200 801 1200 l 675 1200 l 692 1303 l 814 1303 q 911 1273 878 1303 q 936 1192 944 1243 q 896 1114 929 1150 l 838 1051 l 696 1051 m 226 896 l 447 1090 l 608 1090 l 768 896 l 604 896 l 515 997 l 397 896 l 226 896 z "},"ễ":{"ha":833,"x_min":69,"x_max":803,"o":"m 354 -14 q 192 24 257 -14 q 98 128 126 61 q 83 286 69 196 l 114 478 q 179 635 129 568 q 306 740 229 703 q 481 778 383 778 q 642 740 576 778 q 735 635 707 703 q 749 478 764 568 l 726 340 l 260 340 l 250 286 q 270 165 239 206 q 378 124 301 124 q 474 144 436 124 q 528 203 513 164 l 700 203 q 626 89 676 138 q 506 13 575 40 q 354 -14 436 -14 m 575 438 l 582 479 q 564 601 594 558 q 458 643 533 643 q 338 600 383 643 q 281 478 293 557 l 276 449 l 590 451 l 575 438 m 632 1139 q 563 1152 588 1139 q 523 1181 538 1165 q 494 1210 508 1197 q 460 1224 481 1224 q 411 1179 419 1224 l 406 1147 l 299 1147 l 303 1179 q 360 1284 314 1244 q 471 1324 407 1324 q 540 1310 515 1324 q 578 1281 564 1297 q 606 1251 593 1264 q 642 1239 619 1239 q 690 1279 683 1239 l 696 1314 l 803 1314 l 797 1283 q 741 1178 786 1218 q 632 1139 696 1139 m 226 896 l 447 1090 l 608 1090 l 768 896 l 604 896 l 515 997 l 397 896 l 226 896 z "},"ë":{"ha":833,"x_min":69,"x_max":785,"o":"m 354 -14 q 192 24 257 -14 q 98 128 126 61 q 83 286 69 196 l 114 478 q 179 635 129 568 q 306 740 229 703 q 481 778 383 778 q 642 740 576 778 q 735 635 707 703 q 749 478 764 568 l 726 340 l 260 340 l 250 286 q 270 165 239 206 q 378 124 301 124 q 474 144 436 124 q 528 203 513 164 l 700 203 q 626 89 676 138 q 506 13 575 40 q 354 -14 436 -14 m 575 438 l 582 479 q 564 601 594 558 q 458 643 533 643 q 338 600 383 643 q 281 478 293 557 l 276 449 l 590 451 l 575 438 m 660 892 q 590 919 614 892 q 574 992 567 946 q 614 1065 582 1038 q 692 1092 646 1092 q 762 1065 739 1092 q 778 992 785 1038 q 739 919 771 946 q 660 892 707 892 m 333 892 q 265 919 288 892 q 247 992 242 946 q 288 1065 256 1038 q 365 1092 319 1092 q 436 1065 413 1092 q 451 992 460 1038 q 413 919 444 946 q 333 892 381 892 z "},"ė":{"ha":833,"x_min":69,"x_max":764,"o":"m 354 -14 q 192 24 257 -14 q 98 128 126 61 q 83 286 69 196 l 114 478 q 179 635 129 568 q 306 740 229 703 q 481 778 383 778 q 642 740 576 778 q 735 635 707 703 q 749 478 764 568 l 726 340 l 260 340 l 250 286 q 270 165 239 206 q 378 124 301 124 q 474 144 436 124 q 528 203 513 164 l 700 203 q 626 89 676 138 q 506 13 575 40 q 354 -14 436 -14 m 575 438 l 582 479 q 564 601 594 558 q 458 643 533 643 q 338 600 383 643 q 281 478 293 557 l 276 449 l 590 451 l 575 438 m 497 892 q 418 919 444 892 q 399 992 392 946 q 442 1065 407 1038 q 529 1092 476 1092 q 608 1065 581 1092 q 626 992 635 1038 q 585 919 619 946 q 497 892 550 892 z "},"ẹ":{"ha":833,"x_min":69,"x_max":764,"o":"m 354 -14 q 192 24 257 -14 q 98 128 126 61 q 83 286 69 196 l 114 478 q 179 635 129 568 q 306 740 229 703 q 481 778 383 778 q 642 740 576 778 q 735 635 707 703 q 749 478 764 568 l 726 340 l 260 340 l 250 286 q 270 165 239 206 q 378 124 301 124 q 474 144 436 124 q 528 203 513 164 l 700 203 q 626 89 676 138 q 506 13 575 40 q 354 -14 436 -14 m 575 438 l 582 479 q 564 601 594 558 q 458 643 533 643 q 338 600 383 643 q 281 478 293 557 l 276 449 l 590 451 l 575 438 m 306 -312 q 228 -285 254 -312 q 207 -212 201 -258 q 251 -138 215 -165 q 339 -111 286 -111 q 417 -138 390 -111 q 436 -212 443 -165 q 394 -285 429 -258 q 306 -312 358 -312 z "},"è":{"ha":833,"x_min":69,"x_max":764,"o":"m 354 -14 q 192 24 257 -14 q 98 128 126 61 q 83 286 69 196 l 114 478 q 179 635 129 568 q 306 740 229 703 q 481 778 383 778 q 642 740 576 778 q 735 635 707 703 q 749 478 764 568 l 726 340 l 260 340 l 250 286 q 270 165 239 206 q 378 124 301 124 q 474 144 436 124 q 528 203 513 164 l 700 203 q 626 89 676 138 q 506 13 575 40 q 354 -14 436 -14 m 575 438 l 582 479 q 564 601 594 558 q 458 643 533 643 q 338 600 383 643 q 281 478 293 557 l 276 449 l 590 451 l 575 438 m 431 896 l 300 1090 l 483 1090 l 601 896 l 431 896 z "},"ẻ":{"ha":833,"x_min":69,"x_max":764,"o":"m 354 -14 q 192 24 257 -14 q 98 128 126 61 q 83 286 69 196 l 114 478 q 179 635 129 568 q 306 740 229 703 q 481 778 383 778 q 642 740 576 778 q 735 635 707 703 q 749 478 764 568 l 726 340 l 260 340 l 250 286 q 270 165 239 206 q 378 124 301 124 q 474 144 436 124 q 528 203 513 164 l 700 203 q 626 89 676 138 q 506 13 575 40 q 354 -14 436 -14 m 575 438 l 582 479 q 564 601 594 558 q 458 643 533 643 q 338 600 383 643 q 281 478 293 557 l 276 449 l 590 451 l 575 438 m 418 896 l 500 979 q 519 1003 513 993 q 528 1021 526 1013 q 493 1047 532 1047 l 389 1047 l 406 1153 l 551 1153 q 643 1123 611 1153 q 667 1040 675 1093 q 653 998 664 1019 q 626 960 643 976 l 565 896 l 418 896 z "},"ē":{"ha":833,"x_min":69,"x_max":764,"o":"m 354 -14 q 192 24 257 -14 q 98 128 126 61 q 83 286 69 196 l 114 478 q 179 635 129 568 q 306 740 229 703 q 481 778 383 778 q 642 740 576 778 q 735 635 707 703 q 749 478 764 568 l 726 340 l 260 340 l 250 286 q 270 165 239 206 q 378 124 301 124 q 474 144 436 124 q 528 203 513 164 l 700 203 q 626 89 676 138 q 506 13 575 40 q 354 -14 436 -14 m 575 438 l 582 479 q 564 601 594 558 q 458 643 533 643 q 338 600 383 643 q 281 478 293 557 l 276 449 l 590 451 l 575 438 m 263 918 l 283 1051 l 760 1051 l 740 918 l 263 918 z "},"ę":{"ha":833,"x_min":69,"x_max":764,"o":"m 399 -300 q 276 -260 318 -300 q 246 -157 235 -219 q 294 -71 251 -115 q 413 18 336 -26 q 392 -4 408 6 q 354 -14 376 -14 q 192 24 257 -14 q 98 128 126 61 q 83 286 69 196 l 114 478 q 179 635 129 568 q 306 740 229 703 q 481 778 383 778 q 642 740 576 778 q 735 635 707 703 q 749 478 764 568 l 726 340 l 260 340 l 250 286 q 270 165 239 206 q 378 124 301 124 q 474 144 436 124 q 528 203 513 164 l 700 203 q 639 104 679 147 q 546 32 599 61 l 488 -14 q 426 -72 447 -44 q 400 -121 404 -99 q 413 -163 397 -146 q 460 -181 428 -181 l 550 -181 l 532 -300 l 399 -300 m 572 419 l 582 479 q 564 601 594 558 q 458 643 533 643 q 338 600 383 643 q 281 478 293 557 l 276 449 l 608 451 l 572 419 z "},"ẽ":{"ha":833,"x_min":69,"x_max":767,"o":"m 354 -14 q 192 24 257 -14 q 98 128 126 61 q 83 286 69 196 l 114 478 q 179 635 129 568 q 306 740 229 703 q 481 778 383 778 q 642 740 576 778 q 735 635 707 703 q 749 478 764 568 l 726 340 l 260 340 l 250 286 q 270 165 239 206 q 378 124 301 124 q 474 144 436 124 q 528 203 513 164 l 700 203 q 626 89 676 138 q 506 13 575 40 q 354 -14 436 -14 m 575 438 l 582 479 q 564 601 594 558 q 458 643 533 643 q 338 600 383 643 q 281 478 293 557 l 276 449 l 590 451 l 575 438 m 594 890 q 526 903 551 890 q 486 935 501 917 q 456 966 471 953 q 421 979 442 979 q 389 967 403 979 q 371 933 375 956 l 365 897 l 260 897 l 267 943 q 324 1053 278 1011 q 432 1096 369 1096 q 500 1083 475 1096 q 540 1051 525 1069 q 569 1020 554 1033 q 604 1007 583 1007 q 637 1017 624 1007 q 654 1050 650 1028 l 660 1089 l 767 1089 l 760 1043 q 703 933 749 975 q 594 890 658 890 z "},"ə":{"ha":833,"x_min":71,"x_max":763,"o":"m 351 -14 q 191 24 256 -14 q 99 128 126 61 q 85 286 71 196 l 107 424 l 572 424 l 581 478 q 562 599 593 558 q 454 640 531 640 q 359 620 396 640 q 304 561 322 600 l 133 561 q 263 719 169 660 q 478 778 356 778 q 641 740 576 778 q 734 635 706 703 q 747 478 763 568 l 717 286 q 653 128 703 196 q 527 24 604 61 q 351 -14 450 -14 m 375 122 q 494 165 450 122 q 550 286 538 207 l 554 315 l 244 315 l 258 328 l 251 286 q 269 165 239 207 q 375 122 300 122 z "},"f":{"ha":833,"x_min":-76,"x_max":869,"o":"m -76 -250 l -53 -106 l 92 -106 q 183 -77 149 -106 q 225 4 217 -49 l 307 522 l 96 522 l 121 679 l 332 679 l 349 783 q 399 906 360 854 q 499 985 438 957 q 639 1014 561 1014 l 869 1014 l 846 861 l 618 861 q 553 840 578 861 q 521 779 528 819 l 506 679 l 799 679 l 774 522 l 481 522 l 397 0 q 293 -183 381 -115 q 72 -250 206 -250 l -76 -250 z "},"g":{"ha":833,"x_min":71,"x_max":788,"o":"m 110 -250 l 133 -106 l 360 -106 q 452 -77 418 -106 q 496 4 486 -49 l 504 61 l 531 204 l 492 204 l 536 242 q 457 97 519 149 q 301 44 394 44 q 128 124 185 44 q 93 338 71 203 l 117 486 q 172 640 131 575 q 277 742 214 706 q 417 778 340 778 q 558 726 511 778 q 589 581 604 674 l 556 618 l 594 618 l 614 764 l 788 764 l 667 0 q 560 -183 647 -115 q 340 -250 474 -250 l 110 -250 m 383 194 q 493 234 450 194 q 549 344 536 274 l 568 478 q 549 588 581 549 q 453 628 518 628 q 343 589 385 628 q 289 478 301 550 l 268 344 q 287 233 257 272 q 383 194 317 194 z "},"ǵ":{"ha":833,"x_min":71,"x_max":788,"o":"m 110 -250 l 133 -106 l 360 -106 q 452 -77 418 -106 q 496 4 486 -49 l 504 61 l 531 204 l 492 204 l 536 242 q 457 97 519 149 q 301 44 394 44 q 128 124 185 44 q 93 338 71 203 l 117 486 q 172 640 131 575 q 277 742 214 706 q 417 778 340 778 q 558 726 511 778 q 589 581 604 674 l 556 618 l 594 618 l 614 764 l 788 764 l 667 0 q 560 -183 647 -115 q 340 -250 474 -250 l 110 -250 m 383 194 q 493 234 450 194 q 549 344 536 274 l 568 478 q 549 588 581 549 q 453 628 518 628 q 343 589 385 628 q 289 478 301 550 l 268 344 q 287 233 257 272 q 383 194 317 194 m 390 896 l 568 1090 l 763 1090 l 572 896 l 390 896 z "},"ğ":{"ha":833,"x_min":71,"x_max":788,"o":"m 110 -250 l 133 -106 l 360 -106 q 452 -77 418 -106 q 496 4 486 -49 l 504 61 l 531 204 l 492 204 l 536 242 q 457 97 519 149 q 301 44 394 44 q 128 124 185 44 q 93 338 71 203 l 117 486 q 172 640 131 575 q 277 742 214 706 q 417 778 340 778 q 558 726 511 778 q 589 581 604 674 l 556 618 l 594 618 l 614 764 l 788 764 l 667 0 q 560 -183 647 -115 q 340 -250 474 -250 l 110 -250 m 383 194 q 493 234 450 194 q 549 344 536 274 l 568 478 q 549 588 581 549 q 453 628 518 628 q 343 589 385 628 q 289 478 301 550 l 268 344 q 287 233 257 272 q 383 194 317 194 m 492 885 q 325 942 383 885 q 281 1090 267 999 l 414 1090 q 432 1017 407 1044 q 506 989 457 989 q 589 1017 556 989 q 629 1090 622 1044 l 767 1090 q 676 942 753 999 q 492 885 600 885 z "},"ǧ":{"ha":833,"x_min":71,"x_max":796,"o":"m 110 -250 l 133 -106 l 360 -106 q 452 -77 418 -106 q 496 4 486 -49 l 504 61 l 531 204 l 492 204 l 536 242 q 457 97 519 149 q 301 44 394 44 q 128 124 185 44 q 93 338 71 203 l 117 486 q 172 640 131 575 q 277 742 214 706 q 417 778 340 778 q 558 726 511 778 q 589 581 604 674 l 556 618 l 594 618 l 614 764 l 788 764 l 667 0 q 560 -183 647 -115 q 340 -250 474 -250 l 110 -250 m 383 194 q 493 234 450 194 q 549 344 536 274 l 568 478 q 549 588 581 549 q 453 628 518 628 q 343 589 385 628 q 289 478 301 550 l 268 344 q 287 233 257 272 q 383 194 317 194 m 414 896 l 254 1090 l 417 1090 l 507 989 l 624 1090 l 796 1090 l 575 896 l 414 896 z "},"ĝ":{"ha":833,"x_min":71,"x_max":788,"o":"m 110 -250 l 133 -106 l 360 -106 q 452 -77 418 -106 q 496 4 486 -49 l 504 61 l 531 204 l 492 204 l 536 242 q 457 97 519 149 q 301 44 394 44 q 128 124 185 44 q 93 338 71 203 l 117 486 q 172 640 131 575 q 277 742 214 706 q 417 778 340 778 q 558 726 511 778 q 589 581 604 674 l 556 618 l 594 618 l 614 764 l 788 764 l 667 0 q 560 -183 647 -115 q 340 -250 474 -250 l 110 -250 m 383 194 q 493 234 450 194 q 549 344 536 274 l 568 478 q 549 588 581 549 q 453 628 518 628 q 343 589 385 628 q 289 478 301 550 l 268 344 q 287 233 257 272 q 383 194 317 194 m 222 896 l 443 1090 l 604 1090 l 764 896 l 601 896 l 511 997 l 394 896 l 222 896 z "},"ģ":{"ha":833,"x_min":71,"x_max":788,"o":"m 110 -250 l 133 -106 l 360 -106 q 452 -77 418 -106 q 496 4 486 -49 l 504 61 l 531 204 l 492 204 l 536 242 q 457 97 519 149 q 301 44 394 44 q 128 124 185 44 q 93 338 71 203 l 117 486 q 172 640 131 575 q 277 742 214 706 q 417 778 340 778 q 558 726 511 778 q 589 581 604 674 l 556 618 l 594 618 l 614 764 l 788 764 l 667 0 q 560 -183 647 -115 q 340 -250 474 -250 l 110 -250 m 383 194 q 493 234 450 194 q 549 344 536 274 l 568 478 q 549 588 581 549 q 453 628 518 628 q 343 589 385 628 q 289 478 301 550 l 268 344 q 287 233 257 272 q 383 194 317 194 m 725 1222 l 563 896 l 351 896 l 583 1222 l 725 1222 z "},"ġ":{"ha":833,"x_min":71,"x_max":788,"o":"m 110 -250 l 133 -106 l 360 -106 q 452 -77 418 -106 q 496 4 486 -49 l 504 61 l 531 204 l 492 204 l 536 242 q 457 97 519 149 q 301 44 394 44 q 128 124 185 44 q 93 338 71 203 l 117 486 q 172 640 131 575 q 277 742 214 706 q 417 778 340 778 q 558 726 511 778 q 589 581 604 674 l 556 618 l 594 618 l 614 764 l 788 764 l 667 0 q 560 -183 647 -115 q 340 -250 474 -250 l 110 -250 m 383 194 q 493 234 450 194 q 549 344 536 274 l 568 478 q 549 588 581 549 q 453 628 518 628 q 343 589 385 628 q 289 478 301 550 l 268 344 q 287 233 257 272 q 383 194 317 194 m 493 892 q 414 919 440 892 q 394 992 388 946 q 438 1065 403 1038 q 525 1092 472 1092 q 603 1065 576 1092 q 622 992 631 1038 q 581 919 615 946 q 493 892 546 892 z "},"h":{"ha":833,"x_min":46,"x_max":768,"o":"m 46 0 l 207 1014 l 381 1014 l 340 764 l 313 618 l 360 618 l 307 578 q 385 725 322 672 q 544 778 449 778 q 713 703 657 778 q 747 501 768 628 l 668 0 l 494 0 l 571 483 q 551 590 582 553 q 457 628 521 628 q 349 589 392 628 q 294 478 307 550 l 219 0 l 46 0 z "},"ħ":{"ha":833,"x_min":46,"x_max":754,"o":"m 63 779 l 81 896 l 188 896 l 207 1014 l 381 1014 l 361 896 l 575 896 l 557 779 l 343 779 l 328 681 l 300 535 l 303 535 q 386 652 326 610 q 531 694 446 694 q 699 619 643 694 q 735 418 754 544 l 668 0 l 494 0 l 558 400 q 539 507 569 469 q 444 544 508 544 q 336 506 379 544 q 282 394 293 467 l 219 0 l 46 0 l 169 779 l 63 779 z "},"ĥ":{"ha":833,"x_min":18,"x_max":768,"o":"m 46 0 l 207 1014 l 381 1014 l 340 764 l 313 618 l 360 618 l 307 578 q 385 725 322 672 q 544 778 449 778 q 713 703 657 778 q 747 501 768 628 l 668 0 l 494 0 l 571 483 q 551 590 582 553 q 457 628 521 628 q 349 589 392 628 q 294 478 307 550 l 219 0 l 46 0 m 18 1118 l 239 1313 l 400 1313 l 560 1118 l 397 1118 l 307 1219 l 190 1118 l 18 1118 z "},"i":{"ha":833,"x_min":42,"x_max":736,"o":"m 42 0 l 67 158 l 333 158 l 406 607 l 172 607 l 197 764 l 594 764 l 500 158 l 736 158 l 711 0 l 42 0 m 522 892 q 443 919 469 892 q 424 992 417 946 q 467 1065 432 1038 q 554 1092 501 1092 q 633 1065 606 1092 q 651 992 660 1038 q 610 919 644 946 q 522 892 575 892 z "},"ı":{"ha":833,"x_min":42,"x_max":736,"o":"m 42 0 l 67 158 l 333 158 l 406 607 l 172 607 l 197 764 l 594 764 l 500 158 l 736 158 l 711 0 l 42 0 z "},"í":{"ha":833,"x_min":42,"x_max":785,"o":"m 42 0 l 67 158 l 333 158 l 406 607 l 172 607 l 197 764 l 594 764 l 500 158 l 736 158 l 711 0 l 42 0 m 413 896 l 590 1090 l 785 1090 l 594 896 l 413 896 z "},"ĭ":{"ha":833,"x_min":42,"x_max":796,"o":"m 42 0 l 67 158 l 333 158 l 406 607 l 172 607 l 197 764 l 594 764 l 500 158 l 736 158 l 711 0 l 42 0 m 521 885 q 354 942 413 885 q 310 1090 296 999 l 443 1090 q 461 1017 436 1044 q 535 989 486 989 q 618 1017 585 989 q 658 1090 651 1044 l 796 1090 q 706 942 782 999 q 521 885 629 885 z "},"î":{"ha":833,"x_min":42,"x_max":793,"o":"m 42 0 l 67 158 l 333 158 l 406 607 l 172 607 l 197 764 l 594 764 l 500 158 l 736 158 l 711 0 l 42 0 m 251 896 l 472 1090 l 633 1090 l 793 896 l 631 896 l 540 997 l 424 896 l 251 896 z "},"ï":{"ha":833,"x_min":42,"x_max":810,"o":"m 42 0 l 67 158 l 333 158 l 406 607 l 172 607 l 197 764 l 594 764 l 500 158 l 736 158 l 711 0 l 42 0 m 685 892 q 615 919 639 892 q 599 992 592 946 q 639 1065 607 1038 q 717 1092 671 1092 q 787 1065 764 1092 q 803 992 810 1038 q 764 919 796 946 q 685 892 732 892 m 358 892 q 290 919 313 892 q 272 992 267 946 q 313 1065 281 1038 q 390 1092 344 1092 q 461 1065 438 1092 q 476 992 485 1038 q 438 919 469 946 q 358 892 406 892 z "},"ị":{"ha":833,"x_min":42,"x_max":736,"o":"m 42 0 l 67 158 l 333 158 l 406 607 l 172 607 l 197 764 l 594 764 l 500 158 l 736 158 l 711 0 l 42 0 m 522 892 q 443 919 469 892 q 424 992 417 946 q 467 1065 432 1038 q 554 1092 501 1092 q 633 1065 606 1092 q 651 992 660 1038 q 610 919 644 946 q 522 892 575 892 m 331 -312 q 253 -285 279 -312 q 232 -212 226 -258 q 276 -138 240 -165 q 364 -111 311 -111 q 442 -138 415 -111 q 461 -212 468 -165 q 419 -285 454 -258 q 331 -312 383 -312 z "},"ì":{"ha":833,"x_min":42,"x_max":736,"o":"m 42 0 l 67 158 l 333 158 l 406 607 l 172 607 l 197 764 l 594 764 l 500 158 l 736 158 l 711 0 l 42 0 m 456 896 l 325 1090 l 508 1090 l 626 896 l 456 896 z "},"ỉ":{"ha":833,"x_min":42,"x_max":736,"o":"m 42 0 l 67 158 l 333 158 l 406 607 l 172 607 l 197 764 l 594 764 l 500 158 l 736 158 l 711 0 l 42 0 m 440 896 l 522 979 q 542 1003 535 993 q 550 1021 549 1013 q 515 1047 554 1047 l 411 1047 l 428 1153 l 574 1153 q 665 1123 633 1153 q 689 1040 697 1093 q 676 998 686 1019 q 649 960 665 976 l 588 896 l 440 896 z "},"ī":{"ha":833,"x_min":42,"x_max":785,"o":"m 42 0 l 67 158 l 333 158 l 406 607 l 172 607 l 197 764 l 594 764 l 500 158 l 736 158 l 711 0 l 42 0 m 288 918 l 308 1051 l 785 1051 l 765 918 l 288 918 z "},"į":{"ha":833,"x_min":42,"x_max":736,"o":"m 333 -300 q 211 -260 253 -300 q 181 -157 169 -219 q 230 -67 188 -111 q 346 15 272 -22 l 460 15 l 422 -14 q 360 -72 382 -44 q 335 -121 339 -99 q 347 -163 332 -146 q 394 -181 363 -181 l 485 -181 l 467 -300 l 333 -300 m 42 0 l 67 158 l 333 158 l 406 607 l 172 607 l 197 764 l 594 764 l 500 158 l 736 158 l 711 0 l 42 0 m 522 892 q 443 919 469 892 q 424 992 417 946 q 466 1065 431 1038 q 554 1092 501 1092 q 633 1065 606 1092 q 651 992 660 1038 q 609 919 644 946 q 522 892 574 892 z "},"ĩ":{"ha":833,"x_min":42,"x_max":792,"o":"m 42 0 l 67 158 l 333 158 l 406 607 l 172 607 l 197 764 l 594 764 l 500 158 l 736 158 l 711 0 l 42 0 m 619 890 q 551 903 576 890 q 511 935 526 917 q 481 966 496 953 q 446 979 467 979 q 414 967 428 979 q 396 933 400 956 l 390 897 l 285 897 l 292 943 q 349 1053 303 1011 q 457 1096 394 1096 q 525 1083 500 1096 q 565 1051 550 1069 q 594 1020 579 1033 q 629 1007 608 1007 q 662 1017 649 1007 q 679 1050 675 1028 l 685 1089 l 792 1089 l 785 1043 q 728 933 774 975 q 619 890 683 890 z "},"j":{"ha":833,"x_min":13,"x_max":761,"o":"m 13 -250 l 39 -89 l 243 -89 q 356 -51 313 -89 q 410 54 400 -14 l 497 603 l 190 603 l 215 764 l 696 764 l 583 50 q 520 -109 569 -42 q 396 -213 471 -176 q 226 -250 321 -250 l 13 -250 m 624 892 q 544 919 571 892 q 525 992 518 946 q 568 1065 533 1038 q 656 1092 603 1092 q 734 1065 707 1092 q 753 992 761 1038 q 711 919 746 946 q 624 892 676 892 z "},"ȷ":{"ha":833,"x_min":13,"x_max":696,"o":"m 13 -250 l 39 -89 l 243 -89 q 356 -51 313 -89 q 410 54 400 -14 l 497 603 l 190 603 l 215 764 l 696 764 l 583 50 q 520 -109 569 -42 q 396 -213 471 -176 q 226 -250 321 -250 l 13 -250 z "},"ĵ":{"ha":833,"x_min":13,"x_max":811,"o":"m 13 -250 l 39 -89 l 243 -89 q 356 -51 313 -89 q 410 54 400 -14 l 497 603 l 190 603 l 215 764 l 696 764 l 583 50 q 520 -109 569 -42 q 396 -213 471 -176 q 226 -250 321 -250 l 13 -250 m 269 896 l 490 1090 l 651 1090 l 811 896 l 649 896 l 558 997 l 442 896 l 269 896 z "},"k":{"ha":833,"x_min":50,"x_max":840,"o":"m 50 0 l 211 1014 l 385 1014 l 297 464 l 408 464 l 642 764 l 840 764 l 550 388 l 724 0 l 532 0 l 394 317 l 274 317 l 224 0 l 50 0 z "},"ķ":{"ha":833,"x_min":50,"x_max":840,"o":"m 50 0 l 211 1014 l 385 1014 l 297 464 l 408 464 l 642 764 l 840 764 l 550 388 l 724 0 l 532 0 l 394 317 l 274 317 l 224 0 l 50 0 m 138 -333 l 301 -132 l 485 -132 l 299 -333 l 138 -333 z "},"ĸ":{"ha":833,"x_min":51,"x_max":840,"o":"m 51 0 l 172 764 l 346 764 l 297 464 l 408 464 l 642 764 l 840 764 l 550 389 l 724 0 l 529 0 l 393 317 l 275 317 l 225 0 l 51 0 z "},"l":{"ha":833,"x_min":118,"x_max":739,"o":"m 467 0 q 295 68 353 0 q 256 247 238 136 l 351 857 l 118 857 l 143 1014 l 550 1014 l 429 247 q 442 181 422 206 q 503 157 463 157 l 739 157 l 715 0 l 467 0 z "},"ĺ":{"ha":833,"x_min":118,"x_max":739,"o":"m 467 0 q 295 68 353 0 q 256 247 238 136 l 351 857 l 118 857 l 143 1014 l 550 1014 l 429 247 q 442 181 422 206 q 503 157 463 157 l 739 157 l 715 0 l 467 0 m 365 1125 l 543 1319 l 738 1319 l 547 1125 l 365 1125 z "},"ľ":{"ha":833,"x_min":118,"x_max":889,"o":"m 467 0 q 295 68 353 0 q 256 247 238 136 l 351 857 l 118 857 l 143 1014 l 550 1014 l 429 247 q 442 181 422 206 q 503 157 463 157 l 739 157 l 715 0 l 467 0 m 672 764 l 726 1014 l 889 1014 l 821 764 l 672 764 z "},"ļ":{"ha":833,"x_min":118,"x_max":739,"o":"m 467 0 q 295 68 353 0 q 256 247 238 136 l 351 857 l 118 857 l 143 1014 l 550 1014 l 429 247 q 442 181 422 206 q 503 157 463 157 l 739 157 l 715 0 l 467 0 m 147 -333 l 311 -132 l 494 -132 l 308 -333 l 147 -333 z "},"ŀ":{"ha":833,"x_min":90,"x_max":874,"o":"m 439 0 q 267 68 325 0 q 228 247 210 136 l 324 857 l 90 857 l 115 1014 l 522 1014 l 401 247 q 415 181 394 206 q 475 157 435 157 l 711 157 l 688 0 l 439 0 z "},"ł":{"ha":833,"x_min":118,"x_max":739,"o":"m 139 319 l 139 479 l 661 778 l 661 618 l 139 319 m 467 0 q 295 68 353 0 q 256 247 238 136 l 351 857 l 118 857 l 143 1014 l 550 1014 l 429 247 q 442 181 422 206 q 503 157 463 157 l 739 157 l 715 0 l 467 0 z "},"m":{"ha":833,"x_min":11,"x_max":808,"o":"m 11 0 l 132 764 l 274 764 l 257 661 l 288 661 l 260 636 q 313 739 271 700 q 411 778 354 778 q 499 728 472 778 q 511 593 525 678 l 492 661 l 539 661 l 517 636 q 569 739 528 700 q 671 778 611 778 q 775 725 742 778 q 793 582 808 672 l 701 0 l 549 0 l 639 575 q 633 634 646 613 q 588 656 619 656 q 537 635 557 656 q 510 575 517 614 l 418 0 l 293 0 l 385 575 q 377 635 390 614 q 332 656 364 656 q 281 635 300 656 q 256 575 261 614 l 164 0 l 11 0 z "},"n":{"ha":833,"x_min":46,"x_max":768,"o":"m 46 0 l 167 764 l 336 764 l 313 618 l 360 618 l 307 578 q 385 725 322 672 q 544 778 449 778 q 713 703 657 778 q 747 501 768 628 l 668 0 l 494 0 l 571 483 q 551 590 582 553 q 457 628 521 628 q 349 589 392 628 q 294 478 307 550 l 219 0 l 46 0 z "},"ń":{"ha":833,"x_min":46,"x_max":768,"o":"m 46 0 l 167 764 l 336 764 l 313 618 l 360 618 l 307 578 q 385 725 322 672 q 544 778 449 778 q 713 703 657 778 q 747 501 768 628 l 668 0 l 494 0 l 571 483 q 551 590 582 553 q 457 628 521 628 q 349 589 392 628 q 294 478 307 550 l 219 0 l 46 0 m 346 896 l 524 1090 l 718 1090 l 528 896 l 346 896 z "},"ŉ":{"ha":833,"x_min":-126,"x_max":768,"o":"m 46 0 l 167 764 l 336 764 l 313 618 l 360 618 l 307 578 q 385 725 322 672 q 544 778 449 778 q 713 703 657 778 q 747 501 768 628 l 668 0 l 494 0 l 571 483 q 551 590 582 553 q 457 628 521 628 q 349 589 392 628 q 294 478 307 550 l 219 0 l 46 0 m -126 896 l 38 1097 l 221 1097 l 35 896 l -126 896 z "},"ň":{"ha":833,"x_min":46,"x_max":800,"o":"m 46 0 l 167 764 l 336 764 l 313 618 l 360 618 l 307 578 q 385 725 322 672 q 544 778 449 778 q 713 703 657 778 q 747 501 768 628 l 668 0 l 494 0 l 571 483 q 551 590 582 553 q 457 628 521 628 q 349 589 392 628 q 294 478 307 550 l 219 0 l 46 0 m 418 896 l 258 1090 l 421 1090 l 511 989 l 628 1090 l 800 1090 l 579 896 l 418 896 z "},"ņ":{"ha":833,"x_min":46,"x_max":768,"o":"m 46 0 l 167 764 l 336 764 l 313 618 l 360 618 l 307 578 q 385 725 322 672 q 544 778 449 778 q 713 703 657 778 q 747 501 768 628 l 668 0 l 494 0 l 571 483 q 551 590 582 553 q 457 628 521 628 q 349 589 392 628 q 294 478 307 550 l 219 0 l 46 0 m 138 -333 l 301 -132 l 485 -132 l 299 -333 l 138 -333 z "},"ŋ":{"ha":833,"x_min":47,"x_max":767,"o":"m 238 -250 l 263 -85 l 349 -85 q 450 -51 410 -85 q 500 42 490 -17 l 571 483 q 551 590 581 553 q 457 628 521 628 q 350 589 392 628 q 296 478 308 550 l 221 0 l 47 0 l 168 764 l 338 764 l 314 618 l 360 618 l 308 578 q 386 725 324 672 q 544 778 449 778 q 712 703 657 778 q 747 501 767 628 l 672 29 q 610 -117 660 -54 q 483 -215 560 -181 q 314 -250 407 -250 l 238 -250 z "},"ñ":{"ha":833,"x_min":46,"x_max":768,"o":"m 46 0 l 167 764 l 336 764 l 313 618 l 360 618 l 307 578 q 385 725 322 672 q 544 778 449 778 q 713 703 657 778 q 747 501 768 628 l 668 0 l 494 0 l 571 483 q 551 590 582 553 q 457 628 521 628 q 349 589 392 628 q 294 478 307 550 l 219 0 l 46 0 m 594 890 q 526 903 551 890 q 486 935 501 917 q 456 966 471 953 q 421 979 442 979 q 389 967 403 979 q 371 933 375 956 l 365 897 l 260 897 l 267 943 q 324 1053 278 1011 q 432 1096 369 1096 q 500 1083 475 1096 q 540 1051 525 1069 q 569 1020 554 1033 q 604 1007 583 1007 q 637 1017 624 1007 q 654 1050 650 1028 l 660 1089 l 767 1089 l 760 1043 q 703 933 749 975 q 594 890 658 890 z "},"o":{"ha":833,"x_min":69,"x_max":764,"o":"m 353 -14 q 190 23 256 -14 q 97 127 125 60 q 83 286 69 194 l 114 478 q 178 637 129 569 q 305 741 228 704 q 479 778 382 778 q 642 741 578 778 q 735 637 707 704 q 749 479 764 569 l 718 286 q 654 127 704 194 q 528 23 604 60 q 353 -14 451 -14 m 378 138 q 490 176 447 138 q 544 286 533 214 l 575 478 q 556 588 586 550 q 454 626 525 626 q 343 588 386 626 q 288 478 300 550 l 257 286 q 277 176 246 214 q 378 138 308 138 z "},"ó":{"ha":833,"x_min":69,"x_max":764,"o":"m 353 -14 q 190 23 256 -14 q 97 127 125 60 q 83 286 69 194 l 114 478 q 178 637 129 569 q 305 741 228 704 q 479 778 382 778 q 642 741 578 778 q 735 637 707 704 q 749 479 764 569 l 718 286 q 654 127 704 194 q 528 23 604 60 q 353 -14 451 -14 m 378 138 q 490 176 447 138 q 544 286 533 214 l 575 478 q 556 588 586 550 q 454 626 525 626 q 343 588 386 626 q 288 478 300 550 l 257 286 q 277 176 246 214 q 378 138 308 138 m 388 896 l 565 1090 l 760 1090 l 569 896 l 388 896 z "},"ŏ":{"ha":833,"x_min":69,"x_max":771,"o":"m 353 -14 q 190 23 256 -14 q 97 127 125 60 q 83 286 69 194 l 114 478 q 178 637 129 569 q 305 741 228 704 q 479 778 382 778 q 642 741 578 778 q 735 637 707 704 q 749 479 764 569 l 718 286 q 654 127 704 194 q 528 23 604 60 q 353 -14 451 -14 m 378 138 q 490 176 447 138 q 544 286 533 214 l 575 478 q 556 588 586 550 q 454 626 525 626 q 343 588 386 626 q 288 478 300 550 l 257 286 q 277 176 246 214 q 378 138 308 138 m 496 885 q 329 942 388 885 q 285 1090 271 999 l 418 1090 q 436 1017 411 1044 q 510 989 461 989 q 593 1017 560 989 q 633 1090 626 1044 l 771 1090 q 681 942 757 999 q 496 885 604 885 z "},"ô":{"ha":833,"x_min":69,"x_max":768,"o":"m 353 -14 q 190 23 256 -14 q 97 127 125 60 q 83 286 69 194 l 114 478 q 178 637 129 569 q 305 741 228 704 q 479 778 382 778 q 642 741 578 778 q 735 637 707 704 q 749 479 764 569 l 718 286 q 654 127 704 194 q 528 23 604 60 q 353 -14 451 -14 m 378 138 q 490 176 447 138 q 544 286 533 214 l 575 478 q 556 588 586 550 q 454 626 525 626 q 343 588 386 626 q 288 478 300 550 l 257 286 q 277 176 246 214 q 378 138 308 138 m 226 896 l 447 1090 l 608 1090 l 768 896 l 606 896 l 515 997 l 399 896 l 226 896 z "},"ố":{"ha":833,"x_min":69,"x_max":1056,"o":"m 353 -14 q 190 23 256 -14 q 97 127 125 60 q 83 286 69 194 l 114 478 q 178 637 129 569 q 305 741 228 704 q 479 778 382 778 q 642 741 578 778 q 735 637 707 704 q 749 479 764 569 l 718 286 q 654 127 704 194 q 528 23 604 60 q 353 -14 451 -14 m 378 138 q 490 176 447 138 q 544 286 533 214 l 575 478 q 556 588 586 550 q 454 626 525 626 q 343 588 386 626 q 288 478 300 550 l 257 286 q 277 176 246 214 q 378 138 308 138 m 682 1051 l 876 1246 l 1056 1246 l 850 1051 l 682 1051 m 226 896 l 447 1090 l 608 1090 l 768 896 l 604 896 l 515 997 l 397 896 l 226 896 z "},"ộ":{"ha":833,"x_min":69,"x_max":768,"o":"m 226 896 l 447 1090 l 608 1090 l 768 896 l 606 896 l 515 997 l 399 896 l 226 896 m 353 -14 q 190 23 256 -14 q 97 127 125 60 q 83 286 69 194 l 114 478 q 178 637 129 569 q 305 741 228 704 q 479 778 382 778 q 642 741 578 778 q 735 637 707 704 q 749 479 764 569 l 718 286 q 654 127 704 194 q 528 23 604 60 q 353 -14 451 -14 m 378 138 q 490 176 447 138 q 544 286 533 214 l 575 478 q 556 588 586 550 q 454 626 525 626 q 343 588 386 626 q 288 478 300 550 l 257 286 q 277 176 246 214 q 378 138 308 138 m 319 -312 q 242 -285 268 -312 q 221 -212 215 -258 q 265 -138 229 -165 q 353 -111 300 -111 q 431 -138 404 -111 q 450 -212 457 -165 q 408 -285 443 -258 q 319 -312 372 -312 z "},"ồ":{"ha":833,"x_min":69,"x_max":913,"o":"m 353 -14 q 190 23 256 -14 q 97 127 125 60 q 83 286 69 194 l 114 478 q 178 637 129 569 q 305 741 228 704 q 479 778 382 778 q 642 741 578 778 q 735 637 707 704 q 749 479 764 569 l 718 286 q 654 127 704 194 q 528 23 604 60 q 353 -14 451 -14 m 378 138 q 490 176 447 138 q 544 286 533 214 l 575 478 q 556 588 586 550 q 454 626 525 626 q 343 588 386 626 q 288 478 300 550 l 257 286 q 277 176 246 214 q 378 138 308 138 m 753 1051 l 603 1246 l 774 1246 l 913 1051 l 753 1051 m 226 896 l 447 1090 l 608 1090 l 768 896 l 604 896 l 515 997 l 397 896 l 226 896 z "},"ổ":{"ha":833,"x_min":69,"x_max":944,"o":"m 353 -14 q 190 23 256 -14 q 97 127 125 60 q 83 286 69 194 l 114 478 q 178 637 129 569 q 305 741 228 704 q 479 778 382 778 q 642 741 578 778 q 735 637 707 704 q 749 479 764 569 l 718 286 q 654 127 704 194 q 528 23 604 60 q 353 -14 451 -14 m 378 138 q 490 176 447 138 q 544 286 533 214 l 575 478 q 556 588 586 550 q 454 626 525 626 q 343 588 386 626 q 288 478 300 550 l 257 286 q 277 176 246 214 q 378 138 308 138 m 696 1051 l 774 1133 q 797 1172 796 1156 q 764 1200 801 1200 l 675 1200 l 692 1303 l 814 1303 q 911 1273 878 1303 q 936 1192 944 1243 q 896 1114 929 1150 l 838 1051 l 696 1051 m 226 896 l 447 1090 l 608 1090 l 768 896 l 604 896 l 515 997 l 397 896 l 226 896 z "},"ỗ":{"ha":833,"x_min":69,"x_max":803,"o":"m 353 -14 q 190 23 256 -14 q 97 127 125 60 q 83 286 69 194 l 114 478 q 178 637 129 569 q 305 741 228 704 q 479 778 382 778 q 642 741 578 778 q 735 637 707 704 q 749 479 764 569 l 718 286 q 654 127 704 194 q 528 23 604 60 q 353 -14 451 -14 m 378 138 q 490 176 447 138 q 544 286 533 214 l 575 478 q 556 588 586 550 q 454 626 525 626 q 343 588 386 626 q 288 478 300 550 l 257 286 q 277 176 246 214 q 378 138 308 138 m 632 1139 q 563 1152 588 1139 q 523 1181 538 1165 q 494 1210 508 1197 q 460 1224 481 1224 q 411 1179 419 1224 l 406 1147 l 299 1147 l 303 1179 q 360 1284 314 1244 q 471 1324 407 1324 q 540 1310 515 1324 q 578 1281 564 1297 q 606 1251 593 1264 q 642 1239 619 1239 q 690 1279 683 1239 l 696 1314 l 803 1314 l 797 1283 q 741 1178 786 1218 q 632 1139 696 1139 m 226 896 l 447 1090 l 608 1090 l 768 896 l 604 896 l 515 997 l 397 896 l 226 896 z "},"ö":{"ha":833,"x_min":69,"x_max":785,"o":"m 353 -14 q 190 23 256 -14 q 97 127 125 60 q 83 286 69 194 l 114 478 q 178 637 129 569 q 305 741 228 704 q 479 778 382 778 q 642 741 578 778 q 735 637 707 704 q 749 479 764 569 l 718 286 q 654 127 704 194 q 528 23 604 60 q 353 -14 451 -14 m 378 138 q 490 176 447 138 q 544 286 533 214 l 575 478 q 556 588 586 550 q 454 626 525 626 q 343 588 386 626 q 288 478 300 550 l 257 286 q 277 176 246 214 q 378 138 308 138 m 660 892 q 590 919 614 892 q 574 992 567 946 q 614 1065 582 1038 q 692 1092 646 1092 q 762 1065 739 1092 q 778 992 785 1038 q 739 919 771 946 q 660 892 707 892 m 333 892 q 265 919 288 892 q 247 992 242 946 q 288 1065 256 1038 q 365 1092 319 1092 q 436 1065 413 1092 q 451 992 460 1038 q 413 919 444 946 q 333 892 381 892 z "},"ọ":{"ha":833,"x_min":69,"x_max":764,"o":"m 353 -14 q 190 23 256 -14 q 97 127 125 60 q 83 286 69 194 l 114 478 q 178 637 129 569 q 305 741 228 704 q 479 778 382 778 q 642 741 578 778 q 735 637 707 704 q 749 479 764 569 l 718 286 q 654 127 704 194 q 528 23 604 60 q 353 -14 451 -14 m 378 138 q 490 176 447 138 q 544 286 533 214 l 575 478 q 556 588 586 550 q 454 626 525 626 q 343 588 386 626 q 288 478 300 550 l 257 286 q 277 176 246 214 q 378 138 308 138 m 319 -312 q 242 -285 268 -312 q 221 -212 215 -258 q 265 -138 229 -165 q 353 -111 300 -111 q 431 -138 404 -111 q 450 -212 457 -165 q 408 -285 443 -258 q 319 -312 372 -312 z "},"ò":{"ha":833,"x_min":69,"x_max":764,"o":"m 353 -14 q 190 23 256 -14 q 97 127 125 60 q 83 286 69 194 l 114 478 q 178 637 129 569 q 305 741 228 704 q 479 778 382 778 q 642 741 578 778 q 735 637 707 704 q 749 479 764 569 l 718 286 q 654 127 704 194 q 528 23 604 60 q 353 -14 451 -14 m 378 138 q 490 176 447 138 q 544 286 533 214 l 575 478 q 556 588 586 550 q 454 626 525 626 q 343 588 386 626 q 288 478 300 550 l 257 286 q 277 176 246 214 q 378 138 308 138 m 431 896 l 300 1090 l 483 1090 l 601 896 l 431 896 z "},"ỏ":{"ha":833,"x_min":69,"x_max":764,"o":"m 353 -14 q 190 23 256 -14 q 97 127 125 60 q 83 286 69 194 l 114 478 q 178 637 129 569 q 305 741 228 704 q 479 778 382 778 q 642 741 578 778 q 735 637 707 704 q 749 479 764 569 l 718 286 q 654 127 704 194 q 528 23 604 60 q 353 -14 451 -14 m 378 138 q 490 176 447 138 q 544 286 533 214 l 575 478 q 556 588 586 550 q 454 626 525 626 q 343 588 386 626 q 288 478 300 550 l 257 286 q 277 176 246 214 q 378 138 308 138 m 418 896 l 500 979 q 519 1003 513 993 q 528 1021 526 1013 q 493 1047 532 1047 l 389 1047 l 406 1153 l 551 1153 q 643 1123 611 1153 q 667 1040 675 1093 q 653 998 664 1019 q 626 960 643 976 l 565 896 l 418 896 z "},"ơ":{"ha":833,"x_min":69,"x_max":861,"o":"m 561 618 l 581 736 l 649 736 q 687 749 672 736 q 704 785 701 763 l 721 889 l 861 889 l 844 782 q 777 663 833 707 q 640 618 721 618 l 561 618 m 353 -14 q 190 23 256 -14 q 97 127 125 60 q 83 286 69 194 l 114 478 q 178 637 129 569 q 305 741 228 704 q 479 778 382 778 q 642 741 578 778 q 735 637 707 704 q 749 479 764 569 l 718 286 q 654 127 704 194 q 528 23 604 60 q 353 -14 451 -14 m 378 138 q 490 176 447 138 q 544 286 533 214 l 575 478 q 556 588 586 550 q 454 626 525 626 q 343 588 386 626 q 288 478 300 550 l 257 286 q 277 176 246 214 q 378 138 308 138 z "},"ớ":{"ha":833,"x_min":69,"x_max":861,"o":"m 561 618 l 581 736 l 649 736 q 687 749 672 736 q 704 785 701 763 l 721 889 l 861 889 l 844 782 q 777 663 833 707 q 640 618 721 618 l 561 618 m 353 -14 q 190 23 256 -14 q 97 127 125 60 q 83 286 69 194 l 114 478 q 178 637 129 569 q 305 741 228 704 q 479 778 382 778 q 642 741 578 778 q 735 637 707 704 q 749 479 764 569 l 718 286 q 654 127 704 194 q 528 23 604 60 q 353 -14 451 -14 m 378 138 q 490 176 447 138 q 544 286 533 214 l 575 478 q 556 588 586 550 q 454 626 525 626 q 343 588 386 626 q 288 478 300 550 l 257 286 q 277 176 246 214 q 378 138 308 138 m 374 896 l 551 1090 l 746 1090 l 556 896 l 374 896 z "},"ợ":{"ha":833,"x_min":69,"x_max":861,"o":"m 561 618 l 581 736 l 649 736 q 687 749 672 736 q 704 785 701 763 l 721 889 l 861 889 l 844 782 q 777 663 833 707 q 640 618 721 618 l 561 618 m 353 -14 q 190 23 256 -14 q 97 127 125 60 q 83 286 69 194 l 114 478 q 178 637 129 569 q 305 741 228 704 q 479 778 382 778 q 642 741 578 778 q 735 637 707 704 q 749 479 764 569 l 718 286 q 654 127 704 194 q 528 23 604 60 q 353 -14 451 -14 m 378 138 q 490 176 447 138 q 544 286 533 214 l 575 478 q 556 588 586 550 q 454 626 525 626 q 343 588 386 626 q 288 478 300 550 l 257 286 q 277 176 246 214 q 378 138 308 138 m 319 -312 q 242 -285 268 -312 q 221 -212 215 -258 q 265 -138 229 -165 q 353 -111 300 -111 q 431 -138 404 -111 q 450 -212 457 -165 q 408 -285 443 -258 q 319 -312 372 -312 z "},"ờ":{"ha":833,"x_min":69,"x_max":861,"o":"m 561 618 l 581 736 l 649 736 q 687 749 672 736 q 704 785 701 763 l 721 889 l 861 889 l 844 782 q 777 663 833 707 q 640 618 721 618 l 561 618 m 353 -14 q 190 23 256 -14 q 97 127 125 60 q 83 286 69 194 l 114 478 q 178 637 129 569 q 305 741 228 704 q 479 778 382 778 q 642 741 578 778 q 735 637 707 704 q 749 479 764 569 l 718 286 q 654 127 704 194 q 528 23 604 60 q 353 -14 451 -14 m 378 138 q 490 176 447 138 q 544 286 533 214 l 575 478 q 556 588 586 550 q 454 626 525 626 q 343 588 386 626 q 288 478 300 550 l 257 286 q 277 176 246 214 q 378 138 308 138 m 417 896 l 286 1090 l 469 1090 l 588 896 l 417 896 z "},"ở":{"ha":833,"x_min":69,"x_max":861,"o":"m 561 618 l 581 736 l 649 736 q 687 749 672 736 q 704 785 701 763 l 721 889 l 861 889 l 844 782 q 777 663 833 707 q 640 618 721 618 l 561 618 m 353 -14 q 190 23 256 -14 q 97 127 125 60 q 83 286 69 194 l 114 478 q 178 637 129 569 q 305 741 228 704 q 479 778 382 778 q 642 741 578 778 q 735 637 707 704 q 749 479 764 569 l 718 286 q 654 127 704 194 q 528 23 604 60 q 353 -14 451 -14 m 378 138 q 490 176 447 138 q 544 286 533 214 l 575 478 q 556 588 586 550 q 454 626 525 626 q 343 588 386 626 q 288 478 300 550 l 257 286 q 277 176 246 214 q 378 138 308 138 m 418 896 l 500 979 q 519 1003 513 993 q 528 1021 526 1013 q 493 1047 532 1047 l 389 1047 l 406 1153 l 551 1153 q 643 1123 611 1153 q 667 1040 675 1093 q 653 998 664 1019 q 626 960 643 976 l 565 896 l 418 896 z "},"ỡ":{"ha":833,"x_min":69,"x_max":861,"o":"m 561 618 l 581 736 l 649 736 q 687 749 672 736 q 704 785 701 763 l 721 889 l 861 889 l 844 782 q 777 663 833 707 q 640 618 721 618 l 561 618 m 353 -14 q 190 23 256 -14 q 97 127 125 60 q 83 286 69 194 l 114 478 q 178 637 129 569 q 305 741 228 704 q 479 778 382 778 q 642 741 578 778 q 735 637 707 704 q 749 479 764 569 l 718 286 q 654 127 704 194 q 528 23 604 60 q 353 -14 451 -14 m 378 138 q 490 176 447 138 q 544 286 533 214 l 575 478 q 556 588 586 550 q 454 626 525 626 q 343 588 386 626 q 288 478 300 550 l 257 286 q 277 176 246 214 q 378 138 308 138 m 581 890 q 513 903 538 890 q 472 935 488 917 q 442 966 457 953 q 407 979 428 979 q 375 967 389 979 q 357 933 361 956 l 351 897 l 246 897 l 253 943 q 310 1053 264 1011 q 418 1096 356 1096 q 486 1083 461 1096 q 526 1051 511 1069 q 555 1020 540 1033 q 590 1007 569 1007 q 623 1017 610 1007 q 640 1050 636 1028 l 646 1089 l 753 1089 l 746 1043 q 690 933 735 975 q 581 890 644 890 z "},"ő":{"ha":833,"x_min":69,"x_max":882,"o":"m 353 -14 q 190 23 256 -14 q 97 127 125 60 q 83 286 69 194 l 114 478 q 178 637 129 569 q 305 741 228 704 q 479 778 382 778 q 642 741 578 778 q 735 637 707 704 q 749 479 764 569 l 718 286 q 654 127 704 194 q 528 23 604 60 q 353 -14 451 -14 m 378 138 q 490 176 447 138 q 544 286 533 214 l 575 478 q 556 588 586 550 q 454 626 525 626 q 343 588 386 626 q 288 478 300 550 l 257 286 q 277 176 246 214 q 378 138 308 138 m 531 896 l 710 1090 l 882 1090 l 692 896 l 531 896 m 247 896 l 426 1090 l 599 1090 l 408 896 l 247 896 z "},"ō":{"ha":833,"x_min":69,"x_max":764,"o":"m 353 -14 q 190 23 256 -14 q 97 127 125 60 q 83 286 69 194 l 114 478 q 178 637 129 569 q 305 741 228 704 q 479 778 382 778 q 642 741 578 778 q 735 637 707 704 q 749 479 764 569 l 718 286 q 654 127 704 194 q 528 23 604 60 q 353 -14 451 -14 m 378 138 q 490 176 447 138 q 544 286 533 214 l 575 478 q 556 588 586 550 q 454 626 525 626 q 343 588 386 626 q 288 478 300 550 l 257 286 q 277 176 246 214 q 378 138 308 138 m 263 918 l 283 1051 l 760 1051 l 740 918 l 263 918 z "},"ǫ":{"ha":833,"x_min":69,"x_max":764,"o":"m 397 -300 q 275 -260 317 -300 q 244 -157 233 -219 q 291 -72 250 -115 q 415 19 332 -29 q 402 5 414 13 q 376 -8 390 -3 q 353 -14 363 -14 q 190 23 256 -14 q 97 127 125 60 q 83 286 69 194 l 114 478 q 178 637 129 569 q 305 741 228 704 q 479 778 382 778 q 642 741 578 778 q 735 637 707 704 q 749 479 764 569 l 718 286 q 661 140 706 204 q 553 38 617 76 l 486 -14 q 424 -72 446 -44 q 399 -121 403 -99 q 411 -163 396 -146 q 458 -181 426 -181 l 549 -181 l 531 -300 l 397 -300 m 378 138 q 490 176 447 138 q 544 286 533 214 l 575 478 q 556 588 586 550 q 454 626 525 626 q 343 588 386 626 q 288 478 300 550 l 257 286 q 277 176 246 214 q 378 138 308 138 z "},"ø":{"ha":833,"x_min":-28,"x_max":861,"o":"m -28 -42 l 714 819 l 861 819 l 119 -42 l -28 -42 m 353 -14 q 190 23 256 -14 q 97 127 125 60 q 83 286 69 194 l 114 478 q 178 637 129 569 q 305 741 228 704 q 479 778 382 778 q 643 741 578 778 q 736 637 708 704 q 749 479 764 569 l 718 286 q 654 127 704 194 q 528 23 604 60 q 353 -14 451 -14 m 378 138 q 497 177 450 138 q 556 286 544 217 l 586 478 q 563 587 597 547 q 454 626 528 626 q 335 587 382 626 q 276 478 288 547 l 246 286 q 269 177 235 217 q 378 138 304 138 z "},"ǿ":{"ha":833,"x_min":-28,"x_max":861,"o":"m -28 -42 l 714 819 l 861 819 l 119 -42 l -28 -42 m 353 -14 q 190 23 256 -14 q 97 127 125 60 q 83 286 69 194 l 114 478 q 178 637 129 569 q 305 741 228 704 q 479 778 382 778 q 643 741 578 778 q 736 637 708 704 q 749 479 764 569 l 718 286 q 654 127 704 194 q 528 23 604 60 q 353 -14 451 -14 m 378 138 q 497 177 450 138 q 556 286 544 217 l 586 478 q 563 587 597 547 q 454 626 528 626 q 335 587 382 626 q 276 478 288 547 l 246 286 q 269 177 235 217 q 378 138 304 138 m 388 896 l 565 1090 l 760 1090 l 569 896 l 388 896 z "},"õ":{"ha":833,"x_min":69,"x_max":767,"o":"m 353 -14 q 190 23 256 -14 q 97 127 125 60 q 83 286 69 194 l 114 478 q 178 637 129 569 q 305 741 228 704 q 479 778 382 778 q 642 741 578 778 q 735 637 707 704 q 749 479 764 569 l 718 286 q 654 127 704 194 q 528 23 604 60 q 353 -14 451 -14 m 378 138 q 490 176 447 138 q 544 286 533 214 l 575 478 q 556 588 586 550 q 454 626 525 626 q 343 588 386 626 q 288 478 300 550 l 257 286 q 277 176 246 214 q 378 138 308 138 m 594 890 q 526 903 551 890 q 486 935 501 917 q 456 966 471 953 q 421 979 442 979 q 389 967 403 979 q 371 933 375 956 l 365 897 l 260 897 l 267 943 q 324 1053 278 1011 q 432 1096 369 1096 q 500 1083 475 1096 q 540 1051 525 1069 q 569 1020 554 1033 q 604 1007 583 1007 q 637 1017 624 1007 q 654 1050 650 1028 l 660 1089 l 767 1089 l 760 1043 q 703 933 749 975 q 594 890 658 890 z "},"œ":{"ha":833,"x_min":4,"x_max":829,"o":"m 186 -14 q 49 45 94 -14 q 19 200 4 104 l 76 564 q 157 719 93 661 q 313 778 221 778 q 397 760 365 778 q 444 718 429 743 q 457 671 458 693 l 467 671 q 494 718 472 693 q 553 760 515 743 q 646 778 592 778 q 783 719 738 778 q 813 564 829 661 l 779 347 l 482 347 l 458 200 q 469 134 451 158 q 521 110 486 110 q 577 130 554 110 q 608 186 600 150 l 751 186 q 668 41 732 96 q 519 -14 604 -14 q 433 3 465 -14 q 388 46 401 21 q 375 93 374 71 l 365 93 q 337 46 360 71 q 276 3 314 21 q 186 -14 239 -14 m 226 110 q 286 134 263 110 q 317 200 310 158 l 374 564 q 364 631 381 607 q 311 654 347 654 q 251 630 275 654 q 219 564 226 606 l 161 200 q 173 134 156 158 q 226 110 190 110 m 499 454 l 653 454 l 671 564 q 660 631 676 607 q 607 654 643 654 q 547 630 571 654 q 515 564 522 606 l 499 454 z "},"p":{"ha":833,"x_min":6,"x_max":771,"o":"m 6 -250 l 167 764 l 336 764 l 313 618 l 351 618 l 307 578 q 385 724 321 671 q 544 778 450 778 q 715 699 660 778 q 750 486 771 619 l 717 279 q 661 124 703 190 q 558 22 619 58 q 418 -14 496 -14 q 277 40 324 -14 q 244 186 231 93 l 278 146 l 238 146 l 214 -36 l 179 -250 l 6 -250 m 382 136 q 491 175 449 136 q 544 286 533 214 l 575 478 q 556 589 586 550 q 458 628 526 628 q 351 588 394 628 q 294 478 307 549 l 264 286 q 285 176 253 215 q 382 136 317 136 z "},"þ":{"ha":833,"x_min":3,"x_max":768,"o":"m 3 -250 l 54 75 l 224 75 l 172 -250 l 3 -250 m 415 -14 q 274 40 321 -14 q 242 186 226 93 l 275 146 l 236 146 l 213 0 l 43 0 l 204 1014 l 378 1014 l 343 800 l 308 618 l 349 618 l 304 578 q 383 724 318 671 q 542 778 447 778 q 713 699 657 778 q 747 485 768 619 l 714 278 q 658 123 700 189 q 554 22 617 57 q 415 -14 492 -14 m 378 136 q 488 175 444 136 q 542 286 531 214 l 572 478 q 553 589 583 550 q 456 628 522 628 q 347 588 390 628 q 292 478 304 549 l 261 286 q 281 176 250 215 q 378 136 313 136 z "},"q":{"ha":833,"x_min":61,"x_max":786,"o":"m 451 -250 l 486 -36 l 521 146 l 481 146 l 524 186 q 445 40 508 93 q 288 -14 382 -14 q 117 65 172 -14 q 82 279 61 144 l 115 486 q 171 641 129 575 q 275 742 213 707 q 414 778 338 778 q 554 724 508 778 q 586 578 600 671 l 554 618 l 593 618 l 617 764 l 786 764 l 625 -250 l 451 -250 m 374 136 q 482 176 439 136 q 538 286 525 215 l 568 478 q 548 588 579 549 q 451 628 517 628 q 342 589 385 628 q 288 478 300 550 l 257 286 q 276 175 246 214 q 374 136 307 136 z "},"r":{"ha":833,"x_min":69,"x_max":808,"o":"m 69 0 l 190 764 l 354 764 l 331 618 l 374 618 l 308 529 q 394 715 328 653 q 568 778 460 778 q 750 701 692 778 q 788 490 808 625 l 778 435 l 596 435 l 604 478 q 584 592 615 551 q 486 632 553 632 q 374 592 418 632 q 319 478 331 551 l 243 0 l 69 0 z "},"ŕ":{"ha":833,"x_min":69,"x_max":808,"o":"m 69 0 l 190 764 l 354 764 l 331 618 l 374 618 l 308 529 q 394 715 328 653 q 568 778 460 778 q 750 701 692 778 q 788 490 808 625 l 778 435 l 596 435 l 604 478 q 584 592 615 551 q 486 632 553 632 q 374 592 418 632 q 319 478 331 551 l 243 0 l 69 0 m 415 896 l 593 1090 l 788 1090 l 597 896 l 415 896 z "},"ř":{"ha":833,"x_min":69,"x_max":828,"o":"m 69 0 l 190 764 l 354 764 l 331 618 l 374 618 l 308 529 q 394 715 328 653 q 568 778 460 778 q 750 701 692 778 q 788 490 808 625 l 778 435 l 596 435 l 604 478 q 584 592 615 551 q 486 632 553 632 q 374 592 418 632 q 319 478 331 551 l 243 0 l 69 0 m 446 896 l 286 1090 l 449 1090 l 539 989 l 656 1090 l 828 1090 l 607 896 l 446 896 z "},"ŗ":{"ha":833,"x_min":-92,"x_max":808,"o":"m 69 0 l 190 764 l 354 764 l 331 618 l 374 618 l 308 529 q 394 715 328 653 q 568 778 460 778 q 750 701 692 778 q 788 490 808 625 l 778 435 l 596 435 l 604 478 q 584 592 615 551 q 486 632 553 632 q 374 592 418 632 q 319 478 331 551 l 243 0 l 69 0 m -92 -333 l 72 -132 l 256 -132 l 69 -333 l -92 -333 z "},"s":{"ha":833,"x_min":50,"x_max":771,"o":"m 321 -14 q 119 47 189 -14 q 61 208 50 108 l 235 208 q 262 150 232 172 q 344 128 292 128 l 404 128 q 505 153 468 128 q 547 221 542 178 q 530 285 554 261 q 447 318 506 310 l 356 332 q 174 399 228 350 q 136 551 121 449 q 235 718 153 658 q 457 778 317 778 l 510 778 q 704 720 638 778 q 761 567 771 663 l 588 567 q 563 617 589 597 q 486 636 536 636 l 433 636 q 343 615 374 636 q 306 551 313 593 q 319 492 300 513 q 392 463 339 471 l 488 449 q 678 378 621 431 q 718 222 735 326 q 615 49 700 111 q 382 -14 529 -14 l 321 -14 z "},"ś":{"ha":833,"x_min":50,"x_max":774,"o":"m 321 -14 q 119 47 189 -14 q 61 208 50 108 l 235 208 q 262 150 232 172 q 344 128 292 128 l 404 128 q 505 153 468 128 q 547 221 542 178 q 530 285 554 261 q 447 318 506 310 l 356 332 q 174 399 228 350 q 136 551 121 449 q 235 718 153 658 q 457 778 317 778 l 510 778 q 704 720 638 778 q 761 567 771 663 l 588 567 q 563 617 589 597 q 486 636 536 636 l 433 636 q 343 615 374 636 q 306 551 313 593 q 319 492 300 513 q 392 463 339 471 l 488 449 q 678 378 621 431 q 718 222 735 326 q 615 49 700 111 q 382 -14 529 -14 l 321 -14 m 401 896 l 579 1090 l 774 1090 l 583 896 l 401 896 z "},"š":{"ha":833,"x_min":50,"x_max":814,"o":"m 321 -14 q 119 47 189 -14 q 61 208 50 108 l 235 208 q 262 150 232 172 q 344 128 292 128 l 404 128 q 505 153 468 128 q 547 221 542 178 q 530 285 554 261 q 447 318 506 310 l 356 332 q 174 399 228 350 q 136 551 121 449 q 235 718 153 658 q 457 778 317 778 l 510 778 q 704 720 638 778 q 761 567 771 663 l 588 567 q 563 617 589 597 q 486 636 536 636 l 433 636 q 343 615 374 636 q 306 551 313 593 q 319 492 300 513 q 392 463 339 471 l 488 449 q 678 378 621 431 q 718 222 735 326 q 615 49 700 111 q 382 -14 529 -14 l 321 -14 m 432 896 l 272 1090 l 435 1090 l 525 989 l 642 1090 l 814 1090 l 593 896 l 432 896 z "},"ş":{"ha":833,"x_min":50,"x_max":771,"o":"m 286 -300 l 286 -211 l 392 -211 q 445 -195 425 -211 q 465 -161 465 -179 q 424 -115 465 -133 q 310 -96 383 -96 l 358 28 l 451 28 l 424 -51 q 506 -69 464 -56 q 578 -110 549 -83 q 608 -178 608 -137 q 558 -263 608 -226 q 425 -300 507 -300 l 286 -300 m 321 -14 q 119 47 189 -14 q 61 208 50 108 l 235 208 q 262 150 232 172 q 344 128 292 128 l 404 128 q 505 153 468 128 q 547 221 542 178 q 530 285 554 261 q 447 318 506 310 l 356 332 q 174 399 228 350 q 136 551 121 449 q 235 718 153 658 q 457 778 317 778 l 510 778 q 704 720 638 778 q 761 567 771 663 l 588 567 q 563 617 589 597 q 486 636 536 636 l 433 636 q 343 615 374 636 q 306 551 313 593 q 319 492 300 513 q 392 463 339 471 l 488 449 q 678 378 621 431 q 718 222 735 326 q 615 49 700 111 q 382 -14 529 -14 l 321 -14 z "},"ŝ":{"ha":833,"x_min":50,"x_max":782,"o":"m 321 -14 q 119 47 189 -14 q 61 208 50 108 l 235 208 q 262 150 232 172 q 344 128 292 128 l 404 128 q 505 153 468 128 q 547 221 542 178 q 530 285 554 261 q 447 318 506 310 l 356 332 q 174 399 228 350 q 136 551 121 449 q 235 718 153 658 q 457 778 317 778 l 510 778 q 704 720 638 778 q 761 567 771 663 l 588 567 q 563 617 589 597 q 486 636 536 636 l 433 636 q 343 615 374 636 q 306 551 313 593 q 319 492 300 513 q 392 463 339 471 l 488 449 q 678 378 621 431 q 718 222 735 326 q 615 49 700 111 q 382 -14 529 -14 l 321 -14 m 240 896 l 461 1090 l 622 1090 l 782 896 l 619 896 l 529 997 l 413 896 l 240 896 z "},"ș":{"ha":833,"x_min":50,"x_max":771,"o":"m 321 -14 q 119 47 189 -14 q 61 208 50 108 l 235 208 q 262 150 232 172 q 344 128 292 128 l 404 128 q 505 153 468 128 q 547 221 542 178 q 530 285 554 261 q 447 318 506 310 l 356 332 q 174 399 228 350 q 136 551 121 449 q 235 718 153 658 q 457 778 317 778 l 510 778 q 704 720 638 778 q 761 567 771 663 l 588 567 q 563 617 589 597 q 486 636 536 636 l 433 636 q 343 615 374 636 q 306 551 313 593 q 319 492 300 513 q 392 463 339 471 l 488 449 q 678 378 621 431 q 718 222 735 326 q 615 49 700 111 q 382 -14 529 -14 l 321 -14 m 131 -333 l 294 -132 l 478 -132 l 292 -333 l 131 -333 z "},"ß":{"ha":833,"x_min":-183,"x_max":815,"o":"m -183 -250 l -160 -106 l -104 -106 q -4 -77 -42 -106 q 42 4 33 -49 l 157 726 q 221 885 171 817 q 349 990 271 953 q 526 1028 426 1028 q 686 995 619 1028 q 784 903 753 963 q 801 763 815 844 q 751 639 790 692 q 648 558 711 586 q 503 529 585 529 l 507 550 q 649 519 592 551 q 733 428 707 488 q 746 290 758 369 q 681 138 732 204 q 551 36 629 72 q 374 0 472 0 l 293 0 l 318 149 l 388 149 q 510 190 461 149 q 569 301 558 231 q 545 411 582 371 q 435 451 508 451 l 372 451 l 393 586 l 454 586 q 565 626 521 586 q 619 729 610 665 q 597 839 631 799 q 492 879 563 879 q 376 838 422 879 q 318 726 329 797 l 203 0 q 97 -183 183 -115 q -124 -250 10 -250 l -183 -250 z "},"ſ":{"ha":833,"x_min":-76,"x_max":869,"o":"m -76 -250 l -53 -106 l 92 -106 q 183 -77 149 -106 q 225 4 217 -49 l 349 783 q 399 906 360 854 q 499 985 438 957 q 639 1014 561 1014 l 869 1014 l 846 861 l 618 861 q 553 840 578 861 q 521 779 528 819 l 397 0 q 293 -183 381 -115 q 72 -250 206 -250 l -76 -250 z "},"t":{"ha":833,"x_min":96,"x_max":794,"o":"m 439 0 q 278 61 329 0 q 243 229 226 122 l 303 607 l 96 607 l 119 764 l 326 764 l 360 972 l 535 972 l 501 764 l 794 764 l 769 607 l 476 607 l 417 229 q 475 157 404 157 l 683 157 l 660 0 l 439 0 z "},"ŧ":{"ha":833,"x_min":94,"x_max":794,"o":"m 94 317 l 117 453 l 683 453 l 661 317 l 94 317 m 439 0 q 278 61 329 0 q 243 229 226 122 l 303 607 l 96 607 l 119 764 l 326 764 l 360 972 l 535 972 l 501 764 l 794 764 l 769 607 l 476 607 l 417 229 q 475 157 404 157 l 683 157 l 660 0 l 439 0 z "},"ť":{"ha":833,"x_min":96,"x_max":904,"o":"m 593 861 l 744 1076 l 904 1076 l 739 861 l 593 861 m 439 0 q 278 61 329 0 q 243 229 226 122 l 303 607 l 96 607 l 119 764 l 326 764 l 360 972 l 535 972 l 501 764 l 794 764 l 769 607 l 476 607 l 417 229 q 475 157 404 157 l 683 157 l 660 0 l 439 0 z "},"ţ":{"ha":833,"x_min":96,"x_max":794,"o":"m 356 -300 l 356 -211 l 461 -211 q 515 -195 494 -211 q 535 -161 535 -179 q 494 -115 535 -133 q 379 -96 453 -96 l 428 28 l 521 28 l 493 -51 q 576 -69 533 -56 q 648 -110 618 -83 q 678 -178 678 -137 q 627 -263 678 -226 q 494 -300 576 -300 l 356 -300 m 439 0 q 278 61 329 0 q 243 229 226 122 l 303 607 l 96 607 l 119 764 l 326 764 l 360 972 l 535 972 l 501 764 l 794 764 l 769 607 l 476 607 l 417 229 q 475 157 404 157 l 683 157 l 660 0 l 439 0 z "},"ț":{"ha":833,"x_min":96,"x_max":794,"o":"m 439 0 q 278 61 329 0 q 243 229 226 122 l 303 607 l 96 607 l 119 764 l 326 764 l 360 972 l 535 972 l 501 764 l 794 764 l 769 607 l 476 607 l 417 229 q 475 157 404 157 l 683 157 l 660 0 l 439 0 m 138 -333 l 301 -132 l 485 -132 l 299 -333 l 138 -333 z "},"u":{"ha":833,"x_min":67,"x_max":789,"o":"m 353 -14 q 137 67 207 -14 q 89 289 67 149 l 164 764 l 338 764 l 263 290 q 281 177 251 217 q 376 138 311 138 q 485 177 442 138 q 540 290 529 217 l 615 764 l 789 764 l 714 289 q 651 128 700 196 q 525 23 601 60 q 353 -14 449 -14 z "},"ú":{"ha":833,"x_min":67,"x_max":789,"o":"m 353 -14 q 137 67 207 -14 q 89 289 67 149 l 164 764 l 338 764 l 263 290 q 281 177 251 217 q 376 138 311 138 q 485 177 442 138 q 540 290 529 217 l 615 764 l 789 764 l 714 289 q 651 128 700 196 q 525 23 601 60 q 353 -14 449 -14 m 388 896 l 565 1090 l 760 1090 l 569 896 l 388 896 z "},"ŭ":{"ha":833,"x_min":67,"x_max":789,"o":"m 353 -14 q 137 67 207 -14 q 89 289 67 149 l 164 764 l 338 764 l 263 290 q 281 177 251 217 q 376 138 311 138 q 485 177 442 138 q 540 290 529 217 l 615 764 l 789 764 l 714 289 q 651 128 700 196 q 525 23 601 60 q 353 -14 449 -14 m 496 885 q 329 942 388 885 q 285 1090 271 999 l 418 1090 q 436 1017 411 1044 q 510 989 461 989 q 593 1017 560 989 q 633 1090 626 1044 l 771 1090 q 681 942 757 999 q 496 885 604 885 z "},"û":{"ha":833,"x_min":67,"x_max":789,"o":"m 353 -14 q 137 67 207 -14 q 89 289 67 149 l 164 764 l 338 764 l 263 290 q 281 177 251 217 q 376 138 311 138 q 485 177 442 138 q 540 290 529 217 l 615 764 l 789 764 l 714 289 q 651 128 700 196 q 525 23 601 60 q 353 -14 449 -14 m 226 896 l 447 1090 l 608 1090 l 768 896 l 606 896 l 515 997 l 399 896 l 226 896 z "},"ü":{"ha":833,"x_min":67,"x_max":789,"o":"m 353 -14 q 137 67 207 -14 q 89 289 67 149 l 164 764 l 338 764 l 263 290 q 281 177 251 217 q 376 138 311 138 q 485 177 442 138 q 540 290 529 217 l 615 764 l 789 764 l 714 289 q 651 128 700 196 q 525 23 601 60 q 353 -14 449 -14 m 660 892 q 590 919 614 892 q 574 992 567 946 q 614 1065 582 1038 q 692 1092 646 1092 q 762 1065 739 1092 q 778 992 785 1038 q 739 919 771 946 q 660 892 707 892 m 333 892 q 265 919 288 892 q 247 992 242 946 q 288 1065 256 1038 q 365 1092 319 1092 q 436 1065 413 1092 q 451 992 460 1038 q 413 919 444 946 q 333 892 381 892 z "},"ụ":{"ha":833,"x_min":67,"x_max":789,"o":"m 353 -14 q 137 67 207 -14 q 89 289 67 149 l 164 764 l 338 764 l 263 290 q 281 177 251 217 q 376 138 311 138 q 485 177 442 138 q 540 290 529 217 l 615 764 l 789 764 l 714 289 q 651 128 700 196 q 525 23 601 60 q 353 -14 449 -14 m 306 -312 q 228 -285 254 -312 q 207 -212 201 -258 q 251 -138 215 -165 q 339 -111 286 -111 q 417 -138 390 -111 q 436 -212 443 -165 q 394 -285 429 -258 q 306 -312 358 -312 z "},"ù":{"ha":833,"x_min":67,"x_max":789,"o":"m 353 -14 q 137 67 207 -14 q 89 289 67 149 l 164 764 l 338 764 l 263 290 q 281 177 251 217 q 376 138 311 138 q 485 177 442 138 q 540 290 529 217 l 615 764 l 789 764 l 714 289 q 651 128 700 196 q 525 23 601 60 q 353 -14 449 -14 m 431 896 l 300 1090 l 483 1090 l 601 896 l 431 896 z "},"ủ":{"ha":833,"x_min":67,"x_max":789,"o":"m 353 -14 q 137 67 207 -14 q 89 289 67 149 l 164 764 l 338 764 l 263 290 q 281 177 251 217 q 376 138 311 138 q 485 177 442 138 q 540 290 529 217 l 615 764 l 789 764 l 714 289 q 651 128 700 196 q 525 23 601 60 q 353 -14 449 -14 m 418 896 l 500 979 q 519 1003 513 993 q 528 1021 526 1013 q 493 1047 532 1047 l 389 1047 l 406 1153 l 551 1153 q 643 1123 611 1153 q 667 1040 675 1093 q 653 998 664 1019 q 626 960 643 976 l 565 896 l 418 896 z "},"ư":{"ha":833,"x_min":65,"x_max":946,"o":"m 88 285 l 164 764 l 338 764 l 261 283 q 276 175 250 213 q 361 138 303 138 q 458 175 419 138 q 507 283 496 213 l 583 764 l 732 764 q 770 777 756 764 q 789 813 785 790 l 806 917 l 946 917 l 929 810 q 867 690 917 735 q 738 646 818 646 l 681 285 q 619 126 667 193 q 500 22 572 58 q 336 -14 428 -14 q 132 66 199 -14 q 88 285 65 146 z "},"ứ":{"ha":833,"x_min":65,"x_max":946,"o":"m 88 285 l 164 764 l 338 764 l 261 283 q 276 175 250 213 q 361 138 303 138 q 458 175 419 138 q 507 283 496 213 l 583 764 l 732 764 q 770 777 756 764 q 789 813 785 790 l 806 917 l 946 917 l 929 810 q 867 690 917 735 q 738 646 818 646 l 681 285 q 619 126 667 193 q 500 22 572 58 q 336 -14 428 -14 q 132 66 199 -14 q 88 285 65 146 m 371 896 l 549 1090 l 743 1090 l 553 896 l 371 896 z "},"ự":{"ha":833,"x_min":65,"x_max":946,"o":"m 88 285 l 164 764 l 338 764 l 261 283 q 276 175 250 213 q 361 138 303 138 q 458 175 419 138 q 507 283 496 213 l 583 764 l 732 764 q 770 777 756 764 q 789 813 785 790 l 806 917 l 946 917 l 929 810 q 867 690 917 735 q 738 646 818 646 l 681 285 q 619 126 667 193 q 500 22 572 58 q 336 -14 428 -14 q 132 66 199 -14 q 88 285 65 146 m 289 -312 q 211 -285 238 -312 q 190 -212 185 -258 q 234 -138 199 -165 q 322 -111 269 -111 q 400 -138 374 -111 q 419 -212 426 -165 q 377 -285 413 -258 q 289 -312 342 -312 z "},"ừ":{"ha":833,"x_min":65,"x_max":946,"o":"m 88 285 l 164 764 l 338 764 l 261 283 q 276 175 250 213 q 361 138 303 138 q 458 175 419 138 q 507 283 496 213 l 583 764 l 732 764 q 770 777 756 764 q 789 813 785 790 l 806 917 l 946 917 l 929 810 q 867 690 917 735 q 738 646 818 646 l 681 285 q 619 126 667 193 q 500 22 572 58 q 336 -14 428 -14 q 132 66 199 -14 q 88 285 65 146 m 414 896 l 283 1090 l 467 1090 l 585 896 l 414 896 z "},"ử":{"ha":833,"x_min":65,"x_max":946,"o":"m 88 285 l 164 764 l 338 764 l 261 283 q 276 175 250 213 q 361 138 303 138 q 458 175 419 138 q 507 283 496 213 l 583 764 l 732 764 q 770 777 756 764 q 789 813 785 790 l 806 917 l 946 917 l 929 810 q 867 690 917 735 q 738 646 818 646 l 681 285 q 619 126 667 193 q 500 22 572 58 q 336 -14 428 -14 q 132 66 199 -14 q 88 285 65 146 m 418 896 l 500 979 q 519 1003 513 993 q 528 1021 526 1013 q 493 1047 532 1047 l 389 1047 l 406 1153 l 551 1153 q 643 1123 611 1153 q 667 1040 675 1093 q 653 998 664 1019 q 626 960 643 976 l 565 896 l 418 896 z "},"ữ":{"ha":833,"x_min":65,"x_max":946,"o":"m 88 285 l 164 764 l 338 764 l 261 283 q 276 175 250 213 q 361 138 303 138 q 458 175 419 138 q 507 283 496 213 l 583 764 l 732 764 q 770 777 756 764 q 789 813 785 790 l 806 917 l 946 917 l 929 810 q 867 690 917 735 q 738 646 818 646 l 681 285 q 619 126 667 193 q 500 22 572 58 q 336 -14 428 -14 q 132 66 199 -14 q 88 285 65 146 m 578 890 q 510 903 535 890 q 469 935 485 917 q 440 966 454 953 q 404 979 425 979 q 372 967 386 979 q 354 933 358 956 l 349 897 l 243 897 l 250 943 q 307 1053 261 1011 q 415 1096 353 1096 q 483 1083 458 1096 q 523 1051 508 1069 q 552 1020 538 1033 q 588 1007 567 1007 q 620 1017 607 1007 q 638 1050 633 1028 l 643 1089 l 750 1089 l 743 1043 q 687 933 732 975 q 578 890 642 890 z "},"ű":{"ha":833,"x_min":67,"x_max":882,"o":"m 353 -14 q 137 67 207 -14 q 89 289 67 149 l 164 764 l 338 764 l 263 290 q 281 177 251 217 q 376 138 311 138 q 485 177 442 138 q 540 290 529 217 l 615 764 l 789 764 l 714 289 q 651 128 700 196 q 525 23 601 60 q 353 -14 449 -14 m 531 896 l 710 1090 l 882 1090 l 692 896 l 531 896 m 247 896 l 426 1090 l 599 1090 l 408 896 l 247 896 z "},"ū":{"ha":833,"x_min":67,"x_max":789,"o":"m 353 -14 q 137 67 207 -14 q 89 289 67 149 l 164 764 l 338 764 l 263 290 q 281 177 251 217 q 376 138 311 138 q 485 177 442 138 q 540 290 529 217 l 615 764 l 789 764 l 714 289 q 651 128 700 196 q 525 23 601 60 q 353 -14 449 -14 m 263 918 l 283 1051 l 760 1051 l 740 918 l 263 918 z "},"ų":{"ha":833,"x_min":65,"x_max":789,"o":"m 397 -300 q 275 -260 317 -300 q 244 -157 233 -219 q 291 -72 250 -115 q 415 19 332 -29 q 402 5 414 13 q 376 -8 390 -3 q 353 -14 363 -14 q 136 67 207 -14 q 88 286 65 149 l 164 764 l 338 764 l 261 286 q 279 176 250 214 q 378 138 308 138 q 488 176 447 138 q 540 286 528 214 l 615 764 l 789 764 l 714 286 q 658 140 700 204 q 553 38 617 76 l 486 -14 q 424 -72 446 -44 q 399 -121 403 -99 q 411 -163 396 -146 q 458 -181 426 -181 l 549 -181 l 531 -300 l 397 -300 z "},"ů":{"ha":833,"x_min":67,"x_max":789,"o":"m 353 -14 q 137 67 207 -14 q 89 289 67 149 l 164 764 l 338 764 l 263 290 q 281 177 251 217 q 376 138 311 138 q 485 177 442 138 q 540 290 529 217 l 615 764 l 789 764 l 714 289 q 651 128 700 196 q 525 23 601 60 q 353 -14 449 -14 m 488 838 q 363 884 406 838 q 332 1006 321 931 q 401 1128 343 1082 q 542 1175 458 1175 q 667 1128 624 1175 q 697 1006 710 1082 q 628 884 686 931 q 488 838 571 838 m 503 925 q 567 947 540 925 q 599 1006 593 969 q 585 1065 604 1043 q 528 1088 565 1088 q 464 1065 490 1088 q 432 1006 438 1043 q 446 947 426 969 q 503 925 465 925 z "},"ũ":{"ha":833,"x_min":67,"x_max":789,"o":"m 353 -14 q 137 67 207 -14 q 89 289 67 149 l 164 764 l 338 764 l 263 290 q 281 177 251 217 q 376 138 311 138 q 485 177 442 138 q 540 290 529 217 l 615 764 l 789 764 l 714 289 q 651 128 700 196 q 525 23 601 60 q 353 -14 449 -14 m 594 890 q 526 903 551 890 q 486 935 501 917 q 456 966 471 953 q 421 979 442 979 q 389 967 403 979 q 371 933 375 956 l 365 897 l 260 897 l 267 943 q 324 1053 278 1011 q 432 1096 369 1096 q 500 1083 475 1096 q 540 1051 525 1069 q 569 1020 554 1033 q 604 1007 583 1007 q 637 1017 624 1007 q 654 1050 650 1028 l 660 1089 l 767 1089 l 760 1043 q 703 933 749 975 q 594 890 658 890 z "},"v":{"ha":833,"x_min":117,"x_max":836,"o":"m 244 0 l 117 764 l 292 764 l 360 300 q 372 214 367 258 q 378 143 376 169 q 406 214 389 169 q 443 299 424 258 l 656 764 l 836 764 l 468 0 l 244 0 z "},"w":{"ha":833,"x_min":83,"x_max":865,"o":"m 83 0 l 88 764 l 228 764 l 218 296 q 215 207 217 256 q 211 126 214 158 q 235 207 221 158 q 260 296 249 256 l 407 764 l 544 764 l 542 296 q 540 206 542 256 q 538 125 539 157 q 559 208 546 158 q 585 296 572 257 l 726 764 l 865 764 l 625 0 l 446 0 l 451 471 q 453 558 453 510 q 454 636 453 606 q 431 558 446 606 q 406 471 417 510 l 263 0 l 83 0 z "},"ẃ":{"ha":833,"x_min":83,"x_max":865,"o":"m 83 0 l 88 764 l 228 764 l 218 296 q 215 207 217 256 q 211 126 214 158 q 235 207 221 158 q 260 296 249 256 l 407 764 l 544 764 l 542 296 q 540 206 542 256 q 538 125 539 157 q 559 208 546 158 q 585 296 572 257 l 726 764 l 865 764 l 625 0 l 446 0 l 451 471 q 453 558 453 510 q 454 636 453 606 q 431 558 446 606 q 406 471 417 510 l 263 0 l 83 0 m 388 896 l 565 1090 l 760 1090 l 569 896 l 388 896 z "},"ŵ":{"ha":833,"x_min":83,"x_max":865,"o":"m 83 0 l 88 764 l 228 764 l 218 296 q 215 207 217 256 q 211 126 214 158 q 235 207 221 158 q 260 296 249 256 l 407 764 l 544 764 l 542 296 q 540 206 542 256 q 538 125 539 157 q 559 208 546 158 q 585 296 572 257 l 726 764 l 865 764 l 625 0 l 446 0 l 451 471 q 453 558 453 510 q 454 636 453 606 q 431 558 446 606 q 406 471 417 510 l 263 0 l 83 0 m 226 896 l 447 1090 l 608 1090 l 768 896 l 606 896 l 515 997 l 399 896 l 226 896 z "},"ẅ":{"ha":833,"x_min":83,"x_max":865,"o":"m 83 0 l 88 764 l 228 764 l 218 296 q 215 207 217 256 q 211 126 214 158 q 235 207 221 158 q 260 296 249 256 l 407 764 l 544 764 l 542 296 q 540 206 542 256 q 538 125 539 157 q 559 208 546 158 q 585 296 572 257 l 726 764 l 865 764 l 625 0 l 446 0 l 451 471 q 453 558 453 510 q 454 636 453 606 q 431 558 446 606 q 406 471 417 510 l 263 0 l 83 0 m 660 892 q 590 919 614 892 q 574 992 567 946 q 614 1065 582 1038 q 692 1092 646 1092 q 762 1065 739 1092 q 778 992 785 1038 q 739 919 771 946 q 660 892 707 892 m 333 892 q 265 919 288 892 q 247 992 242 946 q 288 1065 256 1038 q 365 1092 319 1092 q 436 1065 413 1092 q 451 992 460 1038 q 413 919 444 946 q 333 892 381 892 z "},"ẁ":{"ha":833,"x_min":83,"x_max":865,"o":"m 83 0 l 88 764 l 228 764 l 218 296 q 215 207 217 256 q 211 126 214 158 q 235 207 221 158 q 260 296 249 256 l 407 764 l 544 764 l 542 296 q 540 206 542 256 q 538 125 539 157 q 559 208 546 158 q 585 296 572 257 l 726 764 l 865 764 l 625 0 l 446 0 l 451 471 q 453 558 453 510 q 454 636 453 606 q 431 558 446 606 q 406 471 417 510 l 263 0 l 83 0 m 431 896 l 300 1090 l 483 1090 l 601 896 l 431 896 z "},"x":{"ha":833,"x_min":-8,"x_max":824,"o":"m -8 0 l 318 399 l 131 764 l 322 764 l 408 576 q 424 539 417 560 q 433 506 431 518 q 453 539 440 518 q 478 576 465 560 l 622 764 l 824 764 l 519 390 l 719 0 l 526 0 l 431 210 q 414 249 422 228 q 403 282 406 269 q 383 248 396 269 q 357 210 371 226 l 192 0 l -8 0 z "},"y":{"ha":833,"x_min":71,"x_max":782,"o":"m 107 -250 l 129 -106 l 356 -106 q 449 -77 414 -106 q 492 4 483 -49 l 501 64 l 526 215 l 479 215 l 532 256 q 453 109 517 163 q 294 56 390 56 q 126 131 182 56 q 90 332 71 206 l 160 764 l 333 764 l 267 350 q 287 243 256 281 q 382 206 318 206 q 489 244 446 206 q 543 356 532 283 l 608 764 l 782 764 l 663 0 q 557 -183 644 -115 q 336 -250 469 -250 l 107 -250 z "},"ý":{"ha":833,"x_min":71,"x_max":782,"o":"m 107 -250 l 129 -106 l 356 -106 q 449 -77 414 -106 q 492 4 483 -49 l 501 64 l 526 215 l 479 215 l 532 256 q 453 109 517 163 q 294 56 390 56 q 126 131 182 56 q 90 332 71 206 l 160 764 l 333 764 l 267 350 q 287 243 256 281 q 382 206 318 206 q 489 244 446 206 q 543 356 532 283 l 608 764 l 782 764 l 663 0 q 557 -183 644 -115 q 336 -250 469 -250 l 107 -250 m 388 896 l 565 1090 l 760 1090 l 569 896 l 388 896 z "},"ŷ":{"ha":833,"x_min":71,"x_max":782,"o":"m 107 -250 l 129 -106 l 356 -106 q 449 -77 414 -106 q 492 4 483 -49 l 501 64 l 526 215 l 479 215 l 532 256 q 453 109 517 163 q 294 56 390 56 q 126 131 182 56 q 90 332 71 206 l 160 764 l 333 764 l 267 350 q 287 243 256 281 q 382 206 318 206 q 489 244 446 206 q 543 356 532 283 l 608 764 l 782 764 l 663 0 q 557 -183 644 -115 q 336 -250 469 -250 l 107 -250 m 226 896 l 447 1090 l 608 1090 l 768 896 l 606 896 l 515 997 l 399 896 l 226 896 z "},"ÿ":{"ha":833,"x_min":71,"x_max":785,"o":"m 107 -250 l 129 -106 l 356 -106 q 449 -77 414 -106 q 492 4 483 -49 l 501 64 l 526 215 l 479 215 l 532 256 q 453 109 517 163 q 294 56 390 56 q 126 131 182 56 q 90 332 71 206 l 160 764 l 333 764 l 267 350 q 287 243 256 281 q 382 206 318 206 q 489 244 446 206 q 543 356 532 283 l 608 764 l 782 764 l 663 0 q 557 -183 644 -115 q 336 -250 469 -250 l 107 -250 m 660 892 q 590 919 614 892 q 574 992 567 946 q 614 1065 582 1038 q 692 1092 646 1092 q 762 1065 739 1092 q 778 992 785 1038 q 739 919 771 946 q 660 892 707 892 m 333 892 q 265 919 288 892 q 247 992 242 946 q 288 1065 256 1038 q 365 1092 319 1092 q 436 1065 413 1092 q 451 992 460 1038 q 413 919 444 946 q 333 892 381 892 z "},"ỵ":{"ha":833,"x_min":71,"x_max":788,"o":"m 107 -250 l 129 -106 l 356 -106 q 449 -77 414 -106 q 492 4 483 -49 l 501 64 l 526 215 l 479 215 l 532 256 q 453 109 517 163 q 294 56 390 56 q 126 131 182 56 q 90 332 71 206 l 160 764 l 333 764 l 267 350 q 287 243 256 281 q 382 206 318 206 q 489 244 446 206 q 543 356 532 283 l 608 764 l 782 764 l 663 0 q 557 -183 644 -115 q 336 -250 469 -250 l 107 -250 m 650 -368 q 572 -341 599 -368 q 551 -268 546 -314 q 595 -194 560 -221 q 683 -167 631 -167 q 761 -194 735 -167 q 781 -268 788 -221 q 738 -341 774 -314 q 650 -368 703 -368 z "},"ỳ":{"ha":833,"x_min":71,"x_max":782,"o":"m 107 -250 l 129 -106 l 356 -106 q 449 -77 414 -106 q 492 4 483 -49 l 501 64 l 526 215 l 479 215 l 532 256 q 453 109 517 163 q 294 56 390 56 q 126 131 182 56 q 90 332 71 206 l 160 764 l 333 764 l 267 350 q 287 243 256 281 q 382 206 318 206 q 489 244 446 206 q 543 356 532 283 l 608 764 l 782 764 l 663 0 q 557 -183 644 -115 q 336 -250 469 -250 l 107 -250 m 431 896 l 300 1090 l 483 1090 l 601 896 l 431 896 z "},"ỷ":{"ha":833,"x_min":71,"x_max":782,"o":"m 107 -250 l 129 -106 l 356 -106 q 449 -77 414 -106 q 492 4 483 -49 l 501 64 l 526 215 l 479 215 l 532 256 q 453 109 517 163 q 294 56 390 56 q 126 131 182 56 q 90 332 71 206 l 160 764 l 333 764 l 267 350 q 287 243 256 281 q 382 206 318 206 q 489 244 446 206 q 543 356 532 283 l 608 764 l 782 764 l 663 0 q 557 -183 644 -115 q 336 -250 469 -250 l 107 -250 m 431 896 l 513 979 q 532 1003 525 993 q 540 1021 539 1013 q 506 1047 544 1047 l 401 1047 l 418 1153 l 564 1153 q 656 1123 624 1153 q 679 1040 688 1093 q 666 998 676 1019 q 639 960 656 976 l 578 896 l 431 896 z "},"ȳ":{"ha":833,"x_min":71,"x_max":782,"o":"m 107 -250 l 129 -106 l 356 -106 q 449 -77 414 -106 q 492 4 483 -49 l 501 64 l 526 215 l 479 215 l 532 256 q 453 109 517 163 q 294 56 390 56 q 126 131 182 56 q 90 332 71 206 l 160 764 l 333 764 l 267 350 q 287 243 256 281 q 382 206 318 206 q 489 244 446 206 q 543 356 532 283 l 608 764 l 782 764 l 663 0 q 557 -183 644 -115 q 336 -250 469 -250 l 107 -250 m 263 918 l 283 1051 l 760 1051 l 740 918 l 263 918 z "},"ỹ":{"ha":833,"x_min":71,"x_max":782,"o":"m 107 -250 l 129 -106 l 356 -106 q 449 -77 414 -106 q 492 4 483 -49 l 501 64 l 526 215 l 479 215 l 532 256 q 453 109 517 163 q 294 56 390 56 q 126 131 182 56 q 90 332 71 206 l 160 764 l 333 764 l 267 350 q 287 243 256 281 q 382 206 318 206 q 489 244 446 206 q 543 356 532 283 l 608 764 l 782 764 l 663 0 q 557 -183 644 -115 q 336 -250 469 -250 l 107 -250 m 594 890 q 526 903 551 890 q 486 935 501 917 q 456 966 471 953 q 421 979 442 979 q 389 967 403 979 q 371 933 375 956 l 365 897 l 260 897 l 267 943 q 324 1053 278 1011 q 432 1096 369 1096 q 500 1083 475 1096 q 540 1051 525 1069 q 569 1020 554 1033 q 604 1007 583 1007 q 637 1017 624 1007 q 654 1050 650 1028 l 660 1089 l 767 1089 l 760 1043 q 703 933 749 975 q 594 890 658 890 z "},"z":{"ha":833,"x_min":47,"x_max":769,"o":"m 47 0 l 72 157 l 538 611 l 157 611 l 181 764 l 769 764 l 744 607 l 276 153 l 688 153 l 664 0 l 47 0 z "},"ź":{"ha":833,"x_min":47,"x_max":769,"o":"m 47 0 l 72 157 l 538 611 l 157 611 l 181 764 l 769 764 l 744 607 l 276 153 l 688 153 l 664 0 l 47 0 m 388 896 l 565 1090 l 760 1090 l 569 896 l 388 896 z "},"ž":{"ha":833,"x_min":47,"x_max":800,"o":"m 47 0 l 72 157 l 538 611 l 157 611 l 181 764 l 769 764 l 744 607 l 276 153 l 688 153 l 664 0 l 47 0 m 418 896 l 258 1090 l 421 1090 l 511 989 l 628 1090 l 800 1090 l 579 896 l 418 896 z "},"ż":{"ha":833,"x_min":47,"x_max":769,"o":"m 47 0 l 72 157 l 538 611 l 157 611 l 181 764 l 769 764 l 744 607 l 276 153 l 688 153 l 664 0 l 47 0 m 497 892 q 418 919 444 892 q 399 992 392 946 q 442 1065 407 1038 q 529 1092 476 1092 q 608 1065 581 1092 q 626 992 635 1038 q 585 919 619 946 q 497 892 550 892 z "},"ª":{"ha":833,"x_min":283,"x_max":683,"o":"m 540 632 l 553 708 l 549 708 l 579 903 q 565 942 583 928 q 514 956 547 956 q 461 944 483 956 q 433 913 439 932 l 340 913 q 407 997 357 965 q 525 1028 457 1028 q 642 994 601 1028 q 674 903 683 960 l 631 632 l 540 632 m 410 625 q 316 658 349 625 q 292 746 283 692 q 347 833 300 800 q 465 865 394 865 l 589 865 l 579 801 l 454 801 q 408 788 426 801 q 386 747 390 774 q 399 707 382 722 q 447 692 417 692 q 522 713 492 692 q 558 771 553 735 l 574 771 l 564 708 l 549 708 q 491 647 528 669 q 410 625 454 625 z "},"º":{"ha":833,"x_min":293,"x_max":681,"o":"m 454 622 q 333 667 374 622 q 303 781 293 711 l 317 867 q 383 981 329 938 q 518 1025 438 1025 q 639 981 597 1025 q 669 867 681 938 l 654 781 q 589 667 644 711 q 454 622 533 622 m 467 701 q 530 724 504 701 q 561 781 556 746 l 575 867 q 561 924 581 903 q 506 944 542 944 q 442 924 468 944 q 411 867 417 903 l 397 781 q 410 724 392 746 q 467 701 429 701 z "},"А":{"ha":833,"x_min":-12,"x_max":724,"o":"m -12 0 l 404 1014 l 628 1014 l 724 0 l 551 0 l 535 246 l 265 246 l 171 0 l -12 0 m 318 388 l 525 388 l 507 660 q 499 783 503 728 q 496 863 496 838 q 469 783 488 838 q 425 661 450 728 l 318 388 z "},"Б":{"ha":833,"x_min":47,"x_max":817,"o":"m 47 0 l 208 1014 l 817 1014 l 792 853 l 351 853 l 313 607 l 463 607 q 633 569 564 607 q 732 464 701 532 q 747 304 763 396 q 681 144 733 213 q 549 38 629 76 q 367 0 468 0 l 47 0 m 240 149 l 390 149 q 513 190 464 149 q 572 303 561 232 q 549 417 585 375 q 440 458 513 458 l 289 458 l 240 149 z "},"В":{"ha":833,"x_min":46,"x_max":815,"o":"m 46 0 l 207 1014 l 518 1014 q 740 944 665 1014 q 796 753 815 874 q 747 635 786 685 q 651 557 708 585 q 528 529 594 529 l 528 535 q 654 508 601 536 q 733 424 707 479 q 744 289 758 368 q 681 136 731 201 q 552 35 631 71 q 372 0 474 0 l 46 0 m 238 144 l 385 144 q 511 185 461 144 q 572 297 561 226 q 547 412 583 368 q 433 456 510 456 l 286 456 l 238 144 m 308 596 l 449 596 q 563 633 518 596 q 619 733 608 669 q 595 833 629 797 q 492 869 561 869 l 351 869 l 308 596 z "},"Г":{"ha":833,"x_min":79,"x_max":847,"o":"m 79 0 l 240 1014 l 847 1014 l 821 853 l 388 853 l 253 0 l 79 0 z "},"Ѓ":{"ha":833,"x_min":79,"x_max":847,"o":"m 79 0 l 240 1014 l 847 1014 l 821 853 l 388 853 l 253 0 l 79 0 m 431 1125 l 608 1319 l 803 1319 l 613 1125 l 431 1125 z "},"Ґ":{"ha":833,"x_min":79,"x_max":868,"o":"m 79 0 l 240 1014 l 681 1014 l 701 1146 l 868 1146 l 821 853 l 388 853 l 253 0 l 79 0 z "},"Д":{"ha":833,"x_min":-60,"x_max":813,"o":"m -60 -194 l -6 149 l 46 149 q 90 220 65 175 q 135 324 114 265 q 168 449 157 382 l 267 1014 l 813 1014 l 674 149 l 763 149 l 710 -194 l 550 -194 l 581 0 l 131 0 l 100 -194 l -60 -194 m 219 149 l 508 149 l 622 864 l 404 864 l 333 449 q 301 322 322 382 q 259 218 281 263 q 219 149 238 174 z "},"Е":{"ha":833,"x_min":61,"x_max":831,"o":"m 61 0 l 222 1014 l 831 1014 l 806 863 l 369 863 l 326 599 l 715 599 l 692 449 l 303 449 l 256 151 l 693 151 l 669 0 l 61 0 z "},"Ё":{"ha":833,"x_min":61,"x_max":849,"o":"m 61 0 l 222 1014 l 831 1014 l 806 863 l 369 863 l 326 599 l 715 599 l 692 449 l 303 449 l 256 151 l 693 151 l 669 0 l 61 0 m 724 1122 q 654 1149 678 1122 q 638 1222 631 1176 q 678 1297 646 1269 q 757 1324 710 1324 q 826 1297 803 1324 q 842 1222 849 1269 q 803 1149 835 1176 q 724 1122 771 1122 m 397 1122 q 328 1149 351 1122 q 311 1222 306 1176 q 351 1297 319 1269 q 431 1324 383 1324 q 500 1297 476 1324 q 515 1222 524 1269 q 476 1149 508 1176 q 397 1122 444 1122 z "},"Ж":{"ha":833,"x_min":-46,"x_max":904,"o":"m -46 0 l 189 521 l 125 1014 l 274 1014 l 324 557 l 379 557 l 451 1014 l 578 1014 l 506 557 l 554 557 l 751 1014 l 904 1014 l 683 514 l 757 0 l 611 0 l 551 476 l 492 476 l 421 0 l 294 0 l 365 476 l 315 476 l 108 0 l -46 0 z "},"З":{"ha":833,"x_min":31,"x_max":825,"o":"m 347 -14 q 113 62 194 -14 q 44 265 31 138 l 218 265 q 257 172 215 206 q 372 138 299 138 q 504 180 450 138 q 569 289 558 222 q 540 397 581 357 q 419 438 500 438 l 282 438 l 307 594 l 443 594 q 534 615 494 594 q 599 668 574 635 q 631 743 624 701 q 603 842 642 807 q 489 876 564 876 q 369 840 419 876 q 306 743 319 804 l 131 743 q 203 894 150 831 q 338 993 257 958 q 517 1028 418 1028 q 746 962 667 1028 q 806 778 825 896 q 753 651 794 707 q 649 564 713 594 q 506 533 586 533 l 508 554 q 651 524 593 556 q 734 432 708 492 q 747 293 760 372 q 678 133 733 201 q 539 25 624 64 q 347 -14 454 -14 z "},"И":{"ha":833,"x_min":39,"x_max":833,"o":"m 39 0 l 200 1014 l 358 1014 l 279 518 q 260 410 272 469 q 234 293 247 350 q 211 194 221 236 l 619 1014 l 833 1014 l 672 0 l 514 0 l 590 481 q 612 592 599 529 q 638 715 625 654 q 663 819 651 776 l 253 0 l 39 0 z "},"Й":{"ha":833,"x_min":39,"x_max":833,"o":"m 39 0 l 200 1014 l 358 1014 l 279 518 q 260 410 272 469 q 234 293 247 350 q 211 194 221 236 l 619 1014 l 833 1014 l 672 0 l 514 0 l 590 481 q 612 592 599 529 q 638 715 625 654 q 663 819 651 776 l 253 0 l 39 0 m 532 1114 q 366 1171 424 1114 q 322 1319 308 1228 l 454 1319 q 472 1246 447 1274 q 546 1218 497 1218 q 628 1246 594 1218 q 669 1319 663 1274 l 807 1319 q 717 1171 793 1228 q 532 1114 640 1114 z "},"К":{"ha":833,"x_min":44,"x_max":879,"o":"m 44 0 l 206 1014 l 379 1014 l 314 604 l 431 604 l 689 1014 l 879 1014 l 571 519 l 729 0 l 542 0 l 414 446 l 289 446 l 218 0 l 44 0 z "},"Ќ":{"ha":833,"x_min":44,"x_max":879,"o":"m 424 1125 l 601 1319 l 796 1319 l 606 1125 l 424 1125 m 44 0 l 206 1014 l 379 1014 l 314 604 l 431 604 l 689 1014 l 879 1014 l 571 519 l 729 0 l 542 0 l 414 446 l 289 446 l 218 0 l 44 0 z "},"Л":{"ha":833,"x_min":-39,"x_max":825,"o":"m -39 -7 l -12 151 l 22 151 q 101 197 68 151 q 147 333 133 242 l 265 1014 l 825 1014 l 664 0 l 490 0 l 625 853 l 410 853 l 321 333 q 260 147 303 224 q 153 32 217 71 q 7 -7 89 -7 l -39 -7 z "},"М":{"ha":833,"x_min":17,"x_max":856,"o":"m 17 0 l 178 1014 l 379 1014 l 426 692 q 437 603 433 643 q 440 544 440 563 q 463 603 447 563 q 500 692 478 643 l 646 1014 l 856 1014 l 694 0 l 532 0 l 582 315 q 611 469 594 388 q 647 632 628 550 q 683 787 665 714 q 717 915 701 860 l 506 436 l 347 436 l 282 915 q 276 791 281 863 q 266 638 272 719 q 251 474 260 557 q 229 315 242 390 l 179 0 l 17 0 z "},"Н":{"ha":833,"x_min":46,"x_max":826,"o":"m 46 0 l 207 1014 l 381 1014 l 315 607 l 588 607 l 653 1014 l 826 1014 l 665 0 l 492 0 l 561 446 l 290 446 l 219 0 l 46 0 z "},"О":{"ha":833,"x_min":69,"x_max":803,"o":"m 353 -14 q 190 23 256 -14 q 97 127 125 60 q 83 286 69 194 l 153 728 q 217 887 168 819 q 344 991 267 954 q 518 1028 421 1028 q 682 991 617 1028 q 775 887 747 954 q 788 729 803 819 l 718 286 q 654 127 704 194 q 528 23 604 60 q 353 -14 451 -14 m 378 139 q 490 177 447 139 q 544 286 533 215 l 614 728 q 596 838 626 800 q 494 875 565 875 q 381 838 424 875 q 328 728 339 800 l 257 286 q 276 177 246 215 q 378 139 307 139 z "},"П":{"ha":833,"x_min":47,"x_max":825,"o":"m 47 0 l 208 1014 l 825 1014 l 664 0 l 490 0 l 625 853 l 356 853 l 221 0 l 47 0 z "},"Р":{"ha":833,"x_min":46,"x_max":846,"o":"m 46 0 l 207 1014 l 544 1014 q 715 975 646 1014 q 815 866 785 936 q 831 701 846 796 q 763 538 815 608 q 628 428 710 467 q 444 389 547 389 l 281 389 l 219 0 l 46 0 m 306 546 l 469 546 q 593 588 543 546 q 656 701 643 631 q 629 815 667 774 q 519 857 592 857 l 356 857 l 306 546 z "},"С":{"ha":833,"x_min":69,"x_max":813,"o":"m 358 -14 q 194 23 261 -14 q 98 127 126 60 q 83 286 69 194 l 153 728 q 219 888 168 821 q 348 991 269 954 q 524 1028 426 1028 q 688 991 622 1028 q 783 887 753 954 q 797 728 813 819 l 624 728 q 603 838 636 800 q 500 875 571 875 q 384 838 429 875 q 328 729 339 800 l 257 286 q 279 177 246 215 q 383 139 313 139 q 498 177 453 139 q 554 286 543 215 l 728 286 q 663 128 714 196 q 535 23 613 60 q 358 -14 457 -14 z "},"Т":{"ha":833,"x_min":138,"x_max":869,"o":"m 268 0 l 404 853 l 138 853 l 164 1014 l 869 1014 l 843 853 l 578 853 l 443 0 l 268 0 z "},"У":{"ha":833,"x_min":149,"x_max":885,"o":"m 179 0 l 319 261 l 149 1014 l 335 1014 l 418 567 q 428 485 425 528 q 432 417 432 442 q 454 485 439 442 q 486 567 469 529 l 697 1014 l 885 1014 l 363 0 l 179 0 z "},"Ў":{"ha":833,"x_min":149,"x_max":885,"o":"m 179 0 l 319 261 l 149 1014 l 335 1014 l 418 567 q 428 485 425 528 q 432 417 432 442 q 454 485 439 442 q 486 567 469 529 l 697 1014 l 885 1014 l 363 0 l 179 0 m 532 1114 q 366 1171 424 1114 q 322 1319 308 1228 l 454 1319 q 472 1246 447 1274 q 546 1218 497 1218 q 628 1246 594 1218 q 669 1319 663 1274 l 807 1319 q 717 1171 793 1228 q 532 1114 640 1114 z "},"Ф":{"ha":833,"x_min":38,"x_max":838,"o":"m 276 -35 l 292 63 q 148 100 207 63 q 63 204 89 138 q 51 360 38 271 l 100 671 q 162 830 115 763 q 279 935 208 897 q 436 972 350 972 l 451 1069 l 599 1069 l 583 972 q 728 935 669 972 q 812 830 786 897 q 822 671 838 763 l 774 360 q 713 204 760 271 q 595 100 665 138 q 439 63 525 63 l 424 -35 l 276 -35 m 318 200 l 419 835 q 342 815 378 835 q 283 758 307 794 q 253 671 260 721 l 203 360 q 223 244 192 288 q 318 200 254 200 m 456 200 q 533 220 499 200 q 592 276 568 240 q 622 360 615 311 l 671 671 q 653 791 685 747 q 557 835 621 835 l 456 200 z "},"Х":{"ha":833,"x_min":-22,"x_max":878,"o":"m -22 0 l 340 524 l 156 1014 l 344 1014 l 431 760 q 448 706 439 732 q 460 667 457 681 q 481 706 467 681 q 513 760 494 732 l 683 1014 l 878 1014 l 536 518 l 733 0 l 546 0 l 447 281 q 429 335 438 308 q 417 376 421 361 q 394 335 410 361 q 361 281 379 308 l 174 0 l -22 0 z "},"Ч":{"ha":833,"x_min":107,"x_max":822,"o":"m 488 0 l 549 385 q 485 376 531 381 q 379 371 440 371 q 174 451 242 371 q 128 668 107 532 l 183 1014 l 357 1014 l 304 675 q 330 568 293 608 q 440 528 367 528 q 525 533 490 528 q 572 542 560 538 l 649 1014 l 822 1014 l 661 0 l 488 0 z "},"Ц":{"ha":833,"x_min":47,"x_max":792,"o":"m 544 -194 l 575 0 l 47 0 l 208 1014 l 382 1014 l 246 160 l 482 160 l 618 1014 l 792 1014 l 656 160 l 760 160 l 704 -194 l 544 -194 z "},"Ш":{"ha":833,"x_min":10,"x_max":864,"o":"m 10 0 l 169 1014 l 318 1014 l 176 121 l 313 121 l 454 1014 l 581 1014 l 439 121 l 575 121 l 717 1014 l 864 1014 l 703 0 l 10 0 z "},"Щ":{"ha":833,"x_min":7,"x_max":828,"o":"m 565 -194 l 596 0 l 7 0 l 168 1014 l 307 1014 l 165 125 l 297 125 l 438 1014 l 558 1014 l 418 125 l 549 125 l 690 1014 l 828 1014 l 688 125 l 767 125 l 717 -194 l 565 -194 z "},"Џ":{"ha":833,"x_min":47,"x_max":825,"o":"m 240 -174 l 268 0 l 47 0 l 208 1014 l 382 1014 l 246 161 l 517 161 l 651 1014 l 825 1014 l 664 0 l 443 0 l 415 -174 l 240 -174 z "},"Ь":{"ha":833,"x_min":47,"x_max":782,"o":"m 47 0 l 208 1014 l 382 1014 l 317 610 l 476 610 q 649 572 579 610 q 751 465 719 533 q 767 306 782 397 q 700 145 753 214 q 565 38 647 76 q 381 0 483 0 l 47 0 m 244 153 l 403 153 q 529 194 478 153 q 592 304 581 236 q 564 415 603 374 q 450 457 525 457 l 293 457 l 244 153 z "},"Ъ":{"ha":833,"x_min":69,"x_max":782,"o":"m 106 0 l 244 869 l 69 869 l 93 1014 l 440 1014 l 376 610 l 476 610 q 649 572 579 610 q 751 465 719 533 q 767 306 782 397 q 700 145 753 214 q 565 38 647 76 q 381 0 483 0 l 106 0 m 304 153 l 403 153 q 529 194 478 153 q 592 304 581 236 q 564 415 603 374 q 450 457 525 457 l 353 457 l 304 153 z "},"Ы":{"ha":833,"x_min":8,"x_max":864,"o":"m 8 0 l 169 1014 l 319 1014 l 256 610 l 299 610 q 484 539 424 610 q 525 344 544 468 l 511 264 q 410 71 492 142 q 203 0 328 0 l 8 0 m 181 139 l 225 139 q 319 172 282 139 q 365 265 356 204 l 378 343 q 361 438 388 404 q 278 471 335 471 l 233 471 l 181 139 m 553 0 l 714 1014 l 864 1014 l 703 0 l 553 0 z "},"Љ":{"ha":833,"x_min":-74,"x_max":829,"o":"m -74 -7 l -51 132 l -25 132 q 40 172 13 132 q 79 278 68 211 l 206 1014 l 628 1014 l 564 610 l 601 610 q 772 545 715 610 q 811 369 829 481 l 790 240 q 697 65 774 129 q 506 0 619 0 l 324 0 l 464 882 l 325 882 l 222 278 q 171 128 208 192 q 79 28 133 64 q -40 -7 25 -7 l -74 -7 m 488 132 l 526 132 q 606 161 574 132 q 647 240 639 190 l 668 367 q 652 448 675 419 q 582 476 629 476 l 543 476 l 488 132 z "},"Њ":{"ha":833,"x_min":1,"x_max":831,"o":"m 1 0 l 163 1014 l 307 1014 l 243 618 l 421 618 l 485 1014 l 628 1014 l 565 618 l 604 618 q 774 553 718 618 q 813 376 831 489 l 790 240 q 697 65 774 129 q 506 0 621 0 l 324 0 l 400 485 l 222 485 l 146 0 l 1 0 m 488 132 l 526 132 q 608 161 576 132 q 647 240 639 190 l 668 375 q 654 456 676 428 q 583 485 632 485 l 544 485 l 488 132 z "},"Ѕ":{"ha":833,"x_min":42,"x_max":815,"o":"m 356 -14 q 121 63 200 -14 q 63 272 42 140 l 236 272 q 265 174 225 210 q 382 139 304 139 q 504 174 457 139 q 563 269 551 208 q 547 363 571 325 q 474 415 524 401 l 361 447 q 194 558 247 479 q 156 744 140 636 q 219 894 169 831 q 345 993 268 958 q 519 1028 422 1028 q 741 952 667 1028 q 796 749 815 876 l 622 749 q 599 842 632 808 q 494 876 565 876 q 383 844 426 876 q 332 754 340 813 q 344 661 322 700 q 417 608 367 622 l 532 575 q 701 465 647 543 q 736 276 754 388 q 670 124 722 189 q 538 22 618 58 q 356 -14 457 -14 z "},"Є":{"ha":833,"x_min":71,"x_max":811,"o":"m 358 -14 q 194 23 261 -14 q 99 127 128 60 q 85 286 71 194 l 154 728 q 219 888 169 821 q 348 991 269 954 q 524 1028 426 1028 q 688 991 622 1028 q 782 887 753 954 q 797 728 811 819 l 622 728 q 603 838 635 800 q 500 876 571 876 q 385 838 431 876 q 328 729 340 800 l 307 589 l 603 589 l 579 432 l 282 432 l 258 286 q 280 176 247 215 q 383 138 313 138 q 497 176 453 138 q 553 286 542 215 l 726 286 q 662 128 713 196 q 534 23 611 60 q 358 -14 457 -14 z "},"Э":{"ha":833,"x_min":61,"x_max":801,"o":"m 347 -14 q 184 23 250 -14 q 90 128 118 60 q 75 286 61 196 l 249 286 q 269 176 238 215 q 372 138 301 138 q 487 176 442 138 q 543 286 532 215 l 567 432 l 271 432 l 294 589 l 592 589 l 613 729 q 592 838 625 800 q 489 876 560 876 q 375 838 419 876 q 318 728 331 800 l 144 728 q 210 887 160 819 q 338 991 260 954 q 513 1028 415 1028 q 677 991 611 1028 q 772 888 743 954 q 786 728 801 821 l 717 286 q 652 127 703 194 q 524 23 601 60 q 347 -14 446 -14 z "},"І":{"ha":833,"x_min":64,"x_max":808,"o":"m 64 0 l 89 153 l 293 153 l 404 861 l 201 861 l 225 1014 l 808 1014 l 783 861 l 579 861 l 468 153 l 671 153 l 647 0 l 64 0 z "},"Ї":{"ha":833,"x_min":64,"x_max":821,"o":"m 64 0 l 89 153 l 293 153 l 404 861 l 201 861 l 225 1014 l 808 1014 l 783 861 l 579 861 l 468 153 l 671 153 l 647 0 l 64 0 m 696 1122 q 626 1149 650 1122 q 610 1222 603 1176 q 650 1297 618 1269 q 729 1324 682 1324 q 798 1297 775 1324 q 814 1222 821 1269 q 775 1149 807 1176 q 696 1122 743 1122 m 369 1122 q 301 1149 324 1122 q 283 1222 278 1176 q 324 1297 292 1269 q 403 1324 356 1324 q 472 1297 449 1324 q 488 1222 496 1269 q 449 1149 481 1176 q 369 1122 417 1122 z "},"Ј":{"ha":833,"x_min":6,"x_max":808,"o":"m 311 -15 q 81 70 157 -15 q 29 300 6 156 l 203 300 q 226 181 190 224 q 336 138 261 138 q 459 180 410 138 q 521 299 508 222 l 608 853 l 374 853 l 399 1014 l 808 1014 l 694 299 q 627 132 679 203 q 494 23 575 61 q 311 -15 414 -15 z "},"Ћ":{"ha":833,"x_min":74,"x_max":800,"o":"m 83 0 l 218 854 l 74 854 l 100 1014 l 576 1014 l 551 854 l 392 854 l 349 569 l 371 590 q 592 688 479 688 q 749 614 697 688 q 779 418 800 540 l 714 0 l 540 0 l 604 403 q 594 503 614 469 q 525 538 574 538 q 460 521 494 538 q 383 468 425 504 l 322 414 l 257 0 l 83 0 z "},"Ю":{"ha":833,"x_min":6,"x_max":865,"o":"m 479 -14 q 326 56 376 -14 q 296 242 276 125 l 329 454 l 226 454 l 154 0 l 6 0 l 167 1014 l 315 1014 l 247 586 l 350 586 l 379 772 q 469 959 399 890 q 644 1028 540 1028 q 811 960 757 1028 q 847 772 865 892 l 764 242 q 668 56 744 125 q 479 -14 592 -14 m 501 121 q 576 151 547 121 q 614 233 606 181 l 700 781 q 689 863 710 833 q 624 893 668 893 q 549 863 578 893 q 510 781 519 833 l 424 233 q 435 151 415 181 q 501 121 456 121 z "},"Я":{"ha":833,"x_min":1,"x_max":825,"o":"m 1 0 l 314 499 l 315 414 q 199 467 246 426 q 133 572 151 508 q 125 713 114 635 q 192 872 139 804 q 325 976 244 939 q 506 1014 406 1014 l 825 1014 l 664 0 l 490 0 l 556 403 l 431 403 l 186 0 l 1 0 m 432 554 l 579 554 l 628 863 l 481 863 q 360 821 410 863 q 299 707 311 779 q 324 595 289 636 q 432 554 360 554 z "},"Ђ":{"ha":833,"x_min":74,"x_max":800,"o":"m 281 -250 l 306 -85 l 396 -85 q 497 -51 457 -85 q 547 42 538 -17 l 604 403 q 594 503 614 469 q 525 538 574 538 q 460 521 494 538 q 383 468 425 504 l 322 414 l 257 0 l 83 0 l 218 854 l 74 854 l 100 1014 l 576 1014 l 551 854 l 392 854 l 349 569 l 371 590 q 592 688 479 688 q 749 614 697 688 q 779 418 800 540 l 719 29 q 657 -117 707 -54 q 531 -215 607 -181 q 361 -250 454 -250 l 281 -250 z "},"Ү":{"ha":833,"x_min":132,"x_max":901,"o":"m 268 0 l 326 368 l 132 1014 l 310 1014 l 411 663 q 429 581 422 621 q 438 518 436 540 q 464 581 446 540 q 506 663 482 621 l 717 1014 l 901 1014 l 500 368 l 443 0 l 268 0 z "},"Ө":{"ha":833,"x_min":64,"x_max":808,"o":"m 353 -14 q 134 69 204 -14 q 86 290 64 151 l 154 725 q 217 885 169 818 q 342 990 265 953 q 518 1028 419 1028 q 738 946 667 1028 q 786 725 808 864 l 718 290 q 655 131 704 199 q 528 24 606 63 q 353 -14 451 -14 m 378 138 q 497 180 451 138 q 553 294 542 222 l 576 444 l 275 444 l 251 294 q 272 180 240 222 q 378 138 303 138 m 299 592 l 600 592 l 621 719 q 601 835 632 793 q 494 876 569 876 q 376 835 421 876 q 319 719 331 793 l 299 592 z "},"а":{"ha":833,"x_min":61,"x_max":788,"o":"m 289 -14 q 117 65 174 -14 q 83 278 61 144 l 115 485 q 172 640 131 575 q 276 742 214 706 q 415 778 339 778 q 556 724 510 778 q 588 578 603 671 l 556 618 l 594 618 l 614 764 l 788 764 l 667 0 l 496 0 l 519 146 l 482 146 l 526 186 q 447 40 511 93 q 289 -14 383 -14 m 375 136 q 483 176 440 136 q 538 286 526 215 l 568 478 q 549 588 581 549 q 451 628 517 628 q 342 589 385 628 q 289 478 300 550 l 258 286 q 276 175 246 214 q 375 136 307 136 z "},"б":{"ha":833,"x_min":63,"x_max":794,"o":"m 353 -14 q 135 68 208 -12 q 85 289 63 149 l 139 632 q 283 915 168 815 q 579 1014 397 1014 l 794 1014 l 767 844 l 551 844 q 391 790 451 844 q 314 632 331 736 l 299 538 l 318 538 l 297 515 q 369 640 310 594 q 525 686 429 686 q 701 608 646 686 q 733 390 757 529 l 717 289 q 653 127 703 196 q 528 22 604 58 q 353 -14 451 -15 m 378 138 q 489 177 446 138 q 543 289 532 217 l 560 390 q 542 503 572 464 q 442 542 511 542 q 331 503 374 542 q 275 390 288 465 l 258 289 q 278 177 247 217 q 378 138 308 138 z "}}}
